<mxfile host="app.diagrams.net" modified="2024-01-08T01:25:12.834Z" agent="Mozilla/5.0 (Windows NT 10.0; Win64; x64) AppleWebKit/537.36 (KHTML, like Gecko) Chrome/120.0.0.0 Safari/537.36" etag="zeE20228BeZKTeaHWeeD" version="22.1.17" type="device" pages="4">
  <diagram id="YTMpKmhBTy25Sknq2T_L" name="Manufacturing">
    <mxGraphModel dx="2389" dy="818" grid="1" gridSize="10" guides="1" tooltips="1" connect="1" arrows="1" fold="1" page="1" pageScale="1" pageWidth="827" pageHeight="1169" math="0" shadow="0">
      <root>
        <mxCell id="bZcgU8KG57-F1ER2HjaA-0" />
        <mxCell id="bZcgU8KG57-F1ER2HjaA-1" parent="bZcgU8KG57-F1ER2HjaA-0" />
        <mxCell id="bZcgU8KG57-F1ER2HjaA-5" value="" style="edgeStyle=none;strokeWidth=4;rounded=0;startArrow=none;strokeColor=#D1C6A7;" parent="bZcgU8KG57-F1ER2HjaA-1" source="bZcgU8KG57-F1ER2HjaA-256" target="bZcgU8KG57-F1ER2HjaA-4" edge="1">
          <mxGeometry width="100" height="100" relative="1" as="geometry">
            <mxPoint x="630" y="180" as="sourcePoint" />
            <mxPoint x="243.54166666666677" y="140.00000000000006" as="targetPoint" />
          </mxGeometry>
        </mxCell>
        <mxCell id="bZcgU8KG57-F1ER2HjaA-259" value="" style="edgeStyle=none;strokeWidth=4;rounded=0;endArrow=none;startArrow=none;strokeColor=#D1C6A7;" parent="bZcgU8KG57-F1ER2HjaA-1" target="bZcgU8KG57-F1ER2HjaA-256" edge="1">
          <mxGeometry width="100" height="100" relative="1" as="geometry">
            <mxPoint x="379.93000000000006" y="190" as="sourcePoint" />
            <mxPoint x="600" y="190" as="targetPoint" />
          </mxGeometry>
        </mxCell>
        <mxCell id="bZcgU8KG57-F1ER2HjaA-261" value="" style="edgeStyle=none;strokeWidth=4;rounded=0;endArrow=none;startArrow=none;strokeColor=#D1C6A7;" parent="bZcgU8KG57-F1ER2HjaA-1" source="bZcgU8KG57-F1ER2HjaA-268" target="bZcgU8KG57-F1ER2HjaA-263" edge="1">
          <mxGeometry width="100" height="100" relative="1" as="geometry">
            <mxPoint x="-220" y="190" as="sourcePoint" />
            <mxPoint x="220" y="350" as="targetPoint" />
          </mxGeometry>
        </mxCell>
        <mxCell id="bZcgU8KG57-F1ER2HjaA-269" value="" style="edgeStyle=none;strokeWidth=4;rounded=0;endArrow=none;startArrow=none;" parent="bZcgU8KG57-F1ER2HjaA-1" source="bZcgU8KG57-F1ER2HjaA-268" edge="1">
          <mxGeometry width="100" height="100" relative="1" as="geometry">
            <mxPoint x="-220" y="190" as="sourcePoint" />
            <mxPoint x="160" y="190" as="targetPoint" />
          </mxGeometry>
        </mxCell>
        <mxCell id="bZcgU8KG57-F1ER2HjaA-270" value="" style="edgeStyle=none;strokeWidth=4;rounded=0;endArrow=none;startArrow=none;strokeColor=#D1C6A7;" parent="bZcgU8KG57-F1ER2HjaA-1" source="bZcgU8KG57-F1ER2HjaA-271" target="bZcgU8KG57-F1ER2HjaA-268" edge="1">
          <mxGeometry width="100" height="100" relative="1" as="geometry">
            <mxPoint x="-220" y="190" as="sourcePoint" />
            <mxPoint x="100" y="190" as="targetPoint" />
          </mxGeometry>
        </mxCell>
        <mxCell id="bZcgU8KG57-F1ER2HjaA-272" value="" style="edgeStyle=none;strokeWidth=4;rounded=0;endArrow=none;strokeColor=#D1C6A7;" parent="bZcgU8KG57-F1ER2HjaA-1" target="bZcgU8KG57-F1ER2HjaA-271" edge="1">
          <mxGeometry width="100" height="100" relative="1" as="geometry">
            <mxPoint x="-220" y="190" as="sourcePoint" />
            <mxPoint x="160.83000000000015" y="190" as="targetPoint" />
          </mxGeometry>
        </mxCell>
        <mxCell id="bZcgU8KG57-F1ER2HjaA-2" value="Measurements" style="whiteSpace=wrap;strokeWidth=2;fillColor=#d5e8d4;strokeColor=#82b366;" parent="bZcgU8KG57-F1ER2HjaA-1" vertex="1">
          <mxGeometry x="40" y="20.000000000000057" width="120" height="60" as="geometry" />
        </mxCell>
        <mxCell id="bZcgU8KG57-F1ER2HjaA-3" value="Mission (fit for purpose) and environment" style="whiteSpace=wrap;strokeWidth=2;fillColor=#fff2cc;strokeColor=#d6b656;" parent="bZcgU8KG57-F1ER2HjaA-1" vertex="1">
          <mxGeometry x="40" y="310.00000000000006" width="120" height="60" as="geometry" />
        </mxCell>
        <mxCell id="bZcgU8KG57-F1ER2HjaA-4" value="Defective part" style="whiteSpace=wrap;strokeWidth=3;fillColor=#f9f7ed;strokeColor=#D1C6A7;" parent="bZcgU8KG57-F1ER2HjaA-1" vertex="1">
          <mxGeometry x="699.7916666666667" y="160.00000000000006" width="120" height="60" as="geometry" />
        </mxCell>
        <mxCell id="bZcgU8KG57-F1ER2HjaA-6" value="" style="edgeStyle=none;exitX=0.5;exitY=1;strokeWidth=3;rounded=0;fillColor=#d5e8d4;strokeColor=#82b366;" parent="bZcgU8KG57-F1ER2HjaA-1" source="bZcgU8KG57-F1ER2HjaA-2" target="bZcgU8KG57-F1ER2HjaA-268" edge="1">
          <mxGeometry width="100" height="100" relative="1" as="geometry">
            <mxPoint x="100" y="100.00000000000006" as="sourcePoint" />
            <mxPoint x="160" y="190.00000000000006" as="targetPoint" />
          </mxGeometry>
        </mxCell>
        <mxCell id="bZcgU8KG57-F1ER2HjaA-7" value="" style="edgeStyle=none;exitX=0.5;exitY=0;strokeWidth=3;rounded=0;fillColor=#fff2cc;strokeColor=#d6b656;" parent="bZcgU8KG57-F1ER2HjaA-1" target="bZcgU8KG57-F1ER2HjaA-268" edge="1">
          <mxGeometry width="100" height="100" relative="1" as="geometry">
            <mxPoint x="100" y="310.00000000000006" as="sourcePoint" />
            <mxPoint x="160" y="190.00000000000006" as="targetPoint" />
          </mxGeometry>
        </mxCell>
        <mxCell id="bZcgU8KG57-F1ER2HjaA-8" value="" style="edgeStyle=none;endArrow=none;strokeWidth=2;rounded=0;fillColor=#d5e8d4;strokeColor=#82b366;" parent="bZcgU8KG57-F1ER2HjaA-1" edge="1">
          <mxGeometry width="100" height="100" relative="1" as="geometry">
            <mxPoint x="49.99999999999999" y="100.00000000000006" as="sourcePoint" />
            <mxPoint x="110" y="100.00000000000006" as="targetPoint" />
          </mxGeometry>
        </mxCell>
        <mxCell id="bZcgU8KG57-F1ER2HjaA-9" value="" style="edgeStyle=none;endArrow=none;strokeWidth=2;rounded=0;fillColor=#d5e8d4;strokeColor=#82b366;" parent="bZcgU8KG57-F1ER2HjaA-1" edge="1">
          <mxGeometry width="100" height="100" relative="1" as="geometry">
            <mxPoint x="70" y="136.00000000000006" as="sourcePoint" />
            <mxPoint x="130" y="136.00000000000006" as="targetPoint" />
          </mxGeometry>
        </mxCell>
        <mxCell id="bZcgU8KG57-F1ER2HjaA-11" value="" style="edgeStyle=none;endArrow=none;strokeWidth=2;rounded=0;fillColor=#d5e8d4;strokeColor=#82b366;" parent="bZcgU8KG57-F1ER2HjaA-1" edge="1">
          <mxGeometry width="100" height="100" relative="1" as="geometry">
            <mxPoint x="110" y="100.00000000000006" as="sourcePoint" />
            <mxPoint x="170" y="100.00000000000006" as="targetPoint" />
          </mxGeometry>
        </mxCell>
        <mxCell id="bZcgU8KG57-F1ER2HjaA-12" value="" style="edgeStyle=none;endArrow=none;strokeWidth=2;rounded=0;fillColor=#d5e8d4;strokeColor=#82b366;" parent="bZcgU8KG57-F1ER2HjaA-1" edge="1">
          <mxGeometry width="100" height="100" relative="1" as="geometry">
            <mxPoint x="130" y="136.00000000000006" as="sourcePoint" />
            <mxPoint x="190" y="136.00000000000006" as="targetPoint" />
          </mxGeometry>
        </mxCell>
        <mxCell id="bZcgU8KG57-F1ER2HjaA-14" value="" style="edgeStyle=none;endArrow=none;strokeWidth=2;rounded=0;fillColor=#fff2cc;strokeColor=#d6b656;" parent="bZcgU8KG57-F1ER2HjaA-1" edge="1">
          <mxGeometry width="100" height="100" relative="1" as="geometry">
            <mxPoint x="90" y="210.00000000000006" as="sourcePoint" />
            <mxPoint x="150" y="210.00000000000006" as="targetPoint" />
          </mxGeometry>
        </mxCell>
        <mxCell id="bZcgU8KG57-F1ER2HjaA-15" value="" style="edgeStyle=none;endArrow=none;strokeWidth=2;rounded=0;fillColor=#fff2cc;strokeColor=#d6b656;" parent="bZcgU8KG57-F1ER2HjaA-1" edge="1">
          <mxGeometry width="100" height="100" relative="1" as="geometry">
            <mxPoint x="70" y="250.00000000000006" as="sourcePoint" />
            <mxPoint x="130" y="250.00000000000006" as="targetPoint" />
          </mxGeometry>
        </mxCell>
        <mxCell id="bZcgU8KG57-F1ER2HjaA-16" value="" style="edgeStyle=none;endArrow=none;strokeWidth=2;rounded=0;fillColor=#fff2cc;strokeColor=#d6b656;" parent="bZcgU8KG57-F1ER2HjaA-1" edge="1">
          <mxGeometry width="100" height="100" relative="1" as="geometry">
            <mxPoint x="49.99999999999999" y="290.00000000000006" as="sourcePoint" />
            <mxPoint x="110" y="290.00000000000006" as="targetPoint" />
          </mxGeometry>
        </mxCell>
        <mxCell id="bZcgU8KG57-F1ER2HjaA-17" value="" style="edgeStyle=none;endArrow=none;strokeWidth=2;rounded=0;fillColor=#fff2cc;strokeColor=#d6b656;" parent="bZcgU8KG57-F1ER2HjaA-1" edge="1">
          <mxGeometry width="100" height="100" relative="1" as="geometry">
            <mxPoint x="150" y="210.00000000000006" as="sourcePoint" />
            <mxPoint x="210" y="210.00000000000006" as="targetPoint" />
          </mxGeometry>
        </mxCell>
        <mxCell id="bZcgU8KG57-F1ER2HjaA-18" value="" style="edgeStyle=none;endArrow=none;strokeWidth=2;rounded=0;fillColor=#fff2cc;strokeColor=#d6b656;" parent="bZcgU8KG57-F1ER2HjaA-1" edge="1">
          <mxGeometry width="100" height="100" relative="1" as="geometry">
            <mxPoint x="130" y="250.00000000000006" as="sourcePoint" />
            <mxPoint x="190" y="250.00000000000006" as="targetPoint" />
          </mxGeometry>
        </mxCell>
        <mxCell id="bZcgU8KG57-F1ER2HjaA-20" value="" style="edgeStyle=none;endArrow=none;rounded=0;fillColor=#d5e8d4;strokeColor=#82b366;" parent="bZcgU8KG57-F1ER2HjaA-1" edge="1">
          <mxGeometry width="100" height="100" relative="1" as="geometry">
            <mxPoint x="80" y="120.00000000000006" as="sourcePoint" />
            <mxPoint x="100" y="100.00000000000006" as="targetPoint" />
          </mxGeometry>
        </mxCell>
        <mxCell id="bZcgU8KG57-F1ER2HjaA-21" value="" style="edgeStyle=none;endArrow=none;rounded=0;fillColor=#d5e8d4;strokeColor=#82b366;" parent="bZcgU8KG57-F1ER2HjaA-1" edge="1">
          <mxGeometry width="100" height="100" relative="1" as="geometry">
            <mxPoint x="49.99999999999999" y="120.00000000000006" as="sourcePoint" />
            <mxPoint x="70" y="100.00000000000006" as="targetPoint" />
          </mxGeometry>
        </mxCell>
        <mxCell id="bZcgU8KG57-F1ER2HjaA-24" value="" style="edgeStyle=none;endArrow=none;rounded=0;fillColor=#d5e8d4;strokeColor=#82b366;" parent="bZcgU8KG57-F1ER2HjaA-1" edge="1">
          <mxGeometry width="100" height="100" relative="1" as="geometry">
            <mxPoint x="139.51774691358025" y="136.36959876543207" as="sourcePoint" />
            <mxPoint x="159.51774691358025" y="116.36959876543207" as="targetPoint" />
          </mxGeometry>
        </mxCell>
        <mxCell id="bZcgU8KG57-F1ER2HjaA-25" value="" style="edgeStyle=none;endArrow=none;rounded=0;fillColor=#d5e8d4;strokeColor=#82b366;" parent="bZcgU8KG57-F1ER2HjaA-1" edge="1">
          <mxGeometry width="100" height="100" relative="1" as="geometry">
            <mxPoint x="169.51774691358025" y="136.36959876543207" as="sourcePoint" />
            <mxPoint x="189.51774691358025" y="116.36959876543207" as="targetPoint" />
          </mxGeometry>
        </mxCell>
        <mxCell id="bZcgU8KG57-F1ER2HjaA-26" value="" style="edgeStyle=none;endArrow=none;rounded=0;fillColor=#d5e8d4;strokeColor=#82b366;" parent="bZcgU8KG57-F1ER2HjaA-1" edge="1">
          <mxGeometry width="100" height="100" relative="1" as="geometry">
            <mxPoint x="99.51774691358025" y="156.36959876543204" as="sourcePoint" />
            <mxPoint x="119.51774691358025" y="136.36959876543207" as="targetPoint" />
          </mxGeometry>
        </mxCell>
        <mxCell id="bZcgU8KG57-F1ER2HjaA-27" value="" style="edgeStyle=none;endArrow=none;rounded=0;fillColor=#d5e8d4;strokeColor=#82b366;" parent="bZcgU8KG57-F1ER2HjaA-1" edge="1">
          <mxGeometry width="100" height="100" relative="1" as="geometry">
            <mxPoint x="69.51774691358023" y="156.36959876543204" as="sourcePoint" />
            <mxPoint x="89.51774691358025" y="136.36959876543207" as="targetPoint" />
          </mxGeometry>
        </mxCell>
        <mxCell id="bZcgU8KG57-F1ER2HjaA-30" value="" style="edgeStyle=none;endArrow=none;rounded=0;fillColor=#fff2cc;strokeColor=#d6b656;" parent="bZcgU8KG57-F1ER2HjaA-1" edge="1">
          <mxGeometry width="100" height="100" relative="1" as="geometry">
            <mxPoint x="170" y="250.00000000000006" as="sourcePoint" />
            <mxPoint x="190" y="230.00000000000006" as="targetPoint" />
          </mxGeometry>
        </mxCell>
        <mxCell id="bZcgU8KG57-F1ER2HjaA-31" value="" style="edgeStyle=none;endArrow=none;rounded=0;fillColor=#fff2cc;strokeColor=#d6b656;" parent="bZcgU8KG57-F1ER2HjaA-1" edge="1">
          <mxGeometry width="100" height="100" relative="1" as="geometry">
            <mxPoint x="140" y="250.00000000000006" as="sourcePoint" />
            <mxPoint x="160" y="230.00000000000006" as="targetPoint" />
          </mxGeometry>
        </mxCell>
        <mxCell id="bZcgU8KG57-F1ER2HjaA-32" value="" style="edgeStyle=none;endArrow=none;rounded=0;" parent="bZcgU8KG57-F1ER2HjaA-1" edge="1">
          <mxGeometry width="100" height="100" relative="1" as="geometry">
            <mxPoint x="100" y="270.00000000000006" as="sourcePoint" />
            <mxPoint x="120" y="250.00000000000006" as="targetPoint" />
          </mxGeometry>
        </mxCell>
        <mxCell id="bZcgU8KG57-F1ER2HjaA-33" value="" style="edgeStyle=none;endArrow=none;rounded=0;fillColor=#fff2cc;strokeColor=#d6b656;" parent="bZcgU8KG57-F1ER2HjaA-1" edge="1">
          <mxGeometry width="100" height="100" relative="1" as="geometry">
            <mxPoint x="100" y="270.00000000000006" as="sourcePoint" />
            <mxPoint x="120" y="250.00000000000006" as="targetPoint" />
          </mxGeometry>
        </mxCell>
        <mxCell id="bZcgU8KG57-F1ER2HjaA-34" value="" style="edgeStyle=none;endArrow=none;rounded=0;fillColor=#fff2cc;strokeColor=#d6b656;" parent="bZcgU8KG57-F1ER2HjaA-1" edge="1">
          <mxGeometry width="100" height="100" relative="1" as="geometry">
            <mxPoint x="70" y="270.00000000000006" as="sourcePoint" />
            <mxPoint x="90" y="250.00000000000006" as="targetPoint" />
          </mxGeometry>
        </mxCell>
        <mxCell id="bZcgU8KG57-F1ER2HjaA-35" value="" style="edgeStyle=none;endArrow=none;rounded=0;fillColor=#fff2cc;strokeColor=#d6b656;" parent="bZcgU8KG57-F1ER2HjaA-1" edge="1">
          <mxGeometry width="100" height="100" relative="1" as="geometry">
            <mxPoint x="120" y="230.00000000000006" as="sourcePoint" />
            <mxPoint x="140" y="210.00000000000006" as="targetPoint" />
          </mxGeometry>
        </mxCell>
        <mxCell id="bZcgU8KG57-F1ER2HjaA-36" value="" style="edgeStyle=none;endArrow=none;rounded=0;fillColor=#fff2cc;strokeColor=#d6b656;" parent="bZcgU8KG57-F1ER2HjaA-1" edge="1">
          <mxGeometry width="100" height="100" relative="1" as="geometry">
            <mxPoint x="90" y="230.00000000000006" as="sourcePoint" />
            <mxPoint x="110" y="210.00000000000006" as="targetPoint" />
          </mxGeometry>
        </mxCell>
        <mxCell id="bZcgU8KG57-F1ER2HjaA-37" value="Production state" style="text;spacingTop=-5;fontSize=8;align=center;verticalAlign=middle;points=[]" parent="bZcgU8KG57-F1ER2HjaA-1" vertex="1">
          <mxGeometry x="21" y="87.00000000000011" width="30" height="19.999999999999886" as="geometry" />
        </mxCell>
        <mxCell id="bZcgU8KG57-F1ER2HjaA-38" value="Network" style="text;spacingTop=-5;fontSize=8;align=center;verticalAlign=middle;points=[]" parent="bZcgU8KG57-F1ER2HjaA-1" vertex="1">
          <mxGeometry x="39.99999999999997" y="130" width="30" height="19.999999999999886" as="geometry" />
        </mxCell>
        <mxCell id="bZcgU8KG57-F1ER2HjaA-40" value="Pellet storage" style="text;spacingTop=-5;fontSize=8;align=center;verticalAlign=middle;points=[]" parent="bZcgU8KG57-F1ER2HjaA-1" vertex="1">
          <mxGeometry x="59.999999999999964" y="195.00000000000028" width="30" height="19.999999999999886" as="geometry" />
        </mxCell>
        <mxCell id="bZcgU8KG57-F1ER2HjaA-41" value="Tolerances" style="text;spacingTop=-5;fontSize=8;align=center;verticalAlign=middle;points=[]" parent="bZcgU8KG57-F1ER2HjaA-1" vertex="1">
          <mxGeometry x="41.99999999999993" y="246.9999999999999" width="30" height="19.999999999999886" as="geometry" />
        </mxCell>
        <mxCell id="bZcgU8KG57-F1ER2HjaA-42" value="Inspection" style="text;spacingTop=-5;fontSize=8;align=center;verticalAlign=middle;points=[]" parent="bZcgU8KG57-F1ER2HjaA-1" vertex="1">
          <mxGeometry x="28.000000000000057" y="289.0000000000003" width="30" height="19.999999999999886" as="geometry" />
        </mxCell>
        <mxCell id="bZcgU8KG57-F1ER2HjaA-43" value="Load" style="text;spacingTop=-5;fontSize=6;align=center;verticalAlign=middle;points=[]" parent="bZcgU8KG57-F1ER2HjaA-1" vertex="1">
          <mxGeometry x="35.00000000000007" y="117" width="30" height="19.999999999999886" as="geometry" />
        </mxCell>
        <mxCell id="bZcgU8KG57-F1ER2HjaA-44" value="Operation time" style="text;spacingTop=-5;fontSize=6;align=center;verticalAlign=middle;points=[]" parent="bZcgU8KG57-F1ER2HjaA-1" vertex="1">
          <mxGeometry x="69.99999999999994" y="117.00000000000003" width="30" height="19.999999999999886" as="geometry" />
        </mxCell>
        <mxCell id="bZcgU8KG57-F1ER2HjaA-45" value="Traffic" style="text;spacingTop=-5;fontSize=6;align=center;verticalAlign=middle;points=[]" parent="bZcgU8KG57-F1ER2HjaA-1" vertex="1">
          <mxGeometry x="48.055555555555536" y="153.52777777777777" width="30" height="19.999999999999886" as="geometry" />
        </mxCell>
        <mxCell id="bZcgU8KG57-F1ER2HjaA-46" value="Storage" style="text;spacingTop=-5;fontSize=6;align=center;verticalAlign=middle;points=[]" parent="bZcgU8KG57-F1ER2HjaA-1" vertex="1">
          <mxGeometry x="83.0555555555554" y="153.52777777777789" width="30" height="19.999999999999886" as="geometry" />
        </mxCell>
        <mxCell id="bZcgU8KG57-F1ER2HjaA-47" value="Degradation" style="text;spacingTop=-5;fontSize=6;align=center;verticalAlign=middle;points=[]" parent="bZcgU8KG57-F1ER2HjaA-1" vertex="1">
          <mxGeometry x="65" y="228.41666666666663" width="30" height="19.999999999999886" as="geometry" />
        </mxCell>
        <mxCell id="bZcgU8KG57-F1ER2HjaA-48" value="Humidity" style="text;spacingTop=-5;fontSize=6;align=center;verticalAlign=middle;points=[]" parent="bZcgU8KG57-F1ER2HjaA-1" vertex="1">
          <mxGeometry x="99.99999999999983" y="228.41666666666674" width="30" height="19.999999999999886" as="geometry" />
        </mxCell>
        <mxCell id="bZcgU8KG57-F1ER2HjaA-49" value="Structural" style="text;spacingTop=-5;fontSize=6;align=center;verticalAlign=middle;points=[]" parent="bZcgU8KG57-F1ER2HjaA-1" vertex="1">
          <mxGeometry x="43.05555555555554" y="267.97222222222223" width="30" height="19.999999999999886" as="geometry" />
        </mxCell>
        <mxCell id="bZcgU8KG57-F1ER2HjaA-50" value="Optical" style="text;spacingTop=-5;fontSize=6;align=center;verticalAlign=middle;points=[]" parent="bZcgU8KG57-F1ER2HjaA-1" vertex="1">
          <mxGeometry x="78.0555555555554" y="267.97222222222234" width="30" height="19.999999999999886" as="geometry" />
        </mxCell>
        <mxCell id="bZcgU8KG57-F1ER2HjaA-51" value="Logs" style="text;spacingTop=-5;fontSize=6;align=center;verticalAlign=middle;points=[]" parent="bZcgU8KG57-F1ER2HjaA-1" vertex="1">
          <mxGeometry x="135.52777777777777" y="105.88888888888886" width="30" height="19.999999999999886" as="geometry" />
        </mxCell>
        <mxCell id="bZcgU8KG57-F1ER2HjaA-52" value="Specifications" style="text;spacingTop=-5;fontSize=6;align=center;verticalAlign=middle;points=[]" parent="bZcgU8KG57-F1ER2HjaA-1" vertex="1">
          <mxGeometry x="168.52777777777763" y="105.88888888888897" width="30" height="19.999999999999886" as="geometry" />
        </mxCell>
        <mxCell id="bZcgU8KG57-F1ER2HjaA-55" value="Storage" style="text;spacingTop=-5;fontSize=6;align=center;verticalAlign=middle;points=[]" parent="bZcgU8KG57-F1ER2HjaA-1" vertex="1">
          <mxGeometry x="150.83333333333331" y="218.33333333333337" width="30" height="19.999999999999886" as="geometry" />
        </mxCell>
        <mxCell id="bZcgU8KG57-F1ER2HjaA-56" value="Date" style="text;spacingTop=-5;fontSize=6;align=center;verticalAlign=middle;points=[]" parent="bZcgU8KG57-F1ER2HjaA-1" vertex="1">
          <mxGeometry x="185.83333333333317" y="218.33333333333348" width="30" height="19.999999999999886" as="geometry" />
        </mxCell>
        <mxCell id="bZcgU8KG57-F1ER2HjaA-59" value="Production record" style="text;spacingTop=-5;fontSize=8;align=center;verticalAlign=middle;points=[]" parent="bZcgU8KG57-F1ER2HjaA-1" vertex="1">
          <mxGeometry x="169.58333333333331" y="85.97222222222234" width="30" height="19.999999999999886" as="geometry" />
        </mxCell>
        <mxCell id="bZcgU8KG57-F1ER2HjaA-60" value="Monitor PC" style="text;spacingTop=-5;fontSize=8;align=center;verticalAlign=middle;points=[]" parent="bZcgU8KG57-F1ER2HjaA-1" vertex="1">
          <mxGeometry x="193.58333333333331" y="121.97222222222223" width="30" height="19.999999999999886" as="geometry" />
        </mxCell>
        <mxCell id="bZcgU8KG57-F1ER2HjaA-62" value="Temperature" style="text;spacingTop=-5;fontSize=8;align=center;verticalAlign=middle;points=[]" parent="bZcgU8KG57-F1ER2HjaA-1" vertex="1">
          <mxGeometry x="206.58333333333331" y="195.9722222222225" width="30" height="19.999999999999886" as="geometry" />
        </mxCell>
        <mxCell id="bZcgU8KG57-F1ER2HjaA-63" value="Additive storage" style="text;spacingTop=-5;fontSize=8;align=center;verticalAlign=middle;points=[]" parent="bZcgU8KG57-F1ER2HjaA-1" vertex="1">
          <mxGeometry x="193.58333333333326" y="236.97222222222211" width="30" height="19.999999999999886" as="geometry" />
        </mxCell>
        <mxCell id="bZcgU8KG57-F1ER2HjaA-65" value="Materials and information" style="whiteSpace=wrap;strokeWidth=2;fillColor=#ffe6cc;strokeColor=#d79b00;" parent="bZcgU8KG57-F1ER2HjaA-1" vertex="1">
          <mxGeometry x="263.54166666666674" y="20" width="120" height="60" as="geometry" />
        </mxCell>
        <mxCell id="bZcgU8KG57-F1ER2HjaA-66" value="Methods and processes" style="whiteSpace=wrap;strokeWidth=2;fillColor=#f8cecc;strokeColor=#b85450;" parent="bZcgU8KG57-F1ER2HjaA-1" vertex="1">
          <mxGeometry x="263.54166666666674" y="310" width="120" height="60" as="geometry" />
        </mxCell>
        <mxCell id="bZcgU8KG57-F1ER2HjaA-67" value="" style="edgeStyle=none;exitX=0.5;exitY=1;strokeWidth=3;rounded=0;fillColor=#ffe6cc;strokeColor=#d79b00;" parent="bZcgU8KG57-F1ER2HjaA-1" source="bZcgU8KG57-F1ER2HjaA-65" target="bZcgU8KG57-F1ER2HjaA-263" edge="1">
          <mxGeometry width="100" height="100" relative="1" as="geometry">
            <mxPoint x="323.54166666666674" y="99.99999999999997" as="sourcePoint" />
            <mxPoint x="383.54166666666674" y="190" as="targetPoint" />
          </mxGeometry>
        </mxCell>
        <mxCell id="bZcgU8KG57-F1ER2HjaA-69" value="" style="edgeStyle=none;endArrow=none;strokeWidth=2;rounded=0;fillColor=#ffe6cc;strokeColor=#d79b00;" parent="bZcgU8KG57-F1ER2HjaA-1" edge="1">
          <mxGeometry width="100" height="100" relative="1" as="geometry">
            <mxPoint x="273.54166666666686" y="99.99999999999997" as="sourcePoint" />
            <mxPoint x="333.54166666666674" y="99.99999999999997" as="targetPoint" />
          </mxGeometry>
        </mxCell>
        <mxCell id="bZcgU8KG57-F1ER2HjaA-70" value="" style="edgeStyle=none;endArrow=none;strokeWidth=2;rounded=0;fillColor=#ffe6cc;strokeColor=#d79b00;" parent="bZcgU8KG57-F1ER2HjaA-1" edge="1">
          <mxGeometry width="100" height="100" relative="1" as="geometry">
            <mxPoint x="293.54166666666674" y="135.99999999999997" as="sourcePoint" />
            <mxPoint x="353.54166666666663" y="135.99999999999997" as="targetPoint" />
          </mxGeometry>
        </mxCell>
        <mxCell id="bZcgU8KG57-F1ER2HjaA-72" value="" style="edgeStyle=none;endArrow=none;strokeWidth=2;rounded=0;fillColor=#ffe6cc;strokeColor=#d79b00;" parent="bZcgU8KG57-F1ER2HjaA-1" edge="1">
          <mxGeometry width="100" height="100" relative="1" as="geometry">
            <mxPoint x="333.54166666666674" y="99.99999999999997" as="sourcePoint" />
            <mxPoint x="393.54166666666674" y="99.99999999999997" as="targetPoint" />
          </mxGeometry>
        </mxCell>
        <mxCell id="bZcgU8KG57-F1ER2HjaA-73" value="" style="edgeStyle=none;endArrow=none;strokeWidth=2;rounded=0;fillColor=#ffe6cc;strokeColor=#d79b00;" parent="bZcgU8KG57-F1ER2HjaA-1" edge="1">
          <mxGeometry width="100" height="100" relative="1" as="geometry">
            <mxPoint x="353.54166666666663" y="135.99999999999997" as="sourcePoint" />
            <mxPoint x="413.54166666666674" y="135.99999999999997" as="targetPoint" />
          </mxGeometry>
        </mxCell>
        <mxCell id="bZcgU8KG57-F1ER2HjaA-74" value="" style="edgeStyle=none;endArrow=none;strokeWidth=2;rounded=0;fillColor=#ffe6cc;strokeColor=#d79b00;" parent="bZcgU8KG57-F1ER2HjaA-1" edge="1">
          <mxGeometry width="100" height="100" relative="1" as="geometry">
            <mxPoint x="373.54166666666686" y="170" as="sourcePoint" />
            <mxPoint x="433.54166666666674" y="170" as="targetPoint" />
          </mxGeometry>
        </mxCell>
        <mxCell id="bZcgU8KG57-F1ER2HjaA-75" value="" style="edgeStyle=none;endArrow=none;strokeWidth=2;rounded=0;fillColor=#f8cecc;strokeColor=#b85450;" parent="bZcgU8KG57-F1ER2HjaA-1" edge="1">
          <mxGeometry width="100" height="100" relative="1" as="geometry">
            <mxPoint x="313.54166666666674" y="210" as="sourcePoint" />
            <mxPoint x="373.54166666666686" y="210" as="targetPoint" />
          </mxGeometry>
        </mxCell>
        <mxCell id="bZcgU8KG57-F1ER2HjaA-76" value="" style="edgeStyle=none;endArrow=none;strokeWidth=2;rounded=0;fillColor=#f8cecc;strokeColor=#b85450;" parent="bZcgU8KG57-F1ER2HjaA-1" edge="1">
          <mxGeometry width="100" height="100" relative="1" as="geometry">
            <mxPoint x="293.54166666666674" y="250" as="sourcePoint" />
            <mxPoint x="353.54166666666663" y="250" as="targetPoint" />
          </mxGeometry>
        </mxCell>
        <mxCell id="bZcgU8KG57-F1ER2HjaA-78" value="" style="edgeStyle=none;endArrow=none;strokeWidth=2;rounded=0;fillColor=#f8cecc;strokeColor=#b85450;" parent="bZcgU8KG57-F1ER2HjaA-1" edge="1">
          <mxGeometry width="100" height="100" relative="1" as="geometry">
            <mxPoint x="373.54166666666686" y="210" as="sourcePoint" />
            <mxPoint x="433.54166666666674" y="210" as="targetPoint" />
          </mxGeometry>
        </mxCell>
        <mxCell id="bZcgU8KG57-F1ER2HjaA-79" value="" style="edgeStyle=none;endArrow=none;strokeWidth=2;rounded=0;fillColor=#f8cecc;strokeColor=#b85450;" parent="bZcgU8KG57-F1ER2HjaA-1" edge="1">
          <mxGeometry width="100" height="100" relative="1" as="geometry">
            <mxPoint x="353.54166666666663" y="250" as="sourcePoint" />
            <mxPoint x="413.54166666666674" y="250" as="targetPoint" />
          </mxGeometry>
        </mxCell>
        <mxCell id="bZcgU8KG57-F1ER2HjaA-80" value="" style="edgeStyle=none;endArrow=none;strokeWidth=2;rounded=0;fillColor=#f8cecc;strokeColor=#b85450;" parent="bZcgU8KG57-F1ER2HjaA-1" edge="1">
          <mxGeometry width="100" height="100" relative="1" as="geometry">
            <mxPoint x="333.54166666666674" y="290" as="sourcePoint" />
            <mxPoint x="393.54166666666674" y="290" as="targetPoint" />
          </mxGeometry>
        </mxCell>
        <mxCell id="bZcgU8KG57-F1ER2HjaA-81" value="" style="edgeStyle=none;endArrow=none;rounded=0;fillColor=#ffe6cc;strokeColor=#d79b00;" parent="bZcgU8KG57-F1ER2HjaA-1" edge="1">
          <mxGeometry width="100" height="100" relative="1" as="geometry">
            <mxPoint x="303.54166666666663" y="119.99999999999986" as="sourcePoint" />
            <mxPoint x="323.54166666666686" y="99.99999999999997" as="targetPoint" />
          </mxGeometry>
        </mxCell>
        <mxCell id="bZcgU8KG57-F1ER2HjaA-82" value="" style="edgeStyle=none;endArrow=none;rounded=0;fillColor=#ffe6cc;strokeColor=#d79b00;" parent="bZcgU8KG57-F1ER2HjaA-1" edge="1">
          <mxGeometry width="100" height="100" relative="1" as="geometry">
            <mxPoint x="273.54166666666686" y="119.99999999999986" as="sourcePoint" />
            <mxPoint x="293.54166666666674" y="99.99999999999997" as="targetPoint" />
          </mxGeometry>
        </mxCell>
        <mxCell id="bZcgU8KG57-F1ER2HjaA-83" value="" style="edgeStyle=none;endArrow=none;rounded=0;fillColor=#ffe6cc;strokeColor=#d79b00;" parent="bZcgU8KG57-F1ER2HjaA-1" edge="1">
          <mxGeometry width="100" height="100" relative="1" as="geometry">
            <mxPoint x="383.54166666666674" y="170" as="sourcePoint" />
            <mxPoint x="403.54166666666663" y="149.99999999999994" as="targetPoint" />
          </mxGeometry>
        </mxCell>
        <mxCell id="bZcgU8KG57-F1ER2HjaA-84" value="" style="edgeStyle=none;endArrow=none;rounded=0;fillColor=#ffe6cc;strokeColor=#d79b00;" parent="bZcgU8KG57-F1ER2HjaA-1" edge="1">
          <mxGeometry width="100" height="100" relative="1" as="geometry">
            <mxPoint x="413.54166666666674" y="170" as="sourcePoint" />
            <mxPoint x="433.54166666666674" y="149.99999999999994" as="targetPoint" />
          </mxGeometry>
        </mxCell>
        <mxCell id="bZcgU8KG57-F1ER2HjaA-87" value="" style="edgeStyle=none;endArrow=none;rounded=0;fillColor=#ffe6cc;strokeColor=#d79b00;" parent="bZcgU8KG57-F1ER2HjaA-1" edge="1">
          <mxGeometry width="100" height="100" relative="1" as="geometry">
            <mxPoint x="323.059413580247" y="156.36959876543182" as="sourcePoint" />
            <mxPoint x="343.0594135802469" y="136.36959876543207" as="targetPoint" />
          </mxGeometry>
        </mxCell>
        <mxCell id="bZcgU8KG57-F1ER2HjaA-88" value="" style="edgeStyle=none;endArrow=none;rounded=0;fillColor=#ffe6cc;strokeColor=#d79b00;" parent="bZcgU8KG57-F1ER2HjaA-1" edge="1">
          <mxGeometry width="100" height="100" relative="1" as="geometry">
            <mxPoint x="293.0594135802469" y="156.36959876543182" as="sourcePoint" />
            <mxPoint x="313.0594135802471" y="136.36959876543207" as="targetPoint" />
          </mxGeometry>
        </mxCell>
        <mxCell id="bZcgU8KG57-F1ER2HjaA-89" value="" style="edgeStyle=none;endArrow=none;rounded=0;fillColor=#f8cecc;strokeColor=#b85450;" parent="bZcgU8KG57-F1ER2HjaA-1" edge="1">
          <mxGeometry width="100" height="100" relative="1" as="geometry">
            <mxPoint x="373.54166666666686" y="290" as="sourcePoint" />
            <mxPoint x="393.54166666666674" y="270" as="targetPoint" />
          </mxGeometry>
        </mxCell>
        <mxCell id="bZcgU8KG57-F1ER2HjaA-90" value="" style="edgeStyle=none;endArrow=none;rounded=0;fillColor=#f8cecc;strokeColor=#b85450;" parent="bZcgU8KG57-F1ER2HjaA-1" edge="1">
          <mxGeometry width="100" height="100" relative="1" as="geometry">
            <mxPoint x="343.54166666666674" y="290" as="sourcePoint" />
            <mxPoint x="363.54166666666674" y="270" as="targetPoint" />
          </mxGeometry>
        </mxCell>
        <mxCell id="bZcgU8KG57-F1ER2HjaA-91" value="" style="edgeStyle=none;endArrow=none;rounded=0;fillColor=#f8cecc;strokeColor=#b85450;" parent="bZcgU8KG57-F1ER2HjaA-1" edge="1">
          <mxGeometry width="100" height="100" relative="1" as="geometry">
            <mxPoint x="393.54166666666674" y="250" as="sourcePoint" />
            <mxPoint x="413.54166666666674" y="230" as="targetPoint" />
          </mxGeometry>
        </mxCell>
        <mxCell id="bZcgU8KG57-F1ER2HjaA-92" value="" style="edgeStyle=none;endArrow=none;rounded=0;fillColor=#f8cecc;strokeColor=#b85450;" parent="bZcgU8KG57-F1ER2HjaA-1" edge="1">
          <mxGeometry width="100" height="100" relative="1" as="geometry">
            <mxPoint x="363.54166666666674" y="250" as="sourcePoint" />
            <mxPoint x="383.54166666666674" y="230" as="targetPoint" />
          </mxGeometry>
        </mxCell>
        <mxCell id="bZcgU8KG57-F1ER2HjaA-93" value="" style="edgeStyle=none;endArrow=none;rounded=0;" parent="bZcgU8KG57-F1ER2HjaA-1" edge="1">
          <mxGeometry width="100" height="100" relative="1" as="geometry">
            <mxPoint x="323.54166666666686" y="270" as="sourcePoint" />
            <mxPoint x="343.54166666666674" y="250" as="targetPoint" />
          </mxGeometry>
        </mxCell>
        <mxCell id="bZcgU8KG57-F1ER2HjaA-94" value="" style="edgeStyle=none;endArrow=none;rounded=0;fillColor=#f8cecc;strokeColor=#b85450;" parent="bZcgU8KG57-F1ER2HjaA-1" edge="1">
          <mxGeometry width="100" height="100" relative="1" as="geometry">
            <mxPoint x="323.54166666666686" y="270" as="sourcePoint" />
            <mxPoint x="343.54166666666674" y="250" as="targetPoint" />
          </mxGeometry>
        </mxCell>
        <mxCell id="bZcgU8KG57-F1ER2HjaA-95" value="" style="edgeStyle=none;endArrow=none;rounded=0;fillColor=#f8cecc;strokeColor=#b85450;" parent="bZcgU8KG57-F1ER2HjaA-1" edge="1">
          <mxGeometry width="100" height="100" relative="1" as="geometry">
            <mxPoint x="293.54166666666674" y="270" as="sourcePoint" />
            <mxPoint x="313.54166666666674" y="250" as="targetPoint" />
          </mxGeometry>
        </mxCell>
        <mxCell id="bZcgU8KG57-F1ER2HjaA-98" value="Pellets" style="text;spacingTop=-5;fontSize=8;align=center;verticalAlign=middle;points=[]" parent="bZcgU8KG57-F1ER2HjaA-1" vertex="1">
          <mxGeometry x="243.54166666666683" y="90.00000000000003" width="30" height="19.999999999999886" as="geometry" />
        </mxCell>
        <mxCell id="bZcgU8KG57-F1ER2HjaA-99" value="Additives" style="text;spacingTop=-5;fontSize=8;align=center;verticalAlign=middle;points=[]" parent="bZcgU8KG57-F1ER2HjaA-1" vertex="1">
          <mxGeometry x="259.54166666666674" y="128.99999999999991" width="30" height="19.999999999999886" as="geometry" />
        </mxCell>
        <mxCell id="bZcgU8KG57-F1ER2HjaA-101" value="POC project" style="text;spacingTop=-5;fontSize=8;align=center;verticalAlign=middle;points=[]" parent="bZcgU8KG57-F1ER2HjaA-1" vertex="1">
          <mxGeometry x="297.54166666666674" y="209.00000000000023" width="30" height="19.999999999999886" as="geometry" />
        </mxCell>
        <mxCell id="bZcgU8KG57-F1ER2HjaA-102" value="Process documented" style="text;spacingTop=-5;fontSize=8;align=center;verticalAlign=middle;points=[]" parent="bZcgU8KG57-F1ER2HjaA-1" vertex="1">
          <mxGeometry x="281.5416666666667" y="232.85999999999984" width="30" height="19.999999999999886" as="geometry" />
        </mxCell>
        <mxCell id="bZcgU8KG57-F1ER2HjaA-104" value="Supplier" style="text;spacingTop=-5;fontSize=6;align=center;verticalAlign=middle;points=[]" parent="bZcgU8KG57-F1ER2HjaA-1" vertex="1">
          <mxGeometry x="258.54166666666686" y="118.99999999999991" width="30" height="19.999999999999886" as="geometry" />
        </mxCell>
        <mxCell id="bZcgU8KG57-F1ER2HjaA-105" value="Storage" style="text;spacingTop=-5;fontSize=6;align=center;verticalAlign=middle;points=[]" parent="bZcgU8KG57-F1ER2HjaA-1" vertex="1">
          <mxGeometry x="293.5416666666667" y="118.99999999999994" width="30" height="19.999999999999886" as="geometry" />
        </mxCell>
        <mxCell id="bZcgU8KG57-F1ER2HjaA-106" value="Softener" style="text;spacingTop=-5;fontSize=6;align=center;verticalAlign=middle;points=[]" parent="bZcgU8KG57-F1ER2HjaA-1" vertex="1">
          <mxGeometry x="271.5972222222223" y="154.52777777777766" width="30" height="19.999999999999886" as="geometry" />
        </mxCell>
        <mxCell id="bZcgU8KG57-F1ER2HjaA-107" value="Blend" style="text;spacingTop=-5;fontSize=6;align=center;verticalAlign=middle;points=[]" parent="bZcgU8KG57-F1ER2HjaA-1" vertex="1">
          <mxGeometry x="306.5972222222222" y="154.52777777777777" width="30" height="19.999999999999886" as="geometry" />
        </mxCell>
        <mxCell id="bZcgU8KG57-F1ER2HjaA-110" value="Visual" style="text;spacingTop=-5;fontSize=6;align=center;verticalAlign=middle;points=[]" parent="bZcgU8KG57-F1ER2HjaA-1" vertex="1">
          <mxGeometry x="269.5972222222223" y="266.9722222222222" width="30" height="19.999999999999886" as="geometry" />
        </mxCell>
        <mxCell id="bZcgU8KG57-F1ER2HjaA-111" value="Sign-off" style="text;spacingTop=-5;fontSize=6;align=center;verticalAlign=middle;points=[]" parent="bZcgU8KG57-F1ER2HjaA-1" vertex="1">
          <mxGeometry x="301.5972222222222" y="267.9722222222223" width="30" height="19.999999999999886" as="geometry" />
        </mxCell>
        <mxCell id="bZcgU8KG57-F1ER2HjaA-114" value="Central" style="text;spacingTop=-5;fontSize=6;align=center;verticalAlign=middle;points=[]" parent="bZcgU8KG57-F1ER2HjaA-1" vertex="1">
          <mxGeometry x="373.93055555555566" y="139.8888888888888" width="30" height="19.999999999999886" as="geometry" />
        </mxCell>
        <mxCell id="bZcgU8KG57-F1ER2HjaA-115" value="Station" style="text;spacingTop=-5;fontSize=6;align=center;verticalAlign=middle;points=[]" parent="bZcgU8KG57-F1ER2HjaA-1" vertex="1">
          <mxGeometry x="408.9305555555555" y="139.8888888888889" width="30" height="19.999999999999886" as="geometry" />
        </mxCell>
        <mxCell id="bZcgU8KG57-F1ER2HjaA-116" value="Testing" style="text;spacingTop=-5;fontSize=6;align=center;verticalAlign=middle;points=[]" parent="bZcgU8KG57-F1ER2HjaA-1" vertex="1">
          <mxGeometry x="374.37500000000006" y="218.33333333333331" width="30" height="19.999999999999886" as="geometry" />
        </mxCell>
        <mxCell id="bZcgU8KG57-F1ER2HjaA-117" value="Maintained" style="text;spacingTop=-5;fontSize=6;align=center;verticalAlign=middle;points=[]" parent="bZcgU8KG57-F1ER2HjaA-1" vertex="1">
          <mxGeometry x="409.3749999999999" y="218.33333333333343" width="30" height="19.999999999999886" as="geometry" />
        </mxCell>
        <mxCell id="bZcgU8KG57-F1ER2HjaA-118" value="Inspection" style="text;spacingTop=-5;fontSize=6;align=center;verticalAlign=middle;points=[]" parent="bZcgU8KG57-F1ER2HjaA-1" vertex="1">
          <mxGeometry x="353.12500000000006" y="255.41666666666663" width="30" height="19.999999999999886" as="geometry" />
        </mxCell>
        <mxCell id="bZcgU8KG57-F1ER2HjaA-119" value="Cooling" style="text;spacingTop=-5;fontSize=6;align=center;verticalAlign=middle;points=[]" parent="bZcgU8KG57-F1ER2HjaA-1" vertex="1">
          <mxGeometry x="388.1249999999999" y="255.41666666666674" width="30" height="19.999999999999886" as="geometry" />
        </mxCell>
        <mxCell id="bZcgU8KG57-F1ER2HjaA-120" value="Raw material record" style="text;spacingTop=-5;fontSize=8;align=center;verticalAlign=middle;points=[]" parent="bZcgU8KG57-F1ER2HjaA-1" vertex="1">
          <mxGeometry x="393.12500000000006" y="84.97222222222226" width="30" height="19.999999999999886" as="geometry" />
        </mxCell>
        <mxCell id="bZcgU8KG57-F1ER2HjaA-121" value="Test results" style="text;spacingTop=-5;fontSize=8;align=center;verticalAlign=middle;points=[]" parent="bZcgU8KG57-F1ER2HjaA-1" vertex="1">
          <mxGeometry x="419.12500000000006" y="126.97222222222214" width="30" height="19.999999999999886" as="geometry" />
        </mxCell>
        <mxCell id="bZcgU8KG57-F1ER2HjaA-122" value="Monitoring data" style="text;spacingTop=-5;fontSize=8;align=center;verticalAlign=middle;points=[]" parent="bZcgU8KG57-F1ER2HjaA-1" vertex="1">
          <mxGeometry x="433.12500000000006" y="170.97222222222234" width="30" height="19.999999999999886" as="geometry" />
        </mxCell>
        <mxCell id="bZcgU8KG57-F1ER2HjaA-123" value="Scheduling" style="text;spacingTop=-5;fontSize=8;align=center;verticalAlign=middle;points=[]" parent="bZcgU8KG57-F1ER2HjaA-1" vertex="1">
          <mxGeometry x="441.12500000000006" y="200.97222222222246" width="30" height="19.999999999999886" as="geometry" />
        </mxCell>
        <mxCell id="bZcgU8KG57-F1ER2HjaA-124" value="Alarms" style="text;spacingTop=-5;fontSize=8;align=center;verticalAlign=middle;points=[]" parent="bZcgU8KG57-F1ER2HjaA-1" vertex="1">
          <mxGeometry x="413.125" y="244.97222222222206" width="30" height="19.999999999999886" as="geometry" />
        </mxCell>
        <mxCell id="bZcgU8KG57-F1ER2HjaA-125" value="Tool change" style="text;spacingTop=-5;fontSize=8;align=center;verticalAlign=middle;points=[]" parent="bZcgU8KG57-F1ER2HjaA-1" vertex="1">
          <mxGeometry x="393.1250000000001" y="290.97222222222246" width="30" height="19.999999999999886" as="geometry" />
        </mxCell>
        <mxCell id="bZcgU8KG57-F1ER2HjaA-126" value="Manpower" style="whiteSpace=wrap;strokeWidth=2;fillColor=#dae8fc;strokeColor=#6c8ebf;" parent="bZcgU8KG57-F1ER2HjaA-1" vertex="1">
          <mxGeometry x="479.37499999999983" y="21.527777777777573" width="120" height="60" as="geometry" />
        </mxCell>
        <mxCell id="bZcgU8KG57-F1ER2HjaA-127" value="Machines and technologies" style="whiteSpace=wrap;strokeWidth=2;fillColor=#e1d5e7;strokeColor=#9673a6;" parent="bZcgU8KG57-F1ER2HjaA-1" vertex="1">
          <mxGeometry x="479.37499999999983" y="311.5277777777776" width="120" height="60" as="geometry" />
        </mxCell>
        <mxCell id="bZcgU8KG57-F1ER2HjaA-128" value="" style="edgeStyle=none;exitX=0.5;exitY=1;strokeWidth=3;rounded=0;fillColor=#dae8fc;strokeColor=#6c8ebf;" parent="bZcgU8KG57-F1ER2HjaA-1" source="bZcgU8KG57-F1ER2HjaA-126" target="bZcgU8KG57-F1ER2HjaA-256" edge="1">
          <mxGeometry width="100" height="100" relative="1" as="geometry">
            <mxPoint x="539.3749999999999" y="101.52777777777757" as="sourcePoint" />
            <mxPoint x="599.3749999999999" y="191.5277777777776" as="targetPoint" />
          </mxGeometry>
        </mxCell>
        <mxCell id="bZcgU8KG57-F1ER2HjaA-129" value="" style="edgeStyle=none;exitX=0.5;exitY=0;strokeWidth=3;rounded=0;fillColor=#e1d5e7;strokeColor=#9673a6;" parent="bZcgU8KG57-F1ER2HjaA-1" target="bZcgU8KG57-F1ER2HjaA-256" edge="1">
          <mxGeometry width="100" height="100" relative="1" as="geometry">
            <mxPoint x="539.375" y="311.5277777777776" as="sourcePoint" />
            <mxPoint x="599.3749999999999" y="191.5277777777776" as="targetPoint" />
          </mxGeometry>
        </mxCell>
        <mxCell id="bZcgU8KG57-F1ER2HjaA-130" value="" style="edgeStyle=none;endArrow=none;strokeWidth=2;rounded=0;fillColor=#dae8fc;strokeColor=#6c8ebf;" parent="bZcgU8KG57-F1ER2HjaA-1" edge="1">
          <mxGeometry width="100" height="100" relative="1" as="geometry">
            <mxPoint x="489.37499999999994" y="101.52777777777757" as="sourcePoint" />
            <mxPoint x="549.3749999999999" y="101.52777777777757" as="targetPoint" />
          </mxGeometry>
        </mxCell>
        <mxCell id="bZcgU8KG57-F1ER2HjaA-131" value="" style="edgeStyle=none;endArrow=none;strokeWidth=2;rounded=0;fillColor=#dae8fc;strokeColor=#6c8ebf;" parent="bZcgU8KG57-F1ER2HjaA-1" edge="1">
          <mxGeometry width="100" height="100" relative="1" as="geometry">
            <mxPoint x="509.3749999999998" y="137.52777777777757" as="sourcePoint" />
            <mxPoint x="569.3749999999998" y="137.52777777777757" as="targetPoint" />
          </mxGeometry>
        </mxCell>
        <mxCell id="bZcgU8KG57-F1ER2HjaA-134" value="" style="edgeStyle=none;endArrow=none;strokeWidth=2;rounded=0;fillColor=#dae8fc;strokeColor=#6c8ebf;" parent="bZcgU8KG57-F1ER2HjaA-1" edge="1">
          <mxGeometry width="100" height="100" relative="1" as="geometry">
            <mxPoint x="569.3749999999998" y="137.52777777777757" as="sourcePoint" />
            <mxPoint x="629.3749999999999" y="137.52777777777757" as="targetPoint" />
          </mxGeometry>
        </mxCell>
        <mxCell id="bZcgU8KG57-F1ER2HjaA-136" value="" style="edgeStyle=none;endArrow=none;strokeWidth=2;rounded=0;fillColor=#e1d5e7;strokeColor=#9673a6;" parent="bZcgU8KG57-F1ER2HjaA-1" edge="1">
          <mxGeometry width="100" height="100" relative="1" as="geometry">
            <mxPoint x="529.3749999999999" y="211.5277777777776" as="sourcePoint" />
            <mxPoint x="589.375" y="211.5277777777776" as="targetPoint" />
          </mxGeometry>
        </mxCell>
        <mxCell id="bZcgU8KG57-F1ER2HjaA-137" value="" style="edgeStyle=none;endArrow=none;strokeWidth=2;rounded=0;fillColor=#e1d5e7;strokeColor=#9673a6;" parent="bZcgU8KG57-F1ER2HjaA-1" edge="1">
          <mxGeometry width="100" height="100" relative="1" as="geometry">
            <mxPoint x="509.3749999999998" y="251.5277777777776" as="sourcePoint" />
            <mxPoint x="569.3749999999998" y="251.5277777777776" as="targetPoint" />
          </mxGeometry>
        </mxCell>
        <mxCell id="bZcgU8KG57-F1ER2HjaA-138" value="" style="edgeStyle=none;endArrow=none;strokeWidth=2;rounded=0;fillColor=#e1d5e7;strokeColor=#9673a6;" parent="bZcgU8KG57-F1ER2HjaA-1" edge="1">
          <mxGeometry width="100" height="100" relative="1" as="geometry">
            <mxPoint x="489.37499999999994" y="291.5277777777776" as="sourcePoint" />
            <mxPoint x="549.3749999999999" y="291.5277777777776" as="targetPoint" />
          </mxGeometry>
        </mxCell>
        <mxCell id="bZcgU8KG57-F1ER2HjaA-139" value="" style="edgeStyle=none;endArrow=none;strokeWidth=2;rounded=0;fillColor=#e1d5e7;strokeColor=#9673a6;" parent="bZcgU8KG57-F1ER2HjaA-1" edge="1">
          <mxGeometry width="100" height="100" relative="1" as="geometry">
            <mxPoint x="589.375" y="211.5277777777776" as="sourcePoint" />
            <mxPoint x="649.3749999999999" y="211.5277777777776" as="targetPoint" />
          </mxGeometry>
        </mxCell>
        <mxCell id="bZcgU8KG57-F1ER2HjaA-140" value="" style="edgeStyle=none;endArrow=none;strokeWidth=2;rounded=0;fillColor=#e1d5e7;strokeColor=#9673a6;" parent="bZcgU8KG57-F1ER2HjaA-1" edge="1">
          <mxGeometry width="100" height="100" relative="1" as="geometry">
            <mxPoint x="569.3749999999998" y="251.5277777777776" as="sourcePoint" />
            <mxPoint x="629.3749999999999" y="251.5277777777776" as="targetPoint" />
          </mxGeometry>
        </mxCell>
        <mxCell id="bZcgU8KG57-F1ER2HjaA-141" value="" style="edgeStyle=none;endArrow=none;strokeWidth=2;rounded=0;fillColor=#e1d5e7;strokeColor=#9673a6;" parent="bZcgU8KG57-F1ER2HjaA-1" edge="1">
          <mxGeometry width="100" height="100" relative="1" as="geometry">
            <mxPoint x="549.3749999999999" y="291.5277777777776" as="sourcePoint" />
            <mxPoint x="680" y="292" as="targetPoint" />
          </mxGeometry>
        </mxCell>
        <mxCell id="bZcgU8KG57-F1ER2HjaA-142" value="" style="edgeStyle=none;endArrow=none;rounded=0;fillColor=#dae8fc;strokeColor=#6c8ebf;" parent="bZcgU8KG57-F1ER2HjaA-1" edge="1">
          <mxGeometry width="100" height="100" relative="1" as="geometry">
            <mxPoint x="519.3749999999998" y="121.52777777777746" as="sourcePoint" />
            <mxPoint x="539.375" y="101.52777777777757" as="targetPoint" />
          </mxGeometry>
        </mxCell>
        <mxCell id="bZcgU8KG57-F1ER2HjaA-143" value="" style="edgeStyle=none;endArrow=none;rounded=0;fillColor=#dae8fc;strokeColor=#6c8ebf;" parent="bZcgU8KG57-F1ER2HjaA-1" edge="1">
          <mxGeometry width="100" height="100" relative="1" as="geometry">
            <mxPoint x="489.37499999999994" y="121.52777777777746" as="sourcePoint" />
            <mxPoint x="509.3749999999998" y="101.52777777777757" as="targetPoint" />
          </mxGeometry>
        </mxCell>
        <mxCell id="bZcgU8KG57-F1ER2HjaA-146" value="" style="edgeStyle=none;endArrow=none;rounded=0;fillColor=#dae8fc;strokeColor=#6c8ebf;" parent="bZcgU8KG57-F1ER2HjaA-1" edge="1">
          <mxGeometry width="100" height="100" relative="1" as="geometry">
            <mxPoint x="578.8927469135803" y="137.89737654320967" as="sourcePoint" />
            <mxPoint x="598.8927469135801" y="117.89737654320956" as="targetPoint" />
          </mxGeometry>
        </mxCell>
        <mxCell id="bZcgU8KG57-F1ER2HjaA-147" value="" style="edgeStyle=none;endArrow=none;rounded=0;fillColor=#dae8fc;strokeColor=#6c8ebf;" parent="bZcgU8KG57-F1ER2HjaA-1" edge="1">
          <mxGeometry width="100" height="100" relative="1" as="geometry">
            <mxPoint x="608.89274691358" y="137.89737654320967" as="sourcePoint" />
            <mxPoint x="628.8927469135803" y="117.89737654320956" as="targetPoint" />
          </mxGeometry>
        </mxCell>
        <mxCell id="bZcgU8KG57-F1ER2HjaA-148" value="" style="edgeStyle=none;endArrow=none;rounded=0;fillColor=#dae8fc;strokeColor=#6c8ebf;" parent="bZcgU8KG57-F1ER2HjaA-1" edge="1">
          <mxGeometry width="100" height="100" relative="1" as="geometry">
            <mxPoint x="538.8927469135801" y="157.89737654320942" as="sourcePoint" />
            <mxPoint x="558.89274691358" y="137.89737654320967" as="targetPoint" />
          </mxGeometry>
        </mxCell>
        <mxCell id="bZcgU8KG57-F1ER2HjaA-149" value="" style="edgeStyle=none;endArrow=none;rounded=0;fillColor=#dae8fc;strokeColor=#6c8ebf;" parent="bZcgU8KG57-F1ER2HjaA-1" edge="1">
          <mxGeometry width="100" height="100" relative="1" as="geometry">
            <mxPoint x="508.8927469135799" y="157.89737654320942" as="sourcePoint" />
            <mxPoint x="528.8927469135803" y="137.89737654320967" as="targetPoint" />
          </mxGeometry>
        </mxCell>
        <mxCell id="bZcgU8KG57-F1ER2HjaA-150" value="" style="edgeStyle=none;endArrow=none;rounded=0;fillColor=#e1d5e7;strokeColor=#9673a6;" parent="bZcgU8KG57-F1ER2HjaA-1" edge="1">
          <mxGeometry width="100" height="100" relative="1" as="geometry">
            <mxPoint x="589.375" y="291.5277777777776" as="sourcePoint" />
            <mxPoint x="609.3749999999999" y="271.5277777777776" as="targetPoint" />
          </mxGeometry>
        </mxCell>
        <mxCell id="bZcgU8KG57-F1ER2HjaA-151" value="" style="edgeStyle=none;endArrow=none;rounded=0;fillColor=#e1d5e7;strokeColor=#9673a6;" parent="bZcgU8KG57-F1ER2HjaA-1" edge="1">
          <mxGeometry width="100" height="100" relative="1" as="geometry">
            <mxPoint x="559.3749999999999" y="291.5277777777776" as="sourcePoint" />
            <mxPoint x="579.3749999999999" y="271.5277777777776" as="targetPoint" />
          </mxGeometry>
        </mxCell>
        <mxCell id="bZcgU8KG57-F1ER2HjaA-152" value="" style="edgeStyle=none;endArrow=none;rounded=0;fillColor=#e1d5e7;strokeColor=#9673a6;" parent="bZcgU8KG57-F1ER2HjaA-1" edge="1">
          <mxGeometry width="100" height="100" relative="1" as="geometry">
            <mxPoint x="609.3749999999999" y="251.5277777777776" as="sourcePoint" />
            <mxPoint x="629.3749999999999" y="231.5277777777776" as="targetPoint" />
          </mxGeometry>
        </mxCell>
        <mxCell id="bZcgU8KG57-F1ER2HjaA-153" value="" style="edgeStyle=none;endArrow=none;rounded=0;fillColor=#e1d5e7;strokeColor=#9673a6;" parent="bZcgU8KG57-F1ER2HjaA-1" edge="1">
          <mxGeometry width="100" height="100" relative="1" as="geometry">
            <mxPoint x="579.3749999999999" y="251.5277777777776" as="sourcePoint" />
            <mxPoint x="599.3749999999999" y="231.5277777777776" as="targetPoint" />
          </mxGeometry>
        </mxCell>
        <mxCell id="bZcgU8KG57-F1ER2HjaA-154" value="" style="edgeStyle=none;endArrow=none;rounded=0;fillColor=#e1d5e7;strokeColor=#9673a6;" parent="bZcgU8KG57-F1ER2HjaA-1" edge="1">
          <mxGeometry width="100" height="100" relative="1" as="geometry">
            <mxPoint x="539.375" y="271.5277777777776" as="sourcePoint" />
            <mxPoint x="559.3749999999999" y="251.5277777777776" as="targetPoint" />
          </mxGeometry>
        </mxCell>
        <mxCell id="bZcgU8KG57-F1ER2HjaA-155" value="" style="edgeStyle=none;endArrow=none;rounded=0;fillColor=#e1d5e7;strokeColor=#9673a6;" parent="bZcgU8KG57-F1ER2HjaA-1" edge="1">
          <mxGeometry width="100" height="100" relative="1" as="geometry">
            <mxPoint x="539.375" y="271.5277777777776" as="sourcePoint" />
            <mxPoint x="559.3749999999999" y="251.5277777777776" as="targetPoint" />
          </mxGeometry>
        </mxCell>
        <mxCell id="bZcgU8KG57-F1ER2HjaA-156" value="" style="edgeStyle=none;endArrow=none;rounded=0;fillColor=#e1d5e7;strokeColor=#9673a6;" parent="bZcgU8KG57-F1ER2HjaA-1" edge="1">
          <mxGeometry width="100" height="100" relative="1" as="geometry">
            <mxPoint x="509.3749999999998" y="271.5277777777776" as="sourcePoint" />
            <mxPoint x="529.3749999999999" y="251.5277777777776" as="targetPoint" />
          </mxGeometry>
        </mxCell>
        <mxCell id="bZcgU8KG57-F1ER2HjaA-157" value="" style="edgeStyle=none;endArrow=none;rounded=0;fillColor=#e1d5e7;strokeColor=#9673a6;" parent="bZcgU8KG57-F1ER2HjaA-1" edge="1">
          <mxGeometry width="100" height="100" relative="1" as="geometry">
            <mxPoint x="559.3749999999999" y="231.5277777777776" as="sourcePoint" />
            <mxPoint x="579.3749999999999" y="211.5277777777776" as="targetPoint" />
          </mxGeometry>
        </mxCell>
        <mxCell id="bZcgU8KG57-F1ER2HjaA-158" value="" style="edgeStyle=none;endArrow=none;rounded=0;fillColor=#e1d5e7;strokeColor=#9673a6;" parent="bZcgU8KG57-F1ER2HjaA-1" edge="1">
          <mxGeometry width="100" height="100" relative="1" as="geometry">
            <mxPoint x="529.3749999999999" y="231.5277777777776" as="sourcePoint" />
            <mxPoint x="549.3749999999999" y="211.5277777777776" as="targetPoint" />
          </mxGeometry>
        </mxCell>
        <mxCell id="bZcgU8KG57-F1ER2HjaA-159" value="Shifts" style="text;spacingTop=-5;fontSize=8;align=center;verticalAlign=middle;points=[];fillColor=none;strokeColor=none;" parent="bZcgU8KG57-F1ER2HjaA-1" vertex="1">
          <mxGeometry x="459.37499999999983" y="91.52777777777763" width="30" height="19.999999999999886" as="geometry" />
        </mxCell>
        <mxCell id="bZcgU8KG57-F1ER2HjaA-160" value="Operators" style="text;spacingTop=-5;fontSize=8;align=center;verticalAlign=middle;points=[];fillColor=none;strokeColor=none;" parent="bZcgU8KG57-F1ER2HjaA-1" vertex="1">
          <mxGeometry x="474.37499999999983" y="131.52777777777752" width="30" height="19.999999999999886" as="geometry" />
        </mxCell>
        <mxCell id="bZcgU8KG57-F1ER2HjaA-162" value="Data capture" style="text;spacingTop=-5;fontSize=8;align=center;verticalAlign=middle;points=[];fillColor=none;strokeColor=none;" parent="bZcgU8KG57-F1ER2HjaA-1" vertex="1">
          <mxGeometry x="490.3749999999998" y="201.52777777777783" width="30" height="19.999999999999886" as="geometry" />
        </mxCell>
        <mxCell id="bZcgU8KG57-F1ER2HjaA-163" value="Data storage" style="text;spacingTop=-5;fontSize=8;align=center;verticalAlign=middle;points=[];fillColor=none;strokeColor=none;" parent="bZcgU8KG57-F1ER2HjaA-1" vertex="1">
          <mxGeometry x="468.3749999999998" y="243.52777777777743" width="30" height="19.999999999999886" as="geometry" />
        </mxCell>
        <mxCell id="bZcgU8KG57-F1ER2HjaA-164" value="Simulations" style="text;spacingTop=-5;fontSize=8;align=center;verticalAlign=middle;points=[];fillColor=none;strokeColor=none;" parent="bZcgU8KG57-F1ER2HjaA-1" vertex="1">
          <mxGeometry x="451.37499999999994" y="284.5277777777778" width="30" height="19.999999999999886" as="geometry" />
        </mxCell>
        <mxCell id="bZcgU8KG57-F1ER2HjaA-165" value="Length" style="text;spacingTop=-5;fontSize=6;align=center;verticalAlign=middle;points=[];fillColor=none;strokeColor=none;" parent="bZcgU8KG57-F1ER2HjaA-1" vertex="1">
          <mxGeometry x="474.37499999999994" y="119.52777777777752" width="30" height="19.999999999999886" as="geometry" />
        </mxCell>
        <mxCell id="bZcgU8KG57-F1ER2HjaA-166" value="Changeover" style="text;spacingTop=-5;fontSize=6;align=center;verticalAlign=middle;points=[];fillColor=none;strokeColor=none;" parent="bZcgU8KG57-F1ER2HjaA-1" vertex="1">
          <mxGeometry x="509.3749999999998" y="119.52777777777754" width="30" height="19.999999999999886" as="geometry" />
        </mxCell>
        <mxCell id="bZcgU8KG57-F1ER2HjaA-167" value="Training" style="text;spacingTop=-5;fontSize=6;align=center;verticalAlign=middle;points=[];fillColor=none;strokeColor=none;" parent="bZcgU8KG57-F1ER2HjaA-1" vertex="1">
          <mxGeometry x="487.4305555555554" y="156.05555555555526" width="30" height="19.999999999999886" as="geometry" />
        </mxCell>
        <mxCell id="bZcgU8KG57-F1ER2HjaA-168" value="Presence" style="text;spacingTop=-5;fontSize=6;align=center;verticalAlign=middle;points=[];fillColor=none;strokeColor=none;" parent="bZcgU8KG57-F1ER2HjaA-1" vertex="1">
          <mxGeometry x="522.4305555555553" y="156.05555555555537" width="30" height="19.999999999999886" as="geometry" />
        </mxCell>
        <mxCell id="bZcgU8KG57-F1ER2HjaA-169" value="Sensors" style="text;spacingTop=-5;fontSize=6;align=center;verticalAlign=middle;points=[];fillColor=none;strokeColor=none;" parent="bZcgU8KG57-F1ER2HjaA-1" vertex="1">
          <mxGeometry x="504.3749999999998" y="229.94444444444417" width="30" height="19.999999999999886" as="geometry" />
        </mxCell>
        <mxCell id="bZcgU8KG57-F1ER2HjaA-170" value="RT Monitoring" style="text;spacingTop=-5;fontSize=6;align=center;verticalAlign=middle;points=[];fillColor=none;strokeColor=none;" parent="bZcgU8KG57-F1ER2HjaA-1" vertex="1">
          <mxGeometry x="539.3749999999998" y="229.9444444444443" width="30" height="19.999999999999886" as="geometry" />
        </mxCell>
        <mxCell id="bZcgU8KG57-F1ER2HjaA-171" value="Network" style="text;spacingTop=-5;fontSize=6;align=center;verticalAlign=middle;points=[];fillColor=none;strokeColor=none;" parent="bZcgU8KG57-F1ER2HjaA-1" vertex="1">
          <mxGeometry x="482.4305555555554" y="270.4999999999998" width="30" height="19.999999999999886" as="geometry" />
        </mxCell>
        <mxCell id="bZcgU8KG57-F1ER2HjaA-172" value="Databases" style="text;spacingTop=-5;fontSize=6;align=center;verticalAlign=middle;points=[];fillColor=none;strokeColor=none;" parent="bZcgU8KG57-F1ER2HjaA-1" vertex="1">
          <mxGeometry x="517.4305555555553" y="270.4999999999999" width="30" height="19.999999999999886" as="geometry" />
        </mxCell>
        <mxCell id="bZcgU8KG57-F1ER2HjaA-173" value="Maintenance" style="text;spacingTop=-5;fontSize=6;align=center;verticalAlign=middle;points=[];fillColor=none;strokeColor=none;" parent="bZcgU8KG57-F1ER2HjaA-1" vertex="1">
          <mxGeometry x="570.9027777777777" y="105.41666666666637" width="30" height="19.999999999999886" as="geometry" />
        </mxCell>
        <mxCell id="bZcgU8KG57-F1ER2HjaA-174" value="Operators" style="text;spacingTop=-5;fontSize=6;align=center;verticalAlign=middle;points=[];fillColor=none;strokeColor=none;" parent="bZcgU8KG57-F1ER2HjaA-1" vertex="1">
          <mxGeometry x="605.9027777777775" y="105.41666666666649" width="30" height="19.999999999999886" as="geometry" />
        </mxCell>
        <mxCell id="bZcgU8KG57-F1ER2HjaA-177" value="Manual steps" style="text;spacingTop=-5;fontSize=6;align=center;verticalAlign=middle;points=[];fillColor=none;strokeColor=none;" parent="bZcgU8KG57-F1ER2HjaA-1" vertex="1">
          <mxGeometry x="590.2083333333333" y="219.86111111111092" width="30" height="19.999999999999886" as="geometry" />
        </mxCell>
        <mxCell id="bZcgU8KG57-F1ER2HjaA-178" value="Automation" style="text;spacingTop=-5;fontSize=6;align=center;verticalAlign=middle;points=[];fillColor=none;strokeColor=none;" parent="bZcgU8KG57-F1ER2HjaA-1" vertex="1">
          <mxGeometry x="625.2083333333331" y="219.86111111111103" width="30" height="19.999999999999886" as="geometry" />
        </mxCell>
        <mxCell id="bZcgU8KG57-F1ER2HjaA-179" value="Hopper" style="text;spacingTop=-5;fontSize=6;align=center;verticalAlign=middle;points=[];fillColor=none;strokeColor=none;" parent="bZcgU8KG57-F1ER2HjaA-1" vertex="1">
          <mxGeometry x="568.9583333333333" y="256.94444444444423" width="30" height="19.999999999999886" as="geometry" />
        </mxCell>
        <mxCell id="bZcgU8KG57-F1ER2HjaA-180" value="Feed" style="text;spacingTop=-5;fontSize=6;align=center;verticalAlign=middle;points=[];fillColor=none;strokeColor=none;" parent="bZcgU8KG57-F1ER2HjaA-1" vertex="1">
          <mxGeometry x="603.9583333333331" y="256.94444444444434" width="30" height="19.999999999999886" as="geometry" />
        </mxCell>
        <mxCell id="bZcgU8KG57-F1ER2HjaA-182" value="Staffing " style="text;spacingTop=-5;fontSize=8;align=center;verticalAlign=middle;points=[];fillColor=none;strokeColor=none;" parent="bZcgU8KG57-F1ER2HjaA-1" vertex="1">
          <mxGeometry x="632.9583333333333" y="129.49999999999974" width="30" height="19.999999999999886" as="geometry" />
        </mxCell>
        <mxCell id="bZcgU8KG57-F1ER2HjaA-184" value="Displays" style="text;spacingTop=-5;fontSize=8;align=center;verticalAlign=middle;points=[];fillColor=none;strokeColor=none;" parent="bZcgU8KG57-F1ER2HjaA-1" vertex="1">
          <mxGeometry x="650.9583333333333" y="202.50000000000006" width="30" height="19.999999999999886" as="geometry" />
        </mxCell>
        <mxCell id="bZcgU8KG57-F1ER2HjaA-185" value="Production line" style="text;spacingTop=-5;fontSize=8;align=center;verticalAlign=middle;points=[];fillColor=none;strokeColor=none;" parent="bZcgU8KG57-F1ER2HjaA-1" vertex="1">
          <mxGeometry x="646.9583333333331" y="241.85999999999967" width="30" height="19.999999999999886" as="geometry" />
        </mxCell>
        <mxCell id="bZcgU8KG57-F1ER2HjaA-186" value="Machine" style="text;spacingTop=-5;fontSize=8;align=center;verticalAlign=middle;points=[];fillColor=none;strokeColor=none;" parent="bZcgU8KG57-F1ER2HjaA-1" vertex="1">
          <mxGeometry x="689.9983333333332" y="284.53000000000003" width="30" height="19.999999999999886" as="geometry" />
        </mxCell>
        <mxCell id="bZcgU8KG57-F1ER2HjaA-187" value="Management and funding" style="whiteSpace=wrap;strokeWidth=2;fillColor=#f5f5f5;strokeColor=#808080;fontColor=#333333;" parent="bZcgU8KG57-F1ER2HjaA-1" vertex="1">
          <mxGeometry x="-190" y="21.530000000000058" width="120" height="60" as="geometry" />
        </mxCell>
        <mxCell id="bZcgU8KG57-F1ER2HjaA-188" value="Maintenance and safety" style="whiteSpace=wrap;strokeWidth=2" parent="bZcgU8KG57-F1ER2HjaA-1" vertex="1">
          <mxGeometry x="-190" y="311.53000000000003" width="120" height="60" as="geometry" />
        </mxCell>
        <mxCell id="bZcgU8KG57-F1ER2HjaA-189" value="" style="edgeStyle=none;exitX=0.5;exitY=1;strokeWidth=3;rounded=0;fillColor=#bac8d3;strokeColor=#808080;" parent="bZcgU8KG57-F1ER2HjaA-1" source="bZcgU8KG57-F1ER2HjaA-187" target="bZcgU8KG57-F1ER2HjaA-271" edge="1">
          <mxGeometry width="100" height="100" relative="1" as="geometry">
            <mxPoint x="-130" y="101.53000000000006" as="sourcePoint" />
            <mxPoint x="-70" y="191.53" as="targetPoint" />
          </mxGeometry>
        </mxCell>
        <mxCell id="bZcgU8KG57-F1ER2HjaA-190" value="" style="edgeStyle=none;exitX=0.5;exitY=0;strokeWidth=3;rounded=0;" parent="bZcgU8KG57-F1ER2HjaA-1" target="bZcgU8KG57-F1ER2HjaA-271" edge="1">
          <mxGeometry width="100" height="100" relative="1" as="geometry">
            <mxPoint x="-130" y="311.53" as="sourcePoint" />
            <mxPoint x="-70" y="191.53" as="targetPoint" />
          </mxGeometry>
        </mxCell>
        <mxCell id="bZcgU8KG57-F1ER2HjaA-191" value="" style="edgeStyle=none;endArrow=none;strokeWidth=2;rounded=0;fillColor=#f5f5f5;strokeColor=#808080;" parent="bZcgU8KG57-F1ER2HjaA-1" edge="1">
          <mxGeometry width="100" height="100" relative="1" as="geometry">
            <mxPoint x="-180" y="101.53" as="sourcePoint" />
            <mxPoint x="-120" y="101.53" as="targetPoint" />
          </mxGeometry>
        </mxCell>
        <mxCell id="bZcgU8KG57-F1ER2HjaA-192" value="" style="edgeStyle=none;endArrow=none;strokeWidth=2;rounded=0;fillColor=#f5f5f5;strokeColor=#808080;" parent="bZcgU8KG57-F1ER2HjaA-1" edge="1">
          <mxGeometry width="100" height="100" relative="1" as="geometry">
            <mxPoint x="-160" y="137.53" as="sourcePoint" />
            <mxPoint x="-100" y="137.53" as="targetPoint" />
          </mxGeometry>
        </mxCell>
        <mxCell id="bZcgU8KG57-F1ER2HjaA-193" value="" style="edgeStyle=none;endArrow=none;strokeWidth=2;rounded=0;fillColor=#f5f5f5;strokeColor=#666666;" parent="bZcgU8KG57-F1ER2HjaA-1" edge="1">
          <mxGeometry width="100" height="100" relative="1" as="geometry">
            <mxPoint x="-140" y="171.53" as="sourcePoint" />
            <mxPoint x="-80" y="171.53" as="targetPoint" />
          </mxGeometry>
        </mxCell>
        <mxCell id="bZcgU8KG57-F1ER2HjaA-194" value="" style="edgeStyle=none;endArrow=none;strokeWidth=2;rounded=0;fillColor=#f5f5f5;strokeColor=#808080;" parent="bZcgU8KG57-F1ER2HjaA-1" edge="1">
          <mxGeometry width="100" height="100" relative="1" as="geometry">
            <mxPoint x="-120" y="101.53" as="sourcePoint" />
            <mxPoint x="-60" y="101.53" as="targetPoint" />
          </mxGeometry>
        </mxCell>
        <mxCell id="bZcgU8KG57-F1ER2HjaA-195" value="" style="edgeStyle=none;endArrow=none;strokeWidth=2;rounded=0;fillColor=#f5f5f5;strokeColor=#808080;" parent="bZcgU8KG57-F1ER2HjaA-1" edge="1">
          <mxGeometry width="100" height="100" relative="1" as="geometry">
            <mxPoint x="-100" y="137.53" as="sourcePoint" />
            <mxPoint x="-40" y="137.53" as="targetPoint" />
          </mxGeometry>
        </mxCell>
        <mxCell id="bZcgU8KG57-F1ER2HjaA-196" value="" style="edgeStyle=none;endArrow=none;strokeWidth=2;rounded=0;fillColor=#f5f5f5;strokeColor=#808080;" parent="bZcgU8KG57-F1ER2HjaA-1" edge="1">
          <mxGeometry width="100" height="100" relative="1" as="geometry">
            <mxPoint x="-80" y="171.53" as="sourcePoint" />
            <mxPoint x="-20" y="171.53" as="targetPoint" />
          </mxGeometry>
        </mxCell>
        <mxCell id="bZcgU8KG57-F1ER2HjaA-197" value="" style="edgeStyle=none;endArrow=none;strokeWidth=2;rounded=0;" parent="bZcgU8KG57-F1ER2HjaA-1" edge="1">
          <mxGeometry width="100" height="100" relative="1" as="geometry">
            <mxPoint x="-140" y="211.53" as="sourcePoint" />
            <mxPoint x="-80" y="211.53" as="targetPoint" />
          </mxGeometry>
        </mxCell>
        <mxCell id="bZcgU8KG57-F1ER2HjaA-198" value="" style="edgeStyle=none;endArrow=none;strokeWidth=2;rounded=0;" parent="bZcgU8KG57-F1ER2HjaA-1" edge="1">
          <mxGeometry width="100" height="100" relative="1" as="geometry">
            <mxPoint x="-160" y="251.53" as="sourcePoint" />
            <mxPoint x="-100" y="251.53" as="targetPoint" />
          </mxGeometry>
        </mxCell>
        <mxCell id="bZcgU8KG57-F1ER2HjaA-199" value="" style="edgeStyle=none;endArrow=none;strokeWidth=2;rounded=0;" parent="bZcgU8KG57-F1ER2HjaA-1" edge="1">
          <mxGeometry width="100" height="100" relative="1" as="geometry">
            <mxPoint x="-180" y="291.53" as="sourcePoint" />
            <mxPoint x="-120" y="291.53" as="targetPoint" />
          </mxGeometry>
        </mxCell>
        <mxCell id="bZcgU8KG57-F1ER2HjaA-200" value="" style="edgeStyle=none;endArrow=none;strokeWidth=2;rounded=0;" parent="bZcgU8KG57-F1ER2HjaA-1" edge="1">
          <mxGeometry width="100" height="100" relative="1" as="geometry">
            <mxPoint x="-80" y="211.53" as="sourcePoint" />
            <mxPoint x="-20" y="211.53" as="targetPoint" />
          </mxGeometry>
        </mxCell>
        <mxCell id="bZcgU8KG57-F1ER2HjaA-201" value="" style="edgeStyle=none;endArrow=none;strokeWidth=2;rounded=0;" parent="bZcgU8KG57-F1ER2HjaA-1" edge="1">
          <mxGeometry width="100" height="100" relative="1" as="geometry">
            <mxPoint x="-100" y="251.53" as="sourcePoint" />
            <mxPoint x="-40" y="251.53" as="targetPoint" />
          </mxGeometry>
        </mxCell>
        <mxCell id="bZcgU8KG57-F1ER2HjaA-203" value="" style="edgeStyle=none;endArrow=none;rounded=0;fillColor=#f5f5f5;strokeColor=#666666;" parent="bZcgU8KG57-F1ER2HjaA-1" edge="1">
          <mxGeometry width="100" height="100" relative="1" as="geometry">
            <mxPoint x="-150" y="121.53" as="sourcePoint" />
            <mxPoint x="-130" y="101.53" as="targetPoint" />
          </mxGeometry>
        </mxCell>
        <mxCell id="bZcgU8KG57-F1ER2HjaA-204" value="" style="edgeStyle=none;endArrow=none;rounded=0;fillColor=#f5f5f5;strokeColor=#666666;" parent="bZcgU8KG57-F1ER2HjaA-1" edge="1">
          <mxGeometry width="100" height="100" relative="1" as="geometry">
            <mxPoint x="-180" y="121.53" as="sourcePoint" />
            <mxPoint x="-160" y="101.53" as="targetPoint" />
          </mxGeometry>
        </mxCell>
        <mxCell id="bZcgU8KG57-F1ER2HjaA-205" value="" style="edgeStyle=none;endArrow=none;rounded=0;fillColor=#f5f5f5;strokeColor=#808080;" parent="bZcgU8KG57-F1ER2HjaA-1" edge="1">
          <mxGeometry width="100" height="100" relative="1" as="geometry">
            <mxPoint x="-70" y="171.53" as="sourcePoint" />
            <mxPoint x="-50" y="151.53" as="targetPoint" />
          </mxGeometry>
        </mxCell>
        <mxCell id="bZcgU8KG57-F1ER2HjaA-206" value="" style="edgeStyle=none;endArrow=none;rounded=0;fillColor=#f5f5f5;strokeColor=#808080;" parent="bZcgU8KG57-F1ER2HjaA-1" edge="1">
          <mxGeometry width="100" height="100" relative="1" as="geometry">
            <mxPoint x="-40" y="171.53" as="sourcePoint" />
            <mxPoint x="-20" y="151.53" as="targetPoint" />
          </mxGeometry>
        </mxCell>
        <mxCell id="bZcgU8KG57-F1ER2HjaA-207" value="" style="edgeStyle=none;endArrow=none;rounded=0;fillColor=#f5f5f5;strokeColor=#808080;" parent="bZcgU8KG57-F1ER2HjaA-1" edge="1">
          <mxGeometry width="100" height="100" relative="1" as="geometry">
            <mxPoint x="-90.48225308641986" y="137.8995987654321" as="sourcePoint" />
            <mxPoint x="-70.48225308641986" y="117.8995987654321" as="targetPoint" />
          </mxGeometry>
        </mxCell>
        <mxCell id="bZcgU8KG57-F1ER2HjaA-208" value="" style="edgeStyle=none;endArrow=none;rounded=0;fillColor=#f5f5f5;strokeColor=#808080;" parent="bZcgU8KG57-F1ER2HjaA-1" edge="1">
          <mxGeometry width="100" height="100" relative="1" as="geometry">
            <mxPoint x="-60.48225308641986" y="137.8995987654321" as="sourcePoint" />
            <mxPoint x="-40.48225308641986" y="117.8995987654321" as="targetPoint" />
          </mxGeometry>
        </mxCell>
        <mxCell id="bZcgU8KG57-F1ER2HjaA-209" value="" style="edgeStyle=none;endArrow=none;rounded=0;fillColor=#f5f5f5;strokeColor=#808080;" parent="bZcgU8KG57-F1ER2HjaA-1" edge="1">
          <mxGeometry width="100" height="100" relative="1" as="geometry">
            <mxPoint x="-130.48225308641986" y="157.8995987654321" as="sourcePoint" />
            <mxPoint x="-110.48225308641986" y="137.8995987654321" as="targetPoint" />
          </mxGeometry>
        </mxCell>
        <mxCell id="bZcgU8KG57-F1ER2HjaA-210" value="" style="edgeStyle=none;endArrow=none;rounded=0;fillColor=#f5f5f5;strokeColor=#666666;" parent="bZcgU8KG57-F1ER2HjaA-1" edge="1">
          <mxGeometry width="100" height="100" relative="1" as="geometry">
            <mxPoint x="-160.48225308641986" y="157.8995987654321" as="sourcePoint" />
            <mxPoint x="-140.48225308641986" y="137.8995987654321" as="targetPoint" />
          </mxGeometry>
        </mxCell>
        <mxCell id="bZcgU8KG57-F1ER2HjaA-213" value="" style="edgeStyle=none;endArrow=none;rounded=0;" parent="bZcgU8KG57-F1ER2HjaA-1" edge="1">
          <mxGeometry width="100" height="100" relative="1" as="geometry">
            <mxPoint x="-60" y="251.53" as="sourcePoint" />
            <mxPoint x="-40" y="231.53" as="targetPoint" />
          </mxGeometry>
        </mxCell>
        <mxCell id="bZcgU8KG57-F1ER2HjaA-214" value="" style="edgeStyle=none;endArrow=none;rounded=0;" parent="bZcgU8KG57-F1ER2HjaA-1" edge="1">
          <mxGeometry width="100" height="100" relative="1" as="geometry">
            <mxPoint x="-90" y="251.53" as="sourcePoint" />
            <mxPoint x="-70" y="231.53" as="targetPoint" />
          </mxGeometry>
        </mxCell>
        <mxCell id="bZcgU8KG57-F1ER2HjaA-215" value="" style="edgeStyle=none;endArrow=none;rounded=0;" parent="bZcgU8KG57-F1ER2HjaA-1" edge="1">
          <mxGeometry width="100" height="100" relative="1" as="geometry">
            <mxPoint x="-130" y="271.53" as="sourcePoint" />
            <mxPoint x="-110" y="251.53" as="targetPoint" />
          </mxGeometry>
        </mxCell>
        <mxCell id="bZcgU8KG57-F1ER2HjaA-216" value="" style="edgeStyle=none;endArrow=none;rounded=0;" parent="bZcgU8KG57-F1ER2HjaA-1" edge="1">
          <mxGeometry width="100" height="100" relative="1" as="geometry">
            <mxPoint x="-130" y="271.53" as="sourcePoint" />
            <mxPoint x="-110" y="251.53" as="targetPoint" />
          </mxGeometry>
        </mxCell>
        <mxCell id="bZcgU8KG57-F1ER2HjaA-217" value="" style="edgeStyle=none;endArrow=none;rounded=0;" parent="bZcgU8KG57-F1ER2HjaA-1" edge="1">
          <mxGeometry width="100" height="100" relative="1" as="geometry">
            <mxPoint x="-160" y="271.53" as="sourcePoint" />
            <mxPoint x="-140" y="251.53" as="targetPoint" />
          </mxGeometry>
        </mxCell>
        <mxCell id="bZcgU8KG57-F1ER2HjaA-218" value="" style="edgeStyle=none;endArrow=none;rounded=0;" parent="bZcgU8KG57-F1ER2HjaA-1" edge="1">
          <mxGeometry width="100" height="100" relative="1" as="geometry">
            <mxPoint x="-110" y="231.53" as="sourcePoint" />
            <mxPoint x="-90" y="211.53" as="targetPoint" />
          </mxGeometry>
        </mxCell>
        <mxCell id="bZcgU8KG57-F1ER2HjaA-219" value="" style="edgeStyle=none;endArrow=none;rounded=0;" parent="bZcgU8KG57-F1ER2HjaA-1" edge="1">
          <mxGeometry width="100" height="100" relative="1" as="geometry">
            <mxPoint x="-140" y="231.53" as="sourcePoint" />
            <mxPoint x="-120" y="211.53" as="targetPoint" />
          </mxGeometry>
        </mxCell>
        <mxCell id="bZcgU8KG57-F1ER2HjaA-220" value="Stakeholders" style="text;spacingTop=-5;fontSize=8;align=center;verticalAlign=middle;points=[];fillColor=none;fontColor=#333333;strokeColor=none;" parent="bZcgU8KG57-F1ER2HjaA-1" vertex="1">
          <mxGeometry x="-188" y="87.53000000000011" width="30" height="19.999999999999886" as="geometry" />
        </mxCell>
        <mxCell id="bZcgU8KG57-F1ER2HjaA-221" value="POC team" style="text;spacingTop=-5;fontSize=8;align=center;verticalAlign=middle;points=[];fillColor=none;fontColor=#333333;strokeColor=none;" parent="bZcgU8KG57-F1ER2HjaA-1" vertex="1">
          <mxGeometry x="-191.00000000000003" y="134.53" width="30" height="19.999999999999886" as="geometry" />
        </mxCell>
        <mxCell id="bZcgU8KG57-F1ER2HjaA-222" value="Cross-team collaboration" style="text;spacingTop=-5;fontSize=8;align=center;verticalAlign=middle;points=[]" parent="bZcgU8KG57-F1ER2HjaA-1" vertex="1">
          <mxGeometry x="-167.00000000000003" y="171.53000000000017" width="30" height="19.999999999999886" as="geometry" />
        </mxCell>
        <mxCell id="bZcgU8KG57-F1ER2HjaA-223" value="Machine maintenance" style="text;spacingTop=-5;fontSize=8;align=center;verticalAlign=middle;points=[]" parent="bZcgU8KG57-F1ER2HjaA-1" vertex="1">
          <mxGeometry x="-188.00000000000003" y="197.53000000000029" width="30" height="19.999999999999886" as="geometry" />
        </mxCell>
        <mxCell id="bZcgU8KG57-F1ER2HjaA-224" value="Line maintenance" style="text;spacingTop=-5;fontSize=8;align=center;verticalAlign=middle;points=[]" parent="bZcgU8KG57-F1ER2HjaA-1" vertex="1">
          <mxGeometry x="-198.00000000000006" y="248.5299999999999" width="30" height="19.999999999999886" as="geometry" />
        </mxCell>
        <mxCell id="bZcgU8KG57-F1ER2HjaA-225" value="Maintenance records" style="text;spacingTop=-5;fontSize=8;align=center;verticalAlign=middle;points=[]" parent="bZcgU8KG57-F1ER2HjaA-1" vertex="1">
          <mxGeometry x="-191.99999999999994" y="291.53000000000026" width="30" height="19.999999999999886" as="geometry" />
        </mxCell>
        <mxCell id="bZcgU8KG57-F1ER2HjaA-226" value="Agreement" style="text;spacingTop=-5;fontSize=6;align=center;verticalAlign=middle;points=[];fillColor=none;fontColor=#333333;strokeColor=none;" parent="bZcgU8KG57-F1ER2HjaA-1" vertex="1">
          <mxGeometry x="-194.99999999999994" y="119.53" width="30" height="19.999999999999886" as="geometry" />
        </mxCell>
        <mxCell id="bZcgU8KG57-F1ER2HjaA-227" value="Activity" style="text;spacingTop=-5;fontSize=6;align=center;verticalAlign=middle;points=[];fillColor=none;fontColor=#333333;strokeColor=none;" parent="bZcgU8KG57-F1ER2HjaA-1" vertex="1">
          <mxGeometry x="-160.00000000000006" y="119.53000000000003" width="30" height="19.999999999999886" as="geometry" />
        </mxCell>
        <mxCell id="bZcgU8KG57-F1ER2HjaA-228" value="Documentation" style="text;spacingTop=-5;fontSize=6;align=center;verticalAlign=middle;points=[];fillColor=none;fontColor=#333333;strokeColor=none;" parent="bZcgU8KG57-F1ER2HjaA-1" vertex="1">
          <mxGeometry x="-184.94444444444446" y="155.05777777777777" width="30" height="19.999999999999886" as="geometry" />
        </mxCell>
        <mxCell id="bZcgU8KG57-F1ER2HjaA-229" value="Experience" style="text;spacingTop=-5;fontSize=6;align=center;verticalAlign=middle;points=[];fillColor=none;fontColor=#333333;strokeColor=none;" parent="bZcgU8KG57-F1ER2HjaA-1" vertex="1">
          <mxGeometry x="-144.9444444444446" y="155.0577777777779" width="30" height="19.999999999999886" as="geometry" />
        </mxCell>
        <mxCell id="bZcgU8KG57-F1ER2HjaA-230" value="Prediction" style="text;spacingTop=-5;fontSize=6;align=center;verticalAlign=middle;points=[]" parent="bZcgU8KG57-F1ER2HjaA-1" vertex="1">
          <mxGeometry x="-165" y="228.94666666666663" width="30" height="19.999999999999886" as="geometry" />
        </mxCell>
        <mxCell id="bZcgU8KG57-F1ER2HjaA-231" value="Schedule" style="text;spacingTop=-5;fontSize=6;align=center;verticalAlign=middle;points=[]" parent="bZcgU8KG57-F1ER2HjaA-1" vertex="1">
          <mxGeometry x="-130.00000000000017" y="228.94666666666674" width="30" height="19.999999999999886" as="geometry" />
        </mxCell>
        <mxCell id="bZcgU8KG57-F1ER2HjaA-232" value="Prediction" style="text;spacingTop=-5;fontSize=6;align=center;verticalAlign=middle;points=[]" parent="bZcgU8KG57-F1ER2HjaA-1" vertex="1">
          <mxGeometry x="-186.94444444444446" y="270.5022222222222" width="30" height="19.999999999999886" as="geometry" />
        </mxCell>
        <mxCell id="bZcgU8KG57-F1ER2HjaA-233" value="Schedule" style="text;spacingTop=-5;fontSize=6;align=center;verticalAlign=middle;points=[]" parent="bZcgU8KG57-F1ER2HjaA-1" vertex="1">
          <mxGeometry x="-151.9444444444446" y="270.5022222222223" width="30" height="19.999999999999886" as="geometry" />
        </mxCell>
        <mxCell id="bZcgU8KG57-F1ER2HjaA-234" value="Conditions" style="text;spacingTop=-5;fontSize=6;align=center;verticalAlign=middle;points=[];fillColor=none;fontColor=#333333;strokeColor=none;" parent="bZcgU8KG57-F1ER2HjaA-1" vertex="1">
          <mxGeometry x="-98.47222222222223" y="105.41888888888886" width="30" height="19.999999999999886" as="geometry" />
        </mxCell>
        <mxCell id="bZcgU8KG57-F1ER2HjaA-235" value="Culture" style="text;spacingTop=-5;fontSize=6;align=center;verticalAlign=middle;points=[];fillColor=none;fontColor=#333333;strokeColor=none;" parent="bZcgU8KG57-F1ER2HjaA-1" vertex="1">
          <mxGeometry x="-63.47222222222237" y="105.41888888888897" width="30" height="19.999999999999886" as="geometry" />
        </mxCell>
        <mxCell id="bZcgU8KG57-F1ER2HjaA-236" value="Supervision" style="text;spacingTop=-5;fontSize=6;align=center;verticalAlign=middle;points=[];fillColor=none;fontColor=#333333;strokeColor=none;" parent="bZcgU8KG57-F1ER2HjaA-1" vertex="1">
          <mxGeometry x="-83.61111111111111" y="140.4188888888889" width="30" height="19.999999999999886" as="geometry" />
        </mxCell>
        <mxCell id="bZcgU8KG57-F1ER2HjaA-237" value="Training" style="text;spacingTop=-5;fontSize=6;align=center;verticalAlign=middle;points=[];fillColor=none;fontColor=#333333;strokeColor=none;" parent="bZcgU8KG57-F1ER2HjaA-1" vertex="1">
          <mxGeometry x="-48.611111111111256" y="140.418888888889" width="30" height="19.999999999999886" as="geometry" />
        </mxCell>
        <mxCell id="bZcgU8KG57-F1ER2HjaA-238" value="Network" style="text;spacingTop=-5;fontSize=6;align=center;verticalAlign=middle;points=[]" parent="bZcgU8KG57-F1ER2HjaA-1" vertex="1">
          <mxGeometry x="-84.16666666666669" y="219.86333333333337" width="30" height="19.999999999999886" as="geometry" />
        </mxCell>
        <mxCell id="bZcgU8KG57-F1ER2HjaA-239" value="Monitor hardware" style="text;spacingTop=-5;fontSize=6;align=center;verticalAlign=middle;points=[]" parent="bZcgU8KG57-F1ER2HjaA-1" vertex="1">
          <mxGeometry x="-44.16666666666683" y="219.8633333333335" width="30" height="19.999999999999886" as="geometry" />
        </mxCell>
        <mxCell id="bZcgU8KG57-F1ER2HjaA-242" value="Budget" style="text;spacingTop=-5;fontSize=8;align=center;verticalAlign=middle;points=[];fillColor=none;fontColor=#333333;strokeColor=none;" parent="bZcgU8KG57-F1ER2HjaA-1" vertex="1">
          <mxGeometry x="-64.41666666666669" y="87.50222222222234" width="30" height="19.999999999999886" as="geometry" />
        </mxCell>
        <mxCell id="bZcgU8KG57-F1ER2HjaA-243" value="Workplace" style="text;spacingTop=-5;fontSize=8;align=center;verticalAlign=middle;points=[];fillColor=none;fontColor=#333333;strokeColor=none;" parent="bZcgU8KG57-F1ER2HjaA-1" vertex="1">
          <mxGeometry x="-45.416666666666686" y="122.50222222222223" width="30" height="19.999999999999886" as="geometry" />
        </mxCell>
        <mxCell id="bZcgU8KG57-F1ER2HjaA-244" value="Line management" style="text;spacingTop=-5;fontSize=8;align=center;verticalAlign=middle;points=[]" parent="bZcgU8KG57-F1ER2HjaA-1" vertex="1">
          <mxGeometry x="-20.416666666666686" y="172.5022222222224" width="30" height="19.999999999999886" as="geometry" />
        </mxCell>
        <mxCell id="bZcgU8KG57-F1ER2HjaA-245" value="Safety check" style="text;spacingTop=-5;fontSize=8;align=center;verticalAlign=middle;points=[]" parent="bZcgU8KG57-F1ER2HjaA-1" vertex="1">
          <mxGeometry x="-20.416666666666686" y="197.5022222222225" width="30" height="19.999999999999886" as="geometry" />
        </mxCell>
        <mxCell id="bZcgU8KG57-F1ER2HjaA-246" value="ITS" style="text;spacingTop=-5;fontSize=8;align=center;verticalAlign=middle;points=[]" parent="bZcgU8KG57-F1ER2HjaA-1" vertex="1">
          <mxGeometry x="-45.41666666666674" y="242.50222222222212" width="30" height="19.999999999999886" as="geometry" />
        </mxCell>
        <mxCell id="bZcgU8KG57-F1ER2HjaA-250" value="" style="edgeStyle=none;endArrow=none;rounded=0;fillColor=#e1d5e7;strokeColor=#9673a6;" parent="bZcgU8KG57-F1ER2HjaA-1" edge="1">
          <mxGeometry width="100" height="100" relative="1" as="geometry">
            <mxPoint x="623.765" y="292.4977777777776" as="sourcePoint" />
            <mxPoint x="643.765" y="272.4977777777776" as="targetPoint" />
          </mxGeometry>
        </mxCell>
        <mxCell id="bZcgU8KG57-F1ER2HjaA-251" value="Tool" style="text;spacingTop=-5;fontSize=6;align=center;verticalAlign=middle;points=[];fillColor=none;strokeColor=none;" parent="bZcgU8KG57-F1ER2HjaA-1" vertex="1">
          <mxGeometry x="638.3483333333331" y="256.91444444444437" width="30" height="19.999999999999886" as="geometry" />
        </mxCell>
        <mxCell id="bZcgU8KG57-F1ER2HjaA-252" value="" style="edgeStyle=none;endArrow=none;rounded=0;fillColor=#e1d5e7;strokeColor=#9673a6;" parent="bZcgU8KG57-F1ER2HjaA-1" edge="1">
          <mxGeometry width="100" height="100" relative="1" as="geometry">
            <mxPoint x="659.205" y="292.4977777777776" as="sourcePoint" />
            <mxPoint x="679.205" y="272.4977777777776" as="targetPoint" />
          </mxGeometry>
        </mxCell>
        <mxCell id="bZcgU8KG57-F1ER2HjaA-253" value="Heating" style="text;spacingTop=-5;fontSize=6;align=center;verticalAlign=middle;points=[];fillColor=none;strokeColor=none;" parent="bZcgU8KG57-F1ER2HjaA-1" vertex="1">
          <mxGeometry x="673.7883333333332" y="256.91444444444437" width="30" height="19.999999999999886" as="geometry" />
        </mxCell>
        <mxCell id="bZcgU8KG57-F1ER2HjaA-262" value="" style="edgeStyle=none;exitX=0.5;exitY=0;strokeWidth=3;rounded=0;endArrow=classic;endFill=1;fillColor=#f8cecc;strokeColor=#b85450;" parent="bZcgU8KG57-F1ER2HjaA-1" target="bZcgU8KG57-F1ER2HjaA-263" edge="1">
          <mxGeometry width="100" height="100" relative="1" as="geometry">
            <mxPoint x="323.54166666666697" y="310" as="sourcePoint" />
            <mxPoint x="410" y="340" as="targetPoint" />
          </mxGeometry>
        </mxCell>
        <mxCell id="bZcgU8KG57-F1ER2HjaA-256" value="" style="shape=waypoint;sketch=0;fillStyle=solid;size=6;pointerEvents=1;points=[];fillColor=none;resizable=0;rotatable=0;perimeter=centerPerimeter;snapToPoint=1;labelBackgroundColor=none;strokeColor=#D1C6A7;" parent="bZcgU8KG57-F1ER2HjaA-1" vertex="1">
          <mxGeometry x="580.21" y="170" width="40" height="40" as="geometry" />
        </mxCell>
        <mxCell id="bZcgU8KG57-F1ER2HjaA-263" value="" style="shape=waypoint;sketch=0;fillStyle=solid;size=6;pointerEvents=1;points=[];fillColor=none;resizable=0;rotatable=0;perimeter=centerPerimeter;snapToPoint=1;labelBackgroundColor=none;strokeColor=#D1C6A7;" parent="bZcgU8KG57-F1ER2HjaA-1" vertex="1">
          <mxGeometry x="363.54166666666697" y="170" width="40" height="40" as="geometry" />
        </mxCell>
        <mxCell id="bZcgU8KG57-F1ER2HjaA-268" value="" style="shape=waypoint;sketch=0;fillStyle=solid;size=6;pointerEvents=1;points=[];fillColor=none;resizable=0;rotatable=0;perimeter=centerPerimeter;snapToPoint=1;labelBackgroundColor=none;strokeColor=#D1C6A7;" parent="bZcgU8KG57-F1ER2HjaA-1" vertex="1">
          <mxGeometry x="140.82999999999998" y="170" width="40" height="40" as="geometry" />
        </mxCell>
        <mxCell id="bZcgU8KG57-F1ER2HjaA-271" value="" style="shape=waypoint;sketch=0;fillStyle=solid;size=6;pointerEvents=1;points=[];fillColor=none;resizable=0;rotatable=0;perimeter=centerPerimeter;snapToPoint=1;labelBackgroundColor=none;strokeColor=#D1C6A7;" parent="bZcgU8KG57-F1ER2HjaA-1" vertex="1">
          <mxGeometry x="-95" y="170" width="40" height="40" as="geometry" />
        </mxCell>
      </root>
    </mxGraphModel>
  </diagram>
  <diagram name="Service" id="3QGq2vb2EvHRg9N1QEQl">
    <mxGraphModel dx="1111" dy="666" grid="1" gridSize="10" guides="1" tooltips="1" connect="1" arrows="1" fold="1" page="1" pageScale="1" pageWidth="827" pageHeight="1169" math="0" shadow="0">
      <root>
        <mxCell id="lGEC87VQ3V7H_UK_dGRr-0" />
        <mxCell id="lGEC87VQ3V7H_UK_dGRr-1" parent="lGEC87VQ3V7H_UK_dGRr-0" />
        <mxCell id="lGEC87VQ3V7H_UK_dGRr-2" value="" style="edgeStyle=none;strokeWidth=4;rounded=0;startArrow=none;strokeColor=#D1C6A7;" edge="1" parent="lGEC87VQ3V7H_UK_dGRr-1" source="lGEC87VQ3V7H_UK_dGRr-215" target="lGEC87VQ3V7H_UK_dGRr-10">
          <mxGeometry width="100" height="100" relative="1" as="geometry">
            <mxPoint x="618" y="180" as="sourcePoint" />
            <mxPoint x="231.54166666666677" y="140.00000000000006" as="targetPoint" />
          </mxGeometry>
        </mxCell>
        <mxCell id="lGEC87VQ3V7H_UK_dGRr-3" value="" style="edgeStyle=none;strokeWidth=4;rounded=0;endArrow=none;startArrow=none;strokeColor=#D1C6A7;" edge="1" parent="lGEC87VQ3V7H_UK_dGRr-1" target="lGEC87VQ3V7H_UK_dGRr-215">
          <mxGeometry width="100" height="100" relative="1" as="geometry">
            <mxPoint x="367.93000000000006" y="190" as="sourcePoint" />
            <mxPoint x="588" y="190" as="targetPoint" />
          </mxGeometry>
        </mxCell>
        <mxCell id="lGEC87VQ3V7H_UK_dGRr-4" value="" style="edgeStyle=none;strokeWidth=4;rounded=0;endArrow=none;startArrow=none;strokeColor=#D1C6A7;" edge="1" parent="lGEC87VQ3V7H_UK_dGRr-1" source="lGEC87VQ3V7H_UK_dGRr-217" target="lGEC87VQ3V7H_UK_dGRr-216">
          <mxGeometry width="100" height="100" relative="1" as="geometry">
            <mxPoint x="-232" y="190" as="sourcePoint" />
            <mxPoint x="208" y="350" as="targetPoint" />
          </mxGeometry>
        </mxCell>
        <mxCell id="lGEC87VQ3V7H_UK_dGRr-6" value="" style="edgeStyle=none;strokeWidth=4;rounded=0;endArrow=none;startArrow=none;strokeColor=#D1C6A7;" edge="1" parent="lGEC87VQ3V7H_UK_dGRr-1" target="lGEC87VQ3V7H_UK_dGRr-217">
          <mxGeometry width="100" height="100" relative="1" as="geometry">
            <mxPoint x="28" y="190" as="sourcePoint" />
            <mxPoint x="88" y="190" as="targetPoint" />
          </mxGeometry>
        </mxCell>
        <mxCell id="lGEC87VQ3V7H_UK_dGRr-8" value="Safety" style="whiteSpace=wrap;strokeWidth=2;fillColor=#d5e8d4;strokeColor=#82b366;gradientColor=#97d077;" vertex="1" parent="lGEC87VQ3V7H_UK_dGRr-1">
          <mxGeometry x="28" y="20.000000000000057" width="120" height="60" as="geometry" />
        </mxCell>
        <mxCell id="lGEC87VQ3V7H_UK_dGRr-10" value="Service problem -sales/goods mismatch" style="whiteSpace=wrap;strokeWidth=3;fillColor=#f9f7ed;strokeColor=#D1C6A7;fontStyle=0;gradientColor=#ffffff;gradientDirection=north;" vertex="1" parent="lGEC87VQ3V7H_UK_dGRr-1">
          <mxGeometry x="687.79" y="160" width="130.21" height="60" as="geometry" />
        </mxCell>
        <mxCell id="lGEC87VQ3V7H_UK_dGRr-11" value="" style="edgeStyle=none;exitX=0.5;exitY=1;strokeWidth=3;rounded=0;fillColor=#d5e8d4;strokeColor=#82b366;" edge="1" parent="lGEC87VQ3V7H_UK_dGRr-1" source="lGEC87VQ3V7H_UK_dGRr-8" target="lGEC87VQ3V7H_UK_dGRr-217">
          <mxGeometry width="100" height="100" relative="1" as="geometry">
            <mxPoint x="88" y="100.00000000000006" as="sourcePoint" />
            <mxPoint x="148" y="190.00000000000006" as="targetPoint" />
          </mxGeometry>
        </mxCell>
        <mxCell id="lGEC87VQ3V7H_UK_dGRr-13" value="" style="edgeStyle=none;endArrow=none;strokeWidth=2;rounded=0;" edge="1" parent="lGEC87VQ3V7H_UK_dGRr-1">
          <mxGeometry width="100" height="100" relative="1" as="geometry">
            <mxPoint x="37.99999999999999" y="100.00000000000006" as="sourcePoint" />
            <mxPoint x="98" y="100.00000000000006" as="targetPoint" />
          </mxGeometry>
        </mxCell>
        <mxCell id="lGEC87VQ3V7H_UK_dGRr-14" value="" style="edgeStyle=none;endArrow=none;strokeWidth=2;rounded=0;" edge="1" parent="lGEC87VQ3V7H_UK_dGRr-1">
          <mxGeometry width="100" height="100" relative="1" as="geometry">
            <mxPoint x="58" y="136.00000000000006" as="sourcePoint" />
            <mxPoint x="118" y="136.00000000000006" as="targetPoint" />
          </mxGeometry>
        </mxCell>
        <mxCell id="lGEC87VQ3V7H_UK_dGRr-16" value="" style="edgeStyle=none;endArrow=none;strokeWidth=2;rounded=0;" edge="1" parent="lGEC87VQ3V7H_UK_dGRr-1">
          <mxGeometry width="100" height="100" relative="1" as="geometry">
            <mxPoint x="118" y="136.00000000000006" as="sourcePoint" />
            <mxPoint x="178" y="136.00000000000006" as="targetPoint" />
          </mxGeometry>
        </mxCell>
        <mxCell id="lGEC87VQ3V7H_UK_dGRr-22" value="" style="edgeStyle=none;endArrow=none;rounded=0;" edge="1" parent="lGEC87VQ3V7H_UK_dGRr-1">
          <mxGeometry width="100" height="100" relative="1" as="geometry">
            <mxPoint x="68" y="120.00000000000006" as="sourcePoint" />
            <mxPoint x="88" y="100.00000000000006" as="targetPoint" />
          </mxGeometry>
        </mxCell>
        <mxCell id="lGEC87VQ3V7H_UK_dGRr-23" value="" style="edgeStyle=none;endArrow=none;rounded=0;" edge="1" parent="lGEC87VQ3V7H_UK_dGRr-1">
          <mxGeometry width="100" height="100" relative="1" as="geometry">
            <mxPoint x="37.99999999999999" y="120.00000000000006" as="sourcePoint" />
            <mxPoint x="58" y="100.00000000000006" as="targetPoint" />
          </mxGeometry>
        </mxCell>
        <mxCell id="lGEC87VQ3V7H_UK_dGRr-24" value="" style="edgeStyle=none;endArrow=none;rounded=0;" edge="1" parent="lGEC87VQ3V7H_UK_dGRr-1">
          <mxGeometry width="100" height="100" relative="1" as="geometry">
            <mxPoint x="127.51774691358025" y="136.36959876543207" as="sourcePoint" />
            <mxPoint x="147.51774691358025" y="116.36959876543207" as="targetPoint" />
          </mxGeometry>
        </mxCell>
        <mxCell id="lGEC87VQ3V7H_UK_dGRr-25" value="" style="edgeStyle=none;endArrow=none;rounded=0;" edge="1" parent="lGEC87VQ3V7H_UK_dGRr-1">
          <mxGeometry width="100" height="100" relative="1" as="geometry">
            <mxPoint x="157.51774691358025" y="136.36959876543207" as="sourcePoint" />
            <mxPoint x="177.51774691358025" y="116.36959876543207" as="targetPoint" />
          </mxGeometry>
        </mxCell>
        <mxCell id="lGEC87VQ3V7H_UK_dGRr-26" value="" style="edgeStyle=none;endArrow=none;rounded=0;" edge="1" parent="lGEC87VQ3V7H_UK_dGRr-1">
          <mxGeometry width="100" height="100" relative="1" as="geometry">
            <mxPoint x="87.51774691358025" y="156.36959876543204" as="sourcePoint" />
            <mxPoint x="107.51774691358025" y="136.36959876543207" as="targetPoint" />
          </mxGeometry>
        </mxCell>
        <mxCell id="lGEC87VQ3V7H_UK_dGRr-27" value="" style="edgeStyle=none;endArrow=none;rounded=0;" edge="1" parent="lGEC87VQ3V7H_UK_dGRr-1">
          <mxGeometry width="100" height="100" relative="1" as="geometry">
            <mxPoint x="57.517746913580226" y="156.36959876543204" as="sourcePoint" />
            <mxPoint x="77.51774691358025" y="136.36959876543207" as="targetPoint" />
          </mxGeometry>
        </mxCell>
        <mxCell id="lGEC87VQ3V7H_UK_dGRr-35" value="Records" style="text;spacingTop=-5;fontSize=8;align=center;verticalAlign=middle;points=[]" vertex="1" parent="lGEC87VQ3V7H_UK_dGRr-1">
          <mxGeometry x="9" y="87.00000000000011" width="30" height="19.999999999999886" as="geometry" />
        </mxCell>
        <mxCell id="lGEC87VQ3V7H_UK_dGRr-36" value="Safety check" style="text;spacingTop=-5;fontSize=8;align=center;verticalAlign=middle;points=[]" vertex="1" parent="lGEC87VQ3V7H_UK_dGRr-1">
          <mxGeometry x="26.99999999999997" y="133" width="30" height="19.999999999999886" as="geometry" />
        </mxCell>
        <mxCell id="lGEC87VQ3V7H_UK_dGRr-40" value="Discussion and action" style="text;spacingTop=-5;fontSize=6;align=center;verticalAlign=middle;points=[]" vertex="1" parent="lGEC87VQ3V7H_UK_dGRr-1">
          <mxGeometry x="18.00000000000007" y="117" width="30" height="19.999999999999886" as="geometry" />
        </mxCell>
        <mxCell id="lGEC87VQ3V7H_UK_dGRr-41" value="Historical" style="text;spacingTop=-5;fontSize=6;align=center;verticalAlign=middle;points=[]" vertex="1" parent="lGEC87VQ3V7H_UK_dGRr-1">
          <mxGeometry x="69.99999999999994" y="117.00000000000003" width="30" height="19.999999999999886" as="geometry" />
        </mxCell>
        <mxCell id="lGEC87VQ3V7H_UK_dGRr-42" value="Processes" style="text;spacingTop=-5;fontSize=6;align=center;verticalAlign=middle;points=[]" vertex="1" parent="lGEC87VQ3V7H_UK_dGRr-1">
          <mxGeometry x="36.055555555555536" y="153.52777777777777" width="30" height="19.999999999999886" as="geometry" />
        </mxCell>
        <mxCell id="lGEC87VQ3V7H_UK_dGRr-43" value="Equipment" style="text;spacingTop=-5;fontSize=6;align=center;verticalAlign=middle;points=[]" vertex="1" parent="lGEC87VQ3V7H_UK_dGRr-1">
          <mxGeometry x="71.0555555555554" y="153.52777777777789" width="30" height="19.999999999999886" as="geometry" />
        </mxCell>
        <mxCell id="lGEC87VQ3V7H_UK_dGRr-48" value="Written" style="text;spacingTop=-5;fontSize=6;align=center;verticalAlign=middle;points=[]" vertex="1" parent="lGEC87VQ3V7H_UK_dGRr-1">
          <mxGeometry x="123.52777777777777" y="105.88888888888886" width="30" height="19.999999999999886" as="geometry" />
        </mxCell>
        <mxCell id="lGEC87VQ3V7H_UK_dGRr-49" value="Training" style="text;spacingTop=-5;fontSize=6;align=center;verticalAlign=middle;points=[]" vertex="1" parent="lGEC87VQ3V7H_UK_dGRr-1">
          <mxGeometry x="156.52777777777763" y="105.88888888888897" width="30" height="19.999999999999886" as="geometry" />
        </mxCell>
        <mxCell id="lGEC87VQ3V7H_UK_dGRr-53" value="Documentation" style="text;spacingTop=-5;fontSize=8;align=center;verticalAlign=middle;points=[]" vertex="1" parent="lGEC87VQ3V7H_UK_dGRr-1">
          <mxGeometry x="181.58333333333331" y="121.97222222222223" width="30" height="19.999999999999886" as="geometry" />
        </mxCell>
        <mxCell id="lGEC87VQ3V7H_UK_dGRr-56" value="Suppliers and deliveries" style="whiteSpace=wrap;strokeWidth=2;fillColor=#fff2cc;strokeColor=#d6b656;gradientColor=#ffd966;" vertex="1" parent="lGEC87VQ3V7H_UK_dGRr-1">
          <mxGeometry x="251.54166666666674" y="20" width="120" height="60" as="geometry" />
        </mxCell>
        <mxCell id="lGEC87VQ3V7H_UK_dGRr-57" value="Surroundings and environment" style="whiteSpace=wrap;strokeWidth=2;fillColor=#f8cecc;strokeColor=#b85450;gradientColor=#ea6b66;" vertex="1" parent="lGEC87VQ3V7H_UK_dGRr-1">
          <mxGeometry x="251.54166666666674" y="310" width="120" height="60" as="geometry" />
        </mxCell>
        <mxCell id="lGEC87VQ3V7H_UK_dGRr-58" value="" style="edgeStyle=none;exitX=0.5;exitY=1;strokeWidth=3;rounded=0;" edge="1" parent="lGEC87VQ3V7H_UK_dGRr-1" source="lGEC87VQ3V7H_UK_dGRr-56" target="lGEC87VQ3V7H_UK_dGRr-216">
          <mxGeometry width="100" height="100" relative="1" as="geometry">
            <mxPoint x="311.54166666666674" y="99.99999999999997" as="sourcePoint" />
            <mxPoint x="371.54166666666674" y="190" as="targetPoint" />
          </mxGeometry>
        </mxCell>
        <mxCell id="lGEC87VQ3V7H_UK_dGRr-59" value="" style="edgeStyle=none;endArrow=none;strokeWidth=2;rounded=0;" edge="1" parent="lGEC87VQ3V7H_UK_dGRr-1">
          <mxGeometry width="100" height="100" relative="1" as="geometry">
            <mxPoint x="261.54166666666686" y="99.99999999999997" as="sourcePoint" />
            <mxPoint x="321.54166666666674" y="99.99999999999997" as="targetPoint" />
          </mxGeometry>
        </mxCell>
        <mxCell id="lGEC87VQ3V7H_UK_dGRr-60" value="" style="edgeStyle=none;endArrow=none;strokeWidth=2;rounded=0;" edge="1" parent="lGEC87VQ3V7H_UK_dGRr-1">
          <mxGeometry width="100" height="100" relative="1" as="geometry">
            <mxPoint x="281.54166666666674" y="135.99999999999997" as="sourcePoint" />
            <mxPoint x="341.54166666666663" y="135.99999999999997" as="targetPoint" />
          </mxGeometry>
        </mxCell>
        <mxCell id="lGEC87VQ3V7H_UK_dGRr-61" value="" style="edgeStyle=none;endArrow=none;strokeWidth=2;rounded=0;" edge="1" parent="lGEC87VQ3V7H_UK_dGRr-1">
          <mxGeometry width="100" height="100" relative="1" as="geometry">
            <mxPoint x="321.54166666666674" y="99.99999999999997" as="sourcePoint" />
            <mxPoint x="381.54166666666674" y="99.99999999999997" as="targetPoint" />
          </mxGeometry>
        </mxCell>
        <mxCell id="lGEC87VQ3V7H_UK_dGRr-62" value="" style="edgeStyle=none;endArrow=none;strokeWidth=2;rounded=0;" edge="1" parent="lGEC87VQ3V7H_UK_dGRr-1">
          <mxGeometry width="100" height="100" relative="1" as="geometry">
            <mxPoint x="341.54166666666663" y="135.99999999999997" as="sourcePoint" />
            <mxPoint x="401.54166666666674" y="135.99999999999997" as="targetPoint" />
          </mxGeometry>
        </mxCell>
        <mxCell id="lGEC87VQ3V7H_UK_dGRr-63" value="" style="edgeStyle=none;endArrow=none;strokeWidth=2;rounded=0;" edge="1" parent="lGEC87VQ3V7H_UK_dGRr-1">
          <mxGeometry width="100" height="100" relative="1" as="geometry">
            <mxPoint x="361.54166666666686" y="170" as="sourcePoint" />
            <mxPoint x="421.54166666666674" y="170" as="targetPoint" />
          </mxGeometry>
        </mxCell>
        <mxCell id="lGEC87VQ3V7H_UK_dGRr-64" value="" style="edgeStyle=none;endArrow=none;strokeWidth=2;rounded=0;" edge="1" parent="lGEC87VQ3V7H_UK_dGRr-1">
          <mxGeometry width="100" height="100" relative="1" as="geometry">
            <mxPoint x="301.54166666666674" y="210" as="sourcePoint" />
            <mxPoint x="361.54166666666686" y="210" as="targetPoint" />
          </mxGeometry>
        </mxCell>
        <mxCell id="lGEC87VQ3V7H_UK_dGRr-65" value="" style="edgeStyle=none;endArrow=none;strokeWidth=4;rounded=0;fillColor=#f8cecc;strokeColor=#b85450;" edge="1" parent="lGEC87VQ3V7H_UK_dGRr-1">
          <mxGeometry width="100" height="100" relative="1" as="geometry">
            <mxPoint x="281.54166666666674" y="250" as="sourcePoint" />
            <mxPoint x="341.54166666666663" y="250" as="targetPoint" />
          </mxGeometry>
        </mxCell>
        <mxCell id="lGEC87VQ3V7H_UK_dGRr-66" value="" style="edgeStyle=none;endArrow=none;strokeWidth=4;rounded=0;fillColor=#f8cecc;strokeColor=#b85450;" edge="1" parent="lGEC87VQ3V7H_UK_dGRr-1">
          <mxGeometry width="100" height="100" relative="1" as="geometry">
            <mxPoint x="361.54166666666686" y="210" as="sourcePoint" />
            <mxPoint x="421.54166666666674" y="210" as="targetPoint" />
          </mxGeometry>
        </mxCell>
        <mxCell id="lGEC87VQ3V7H_UK_dGRr-67" value="" style="edgeStyle=none;endArrow=none;strokeWidth=2;rounded=0;" edge="1" parent="lGEC87VQ3V7H_UK_dGRr-1">
          <mxGeometry width="100" height="100" relative="1" as="geometry">
            <mxPoint x="341.54166666666663" y="250" as="sourcePoint" />
            <mxPoint x="401.54166666666674" y="250" as="targetPoint" />
          </mxGeometry>
        </mxCell>
        <mxCell id="lGEC87VQ3V7H_UK_dGRr-68" value="" style="edgeStyle=none;endArrow=none;strokeWidth=2;rounded=0;" edge="1" parent="lGEC87VQ3V7H_UK_dGRr-1">
          <mxGeometry width="100" height="100" relative="1" as="geometry">
            <mxPoint x="321.54166666666674" y="290" as="sourcePoint" />
            <mxPoint x="381.54166666666674" y="290" as="targetPoint" />
          </mxGeometry>
        </mxCell>
        <mxCell id="lGEC87VQ3V7H_UK_dGRr-69" value="" style="edgeStyle=none;endArrow=none;rounded=0;" edge="1" parent="lGEC87VQ3V7H_UK_dGRr-1">
          <mxGeometry width="100" height="100" relative="1" as="geometry">
            <mxPoint x="291.54166666666663" y="119.99999999999986" as="sourcePoint" />
            <mxPoint x="311.54166666666686" y="99.99999999999997" as="targetPoint" />
          </mxGeometry>
        </mxCell>
        <mxCell id="lGEC87VQ3V7H_UK_dGRr-70" value="" style="edgeStyle=none;endArrow=none;rounded=0;" edge="1" parent="lGEC87VQ3V7H_UK_dGRr-1">
          <mxGeometry width="100" height="100" relative="1" as="geometry">
            <mxPoint x="261.54166666666686" y="119.99999999999986" as="sourcePoint" />
            <mxPoint x="281.54166666666674" y="99.99999999999997" as="targetPoint" />
          </mxGeometry>
        </mxCell>
        <mxCell id="lGEC87VQ3V7H_UK_dGRr-71" value="" style="edgeStyle=none;endArrow=none;rounded=0;" edge="1" parent="lGEC87VQ3V7H_UK_dGRr-1">
          <mxGeometry width="100" height="100" relative="1" as="geometry">
            <mxPoint x="371.54166666666674" y="170" as="sourcePoint" />
            <mxPoint x="391.54166666666663" y="149.99999999999994" as="targetPoint" />
          </mxGeometry>
        </mxCell>
        <mxCell id="lGEC87VQ3V7H_UK_dGRr-72" value="" style="edgeStyle=none;endArrow=none;rounded=0;" edge="1" parent="lGEC87VQ3V7H_UK_dGRr-1">
          <mxGeometry width="100" height="100" relative="1" as="geometry">
            <mxPoint x="401.54166666666674" y="170" as="sourcePoint" />
            <mxPoint x="421.54166666666674" y="149.99999999999994" as="targetPoint" />
          </mxGeometry>
        </mxCell>
        <mxCell id="lGEC87VQ3V7H_UK_dGRr-73" value="" style="edgeStyle=none;endArrow=none;rounded=0;" edge="1" parent="lGEC87VQ3V7H_UK_dGRr-1">
          <mxGeometry width="100" height="100" relative="1" as="geometry">
            <mxPoint x="311.059413580247" y="156.36959876543182" as="sourcePoint" />
            <mxPoint x="331.0594135802469" y="136.36959876543207" as="targetPoint" />
          </mxGeometry>
        </mxCell>
        <mxCell id="lGEC87VQ3V7H_UK_dGRr-74" value="" style="edgeStyle=none;endArrow=none;rounded=0;" edge="1" parent="lGEC87VQ3V7H_UK_dGRr-1">
          <mxGeometry width="100" height="100" relative="1" as="geometry">
            <mxPoint x="281.0594135802469" y="156.36959876543182" as="sourcePoint" />
            <mxPoint x="301.0594135802471" y="136.36959876543207" as="targetPoint" />
          </mxGeometry>
        </mxCell>
        <mxCell id="lGEC87VQ3V7H_UK_dGRr-75" value="" style="edgeStyle=none;endArrow=none;rounded=0;" edge="1" parent="lGEC87VQ3V7H_UK_dGRr-1">
          <mxGeometry width="100" height="100" relative="1" as="geometry">
            <mxPoint x="361.54166666666686" y="290" as="sourcePoint" />
            <mxPoint x="381.54166666666674" y="270" as="targetPoint" />
          </mxGeometry>
        </mxCell>
        <mxCell id="lGEC87VQ3V7H_UK_dGRr-76" value="" style="edgeStyle=none;endArrow=none;rounded=0;" edge="1" parent="lGEC87VQ3V7H_UK_dGRr-1">
          <mxGeometry width="100" height="100" relative="1" as="geometry">
            <mxPoint x="331.54166666666674" y="290" as="sourcePoint" />
            <mxPoint x="351.54166666666674" y="270" as="targetPoint" />
          </mxGeometry>
        </mxCell>
        <mxCell id="lGEC87VQ3V7H_UK_dGRr-77" value="" style="edgeStyle=none;endArrow=none;rounded=0;" edge="1" parent="lGEC87VQ3V7H_UK_dGRr-1">
          <mxGeometry width="100" height="100" relative="1" as="geometry">
            <mxPoint x="381.54166666666674" y="250" as="sourcePoint" />
            <mxPoint x="401.54166666666674" y="230" as="targetPoint" />
          </mxGeometry>
        </mxCell>
        <mxCell id="lGEC87VQ3V7H_UK_dGRr-78" value="" style="edgeStyle=none;endArrow=none;rounded=0;" edge="1" parent="lGEC87VQ3V7H_UK_dGRr-1">
          <mxGeometry width="100" height="100" relative="1" as="geometry">
            <mxPoint x="351.54166666666674" y="250" as="sourcePoint" />
            <mxPoint x="371.54166666666674" y="230" as="targetPoint" />
          </mxGeometry>
        </mxCell>
        <mxCell id="lGEC87VQ3V7H_UK_dGRr-79" value="" style="edgeStyle=none;endArrow=none;rounded=0;" edge="1" parent="lGEC87VQ3V7H_UK_dGRr-1">
          <mxGeometry width="100" height="100" relative="1" as="geometry">
            <mxPoint x="311.54166666666686" y="270" as="sourcePoint" />
            <mxPoint x="331.54166666666674" y="250" as="targetPoint" />
          </mxGeometry>
        </mxCell>
        <mxCell id="lGEC87VQ3V7H_UK_dGRr-80" value="" style="edgeStyle=none;endArrow=none;rounded=0;" edge="1" parent="lGEC87VQ3V7H_UK_dGRr-1">
          <mxGeometry width="100" height="100" relative="1" as="geometry">
            <mxPoint x="311.54166666666686" y="270" as="sourcePoint" />
            <mxPoint x="331.54166666666674" y="250" as="targetPoint" />
          </mxGeometry>
        </mxCell>
        <mxCell id="lGEC87VQ3V7H_UK_dGRr-81" value="" style="edgeStyle=none;endArrow=none;rounded=0;fillColor=#f8cecc;strokeColor=#b85450;strokeWidth=4;" edge="1" parent="lGEC87VQ3V7H_UK_dGRr-1">
          <mxGeometry width="100" height="100" relative="1" as="geometry">
            <mxPoint x="281.54166666666674" y="270" as="sourcePoint" />
            <mxPoint x="301.54166666666674" y="250" as="targetPoint" />
          </mxGeometry>
        </mxCell>
        <mxCell id="lGEC87VQ3V7H_UK_dGRr-82" value="Delivery" style="text;spacingTop=-5;fontSize=8;align=center;verticalAlign=middle;points=[]" vertex="1" parent="lGEC87VQ3V7H_UK_dGRr-1">
          <mxGeometry x="231.54166666666683" y="90.00000000000003" width="30" height="19.999999999999886" as="geometry" />
        </mxCell>
        <mxCell id="lGEC87VQ3V7H_UK_dGRr-83" value="Stock" style="text;spacingTop=-5;fontSize=8;align=center;verticalAlign=middle;points=[]" vertex="1" parent="lGEC87VQ3V7H_UK_dGRr-1">
          <mxGeometry x="260.54166666666674" y="133.99999999999991" width="30" height="19.999999999999886" as="geometry" />
        </mxCell>
        <mxCell id="lGEC87VQ3V7H_UK_dGRr-84" value="Noise and lighting" style="text;spacingTop=-5;fontSize=8;align=center;verticalAlign=middle;points=[]" vertex="1" parent="lGEC87VQ3V7H_UK_dGRr-1">
          <mxGeometry x="285.54166666666674" y="209.00000000000023" width="30" height="19.999999999999886" as="geometry" />
        </mxCell>
        <mxCell id="lGEC87VQ3V7H_UK_dGRr-85" value="Service space" style="text;spacingTop=-5;fontSize=8;align=center;verticalAlign=middle;points=[]" vertex="1" parent="lGEC87VQ3V7H_UK_dGRr-1">
          <mxGeometry x="269.5416666666667" y="232.85999999999984" width="30" height="19.999999999999886" as="geometry" />
        </mxCell>
        <mxCell id="lGEC87VQ3V7H_UK_dGRr-86" value="Post" style="text;spacingTop=-5;fontSize=6;align=center;verticalAlign=middle;points=[]" vertex="1" parent="lGEC87VQ3V7H_UK_dGRr-1">
          <mxGeometry x="246.54000000000002" y="119" width="30" height="21" as="geometry" />
        </mxCell>
        <mxCell id="lGEC87VQ3V7H_UK_dGRr-87" value="Courier" style="text;spacingTop=-5;fontSize=6;align=center;verticalAlign=middle;points=[]" vertex="1" parent="lGEC87VQ3V7H_UK_dGRr-1">
          <mxGeometry x="281.5416666666667" y="118.99999999999994" width="30" height="19.999999999999886" as="geometry" />
        </mxCell>
        <mxCell id="lGEC87VQ3V7H_UK_dGRr-88" value="Quantity" style="text;spacingTop=-5;fontSize=6;align=center;verticalAlign=middle;points=[]" vertex="1" parent="lGEC87VQ3V7H_UK_dGRr-1">
          <mxGeometry x="259.5972222222223" y="154.52777777777766" width="30" height="19.999999999999886" as="geometry" />
        </mxCell>
        <mxCell id="lGEC87VQ3V7H_UK_dGRr-89" value="Quality" style="text;spacingTop=-5;fontSize=6;align=center;verticalAlign=middle;points=[]" vertex="1" parent="lGEC87VQ3V7H_UK_dGRr-1">
          <mxGeometry x="294.5972222222222" y="154.52777777777777" width="30" height="19.999999999999886" as="geometry" />
        </mxCell>
        <mxCell id="lGEC87VQ3V7H_UK_dGRr-90" value="Distraction" style="text;spacingTop=-5;fontSize=6;align=center;verticalAlign=middle;points=[]" vertex="1" parent="lGEC87VQ3V7H_UK_dGRr-1">
          <mxGeometry x="257.5972222222223" y="266.9722222222222" width="30" height="19.999999999999886" as="geometry" />
        </mxCell>
        <mxCell id="lGEC87VQ3V7H_UK_dGRr-91" value="Ventilation" style="text;spacingTop=-5;fontSize=6;align=center;verticalAlign=middle;points=[]" vertex="1" parent="lGEC87VQ3V7H_UK_dGRr-1">
          <mxGeometry x="289.5972222222222" y="267.9722222222223" width="30" height="19.999999999999886" as="geometry" />
        </mxCell>
        <mxCell id="lGEC87VQ3V7H_UK_dGRr-92" value="Central" style="text;spacingTop=-5;fontSize=6;align=center;verticalAlign=middle;points=[]" vertex="1" parent="lGEC87VQ3V7H_UK_dGRr-1">
          <mxGeometry x="361.93055555555566" y="139.8888888888888" width="30" height="19.999999999999886" as="geometry" />
        </mxCell>
        <mxCell id="lGEC87VQ3V7H_UK_dGRr-93" value="Shop floor" style="text;spacingTop=-5;fontSize=6;align=center;verticalAlign=middle;points=[]" vertex="1" parent="lGEC87VQ3V7H_UK_dGRr-1">
          <mxGeometry x="396.9305555555555" y="139.8888888888889" width="30" height="19.999999999999886" as="geometry" />
        </mxCell>
        <mxCell id="lGEC87VQ3V7H_UK_dGRr-94" value="Stock position" style="text;spacingTop=-5;fontSize=6;align=center;verticalAlign=middle;points=[]" vertex="1" parent="lGEC87VQ3V7H_UK_dGRr-1">
          <mxGeometry x="362.37500000000006" y="218.33333333333331" width="30" height="19.999999999999886" as="geometry" />
        </mxCell>
        <mxCell id="lGEC87VQ3V7H_UK_dGRr-95" value="Pathing" style="text;spacingTop=-5;fontSize=6;align=center;verticalAlign=middle;points=[]" vertex="1" parent="lGEC87VQ3V7H_UK_dGRr-1">
          <mxGeometry x="397.3749999999999" y="218.33333333333343" width="30" height="19.999999999999886" as="geometry" />
        </mxCell>
        <mxCell id="lGEC87VQ3V7H_UK_dGRr-96" value="Weather" style="text;spacingTop=-5;fontSize=6;align=center;verticalAlign=middle;points=[]" vertex="1" parent="lGEC87VQ3V7H_UK_dGRr-1">
          <mxGeometry x="341.12500000000006" y="258.41666666666663" width="30" height="19.999999999999886" as="geometry" />
        </mxCell>
        <mxCell id="lGEC87VQ3V7H_UK_dGRr-97" value="National" style="text;spacingTop=-5;fontSize=6;align=center;verticalAlign=middle;points=[]" vertex="1" parent="lGEC87VQ3V7H_UK_dGRr-1">
          <mxGeometry x="376.1249999999999" y="258.41666666666674" width="30" height="19.999999999999886" as="geometry" />
        </mxCell>
        <mxCell id="lGEC87VQ3V7H_UK_dGRr-98" value="Receipt reviewed" style="text;spacingTop=-5;fontSize=8;align=center;verticalAlign=middle;points=[]" vertex="1" parent="lGEC87VQ3V7H_UK_dGRr-1">
          <mxGeometry x="373.12500000000006" y="97.97222222222226" width="30" height="19.999999999999886" as="geometry" />
        </mxCell>
        <mxCell id="lGEC87VQ3V7H_UK_dGRr-99" value="Schedule" style="text;spacingTop=-5;fontSize=8;align=center;verticalAlign=middle;points=[]" vertex="1" parent="lGEC87VQ3V7H_UK_dGRr-1">
          <mxGeometry x="380.12500000000006" y="121.97222222222214" width="30" height="19.999999999999886" as="geometry" />
        </mxCell>
        <mxCell id="lGEC87VQ3V7H_UK_dGRr-100" value="Documentation" style="text;spacingTop=-5;fontSize=8;align=center;verticalAlign=middle;points=[]" vertex="1" parent="lGEC87VQ3V7H_UK_dGRr-1">
          <mxGeometry x="421.12500000000006" y="170.97222222222234" width="30" height="19.999999999999886" as="geometry" />
        </mxCell>
        <mxCell id="lGEC87VQ3V7H_UK_dGRr-101" value="Customer numbers/locations" style="text;spacingTop=-5;fontSize=8;align=center;verticalAlign=middle;points=[]" vertex="1" parent="lGEC87VQ3V7H_UK_dGRr-1">
          <mxGeometry x="409.12500000000006" y="195.97222222222246" width="30" height="19.999999999999886" as="geometry" />
        </mxCell>
        <mxCell id="lGEC87VQ3V7H_UK_dGRr-102" value="Layout" style="text;spacingTop=-5;fontSize=8;align=center;verticalAlign=middle;points=[]" vertex="1" parent="lGEC87VQ3V7H_UK_dGRr-1">
          <mxGeometry x="401.125" y="244.97222222222206" width="30" height="19.999999999999886" as="geometry" />
        </mxCell>
        <mxCell id="lGEC87VQ3V7H_UK_dGRr-103" value="Environment" style="text;spacingTop=-5;fontSize=8;align=center;verticalAlign=middle;points=[]" vertex="1" parent="lGEC87VQ3V7H_UK_dGRr-1">
          <mxGeometry x="381.1250000000001" y="290.97222222222246" width="30" height="19.999999999999886" as="geometry" />
        </mxCell>
        <mxCell id="lGEC87VQ3V7H_UK_dGRr-104" value="Skills" style="whiteSpace=wrap;strokeWidth=2;fillColor=#dae8fc;strokeColor=#6c8ebf;gradientColor=#7ea6e0;" vertex="1" parent="lGEC87VQ3V7H_UK_dGRr-1">
          <mxGeometry x="467.37499999999983" y="21.527777777777573" width="120" height="60" as="geometry" />
        </mxCell>
        <mxCell id="lGEC87VQ3V7H_UK_dGRr-105" value="Systems and equipment" style="whiteSpace=wrap;strokeWidth=2;fillColor=#e6d0de;strokeColor=#996185;gradientColor=#d5739d;" vertex="1" parent="lGEC87VQ3V7H_UK_dGRr-1">
          <mxGeometry x="467.37499999999983" y="311.5277777777776" width="120" height="60" as="geometry" />
        </mxCell>
        <mxCell id="lGEC87VQ3V7H_UK_dGRr-106" value="" style="edgeStyle=none;exitX=0.5;exitY=1;strokeWidth=3;rounded=0;fillColor=#dae8fc;strokeColor=#6c8ebf;" edge="1" parent="lGEC87VQ3V7H_UK_dGRr-1" source="lGEC87VQ3V7H_UK_dGRr-104" target="lGEC87VQ3V7H_UK_dGRr-215">
          <mxGeometry width="100" height="100" relative="1" as="geometry">
            <mxPoint x="527.3749999999999" y="101.52777777777757" as="sourcePoint" />
            <mxPoint x="587.3749999999999" y="191.5277777777776" as="targetPoint" />
          </mxGeometry>
        </mxCell>
        <mxCell id="lGEC87VQ3V7H_UK_dGRr-107" value="" style="edgeStyle=none;exitX=0.5;exitY=0;strokeWidth=3;rounded=0;fillColor=#e1d5e7;strokeColor=#9673a6;" edge="1" parent="lGEC87VQ3V7H_UK_dGRr-1" target="lGEC87VQ3V7H_UK_dGRr-215">
          <mxGeometry width="100" height="100" relative="1" as="geometry">
            <mxPoint x="527.375" y="311.5277777777776" as="sourcePoint" />
            <mxPoint x="587.3749999999999" y="191.5277777777776" as="targetPoint" />
          </mxGeometry>
        </mxCell>
        <mxCell id="lGEC87VQ3V7H_UK_dGRr-108" value="" style="edgeStyle=none;endArrow=none;strokeWidth=2;rounded=0;" edge="1" parent="lGEC87VQ3V7H_UK_dGRr-1">
          <mxGeometry width="100" height="100" relative="1" as="geometry">
            <mxPoint x="477.37499999999994" y="101.52777777777757" as="sourcePoint" />
            <mxPoint x="537.3749999999999" y="101.52777777777757" as="targetPoint" />
          </mxGeometry>
        </mxCell>
        <mxCell id="lGEC87VQ3V7H_UK_dGRr-109" value="" style="edgeStyle=none;endArrow=none;strokeWidth=4;rounded=0;fillColor=#dae8fc;strokeColor=#6c8ebf;" edge="1" parent="lGEC87VQ3V7H_UK_dGRr-1">
          <mxGeometry width="100" height="100" relative="1" as="geometry">
            <mxPoint x="497.3749999999998" y="137.52777777777757" as="sourcePoint" />
            <mxPoint x="557.3749999999998" y="137.52777777777757" as="targetPoint" />
          </mxGeometry>
        </mxCell>
        <mxCell id="lGEC87VQ3V7H_UK_dGRr-110" value="" style="edgeStyle=none;endArrow=none;strokeWidth=2;rounded=0;" edge="1" parent="lGEC87VQ3V7H_UK_dGRr-1">
          <mxGeometry width="100" height="100" relative="1" as="geometry">
            <mxPoint x="557.3749999999998" y="137.52777777777757" as="sourcePoint" />
            <mxPoint x="617.3749999999999" y="137.52777777777757" as="targetPoint" />
          </mxGeometry>
        </mxCell>
        <mxCell id="lGEC87VQ3V7H_UK_dGRr-111" value="" style="edgeStyle=none;endArrow=none;strokeWidth=2;rounded=0;" edge="1" parent="lGEC87VQ3V7H_UK_dGRr-1">
          <mxGeometry width="100" height="100" relative="1" as="geometry">
            <mxPoint x="517.3749999999999" y="211.5277777777776" as="sourcePoint" />
            <mxPoint x="577.375" y="211.5277777777776" as="targetPoint" />
          </mxGeometry>
        </mxCell>
        <mxCell id="lGEC87VQ3V7H_UK_dGRr-112" value="" style="edgeStyle=none;endArrow=none;strokeWidth=2;rounded=0;" edge="1" parent="lGEC87VQ3V7H_UK_dGRr-1">
          <mxGeometry width="100" height="100" relative="1" as="geometry">
            <mxPoint x="497.3749999999998" y="251.5277777777776" as="sourcePoint" />
            <mxPoint x="557.3749999999998" y="251.5277777777776" as="targetPoint" />
          </mxGeometry>
        </mxCell>
        <mxCell id="lGEC87VQ3V7H_UK_dGRr-113" value="" style="edgeStyle=none;endArrow=none;strokeWidth=2;rounded=0;" edge="1" parent="lGEC87VQ3V7H_UK_dGRr-1">
          <mxGeometry width="100" height="100" relative="1" as="geometry">
            <mxPoint x="477.37499999999994" y="291.5277777777776" as="sourcePoint" />
            <mxPoint x="537.3749999999999" y="291.5277777777776" as="targetPoint" />
          </mxGeometry>
        </mxCell>
        <mxCell id="lGEC87VQ3V7H_UK_dGRr-114" value="" style="edgeStyle=none;endArrow=none;strokeWidth=2;rounded=0;" edge="1" parent="lGEC87VQ3V7H_UK_dGRr-1">
          <mxGeometry width="100" height="100" relative="1" as="geometry">
            <mxPoint x="577.375" y="211.5277777777776" as="sourcePoint" />
            <mxPoint x="637.3749999999999" y="211.5277777777776" as="targetPoint" />
          </mxGeometry>
        </mxCell>
        <mxCell id="lGEC87VQ3V7H_UK_dGRr-115" value="" style="edgeStyle=none;endArrow=none;strokeWidth=2;rounded=0;" edge="1" parent="lGEC87VQ3V7H_UK_dGRr-1">
          <mxGeometry width="100" height="100" relative="1" as="geometry">
            <mxPoint x="557.3749999999998" y="251.5277777777776" as="sourcePoint" />
            <mxPoint x="617.3749999999999" y="251.5277777777776" as="targetPoint" />
          </mxGeometry>
        </mxCell>
        <mxCell id="lGEC87VQ3V7H_UK_dGRr-116" value="" style="edgeStyle=none;endArrow=none;strokeWidth=4;rounded=0;fillColor=#e1d5e7;strokeColor=#9673a6;" edge="1" parent="lGEC87VQ3V7H_UK_dGRr-1">
          <mxGeometry width="100" height="100" relative="1" as="geometry">
            <mxPoint x="537.3749999999999" y="291.5277777777776" as="sourcePoint" />
            <mxPoint x="668" y="292" as="targetPoint" />
          </mxGeometry>
        </mxCell>
        <mxCell id="lGEC87VQ3V7H_UK_dGRr-117" value="" style="edgeStyle=none;endArrow=none;rounded=0;" edge="1" parent="lGEC87VQ3V7H_UK_dGRr-1">
          <mxGeometry width="100" height="100" relative="1" as="geometry">
            <mxPoint x="507.3749999999998" y="121.52777777777746" as="sourcePoint" />
            <mxPoint x="527.375" y="101.52777777777757" as="targetPoint" />
          </mxGeometry>
        </mxCell>
        <mxCell id="lGEC87VQ3V7H_UK_dGRr-118" value="" style="edgeStyle=none;endArrow=none;rounded=0;" edge="1" parent="lGEC87VQ3V7H_UK_dGRr-1">
          <mxGeometry width="100" height="100" relative="1" as="geometry">
            <mxPoint x="477.37499999999994" y="121.52777777777746" as="sourcePoint" />
            <mxPoint x="497.3749999999998" y="101.52777777777757" as="targetPoint" />
          </mxGeometry>
        </mxCell>
        <mxCell id="lGEC87VQ3V7H_UK_dGRr-119" value="" style="edgeStyle=none;endArrow=none;rounded=0;" edge="1" parent="lGEC87VQ3V7H_UK_dGRr-1">
          <mxGeometry width="100" height="100" relative="1" as="geometry">
            <mxPoint x="566.8927469135803" y="137.89737654320967" as="sourcePoint" />
            <mxPoint x="586.8927469135801" y="117.89737654320956" as="targetPoint" />
          </mxGeometry>
        </mxCell>
        <mxCell id="lGEC87VQ3V7H_UK_dGRr-120" value="" style="edgeStyle=none;endArrow=none;rounded=0;" edge="1" parent="lGEC87VQ3V7H_UK_dGRr-1">
          <mxGeometry width="100" height="100" relative="1" as="geometry">
            <mxPoint x="596.89274691358" y="137.89737654320967" as="sourcePoint" />
            <mxPoint x="616.8927469135803" y="117.89737654320956" as="targetPoint" />
          </mxGeometry>
        </mxCell>
        <mxCell id="lGEC87VQ3V7H_UK_dGRr-121" value="" style="edgeStyle=none;endArrow=none;rounded=0;" edge="1" parent="lGEC87VQ3V7H_UK_dGRr-1">
          <mxGeometry width="100" height="100" relative="1" as="geometry">
            <mxPoint x="526.8927469135801" y="157.89737654320942" as="sourcePoint" />
            <mxPoint x="546.89274691358" y="137.89737654320967" as="targetPoint" />
          </mxGeometry>
        </mxCell>
        <mxCell id="lGEC87VQ3V7H_UK_dGRr-122" value="" style="edgeStyle=none;endArrow=none;rounded=0;fillColor=#dae8fc;strokeColor=#6c8ebf;strokeWidth=4;" edge="1" parent="lGEC87VQ3V7H_UK_dGRr-1">
          <mxGeometry width="100" height="100" relative="1" as="geometry">
            <mxPoint x="496.8927469135799" y="157.89737654320942" as="sourcePoint" />
            <mxPoint x="516.8927469135803" y="137.89737654320967" as="targetPoint" />
          </mxGeometry>
        </mxCell>
        <mxCell id="lGEC87VQ3V7H_UK_dGRr-123" value="" style="edgeStyle=none;endArrow=none;rounded=0;" edge="1" parent="lGEC87VQ3V7H_UK_dGRr-1">
          <mxGeometry width="100" height="100" relative="1" as="geometry">
            <mxPoint x="577.375" y="291.5277777777776" as="sourcePoint" />
            <mxPoint x="597.3749999999999" y="271.5277777777776" as="targetPoint" />
          </mxGeometry>
        </mxCell>
        <mxCell id="lGEC87VQ3V7H_UK_dGRr-124" value="" style="edgeStyle=none;endArrow=none;rounded=0;" edge="1" parent="lGEC87VQ3V7H_UK_dGRr-1">
          <mxGeometry width="100" height="100" relative="1" as="geometry">
            <mxPoint x="547.3749999999999" y="291.5277777777776" as="sourcePoint" />
            <mxPoint x="567.3749999999999" y="271.5277777777776" as="targetPoint" />
          </mxGeometry>
        </mxCell>
        <mxCell id="lGEC87VQ3V7H_UK_dGRr-125" value="" style="edgeStyle=none;endArrow=none;rounded=0;" edge="1" parent="lGEC87VQ3V7H_UK_dGRr-1">
          <mxGeometry width="100" height="100" relative="1" as="geometry">
            <mxPoint x="597.3749999999999" y="251.5277777777776" as="sourcePoint" />
            <mxPoint x="617.3749999999999" y="231.5277777777776" as="targetPoint" />
          </mxGeometry>
        </mxCell>
        <mxCell id="lGEC87VQ3V7H_UK_dGRr-126" value="" style="edgeStyle=none;endArrow=none;rounded=0;" edge="1" parent="lGEC87VQ3V7H_UK_dGRr-1">
          <mxGeometry width="100" height="100" relative="1" as="geometry">
            <mxPoint x="567.3749999999999" y="251.5277777777776" as="sourcePoint" />
            <mxPoint x="587.3749999999999" y="231.5277777777776" as="targetPoint" />
          </mxGeometry>
        </mxCell>
        <mxCell id="lGEC87VQ3V7H_UK_dGRr-127" value="" style="edgeStyle=none;endArrow=none;rounded=0;" edge="1" parent="lGEC87VQ3V7H_UK_dGRr-1">
          <mxGeometry width="100" height="100" relative="1" as="geometry">
            <mxPoint x="527.375" y="271.5277777777776" as="sourcePoint" />
            <mxPoint x="547.3749999999999" y="251.5277777777776" as="targetPoint" />
          </mxGeometry>
        </mxCell>
        <mxCell id="lGEC87VQ3V7H_UK_dGRr-128" value="" style="edgeStyle=none;endArrow=none;rounded=0;" edge="1" parent="lGEC87VQ3V7H_UK_dGRr-1">
          <mxGeometry width="100" height="100" relative="1" as="geometry">
            <mxPoint x="527.375" y="271.5277777777776" as="sourcePoint" />
            <mxPoint x="547.3749999999999" y="251.5277777777776" as="targetPoint" />
          </mxGeometry>
        </mxCell>
        <mxCell id="lGEC87VQ3V7H_UK_dGRr-129" value="" style="edgeStyle=none;endArrow=none;rounded=0;" edge="1" parent="lGEC87VQ3V7H_UK_dGRr-1">
          <mxGeometry width="100" height="100" relative="1" as="geometry">
            <mxPoint x="497.3749999999998" y="271.5277777777776" as="sourcePoint" />
            <mxPoint x="517.3749999999999" y="251.5277777777776" as="targetPoint" />
          </mxGeometry>
        </mxCell>
        <mxCell id="lGEC87VQ3V7H_UK_dGRr-130" value="" style="edgeStyle=none;endArrow=none;rounded=0;" edge="1" parent="lGEC87VQ3V7H_UK_dGRr-1">
          <mxGeometry width="100" height="100" relative="1" as="geometry">
            <mxPoint x="547.3749999999999" y="231.5277777777776" as="sourcePoint" />
            <mxPoint x="567.3749999999999" y="211.5277777777776" as="targetPoint" />
          </mxGeometry>
        </mxCell>
        <mxCell id="lGEC87VQ3V7H_UK_dGRr-131" value="" style="edgeStyle=none;endArrow=none;rounded=0;" edge="1" parent="lGEC87VQ3V7H_UK_dGRr-1">
          <mxGeometry width="100" height="100" relative="1" as="geometry">
            <mxPoint x="517.3749999999999" y="231.5277777777776" as="sourcePoint" />
            <mxPoint x="537.3749999999999" y="211.5277777777776" as="targetPoint" />
          </mxGeometry>
        </mxCell>
        <mxCell id="lGEC87VQ3V7H_UK_dGRr-132" value="Staff" style="text;spacingTop=-5;fontSize=8;align=center;verticalAlign=middle;points=[];" vertex="1" parent="lGEC87VQ3V7H_UK_dGRr-1">
          <mxGeometry x="451.37499999999983" y="91.52777777777763" width="30" height="19.999999999999886" as="geometry" />
        </mxCell>
        <mxCell id="lGEC87VQ3V7H_UK_dGRr-133" value="Shift" style="text;spacingTop=-5;fontSize=8;align=center;verticalAlign=middle;points=[];fillColor=none;strokeColor=none;" vertex="1" parent="lGEC87VQ3V7H_UK_dGRr-1">
          <mxGeometry x="470.37" y="131.53" width="29.63" height="19.75" as="geometry" />
        </mxCell>
        <mxCell id="lGEC87VQ3V7H_UK_dGRr-134" value="Monitoring" style="text;spacingTop=-5;fontSize=8;align=center;verticalAlign=middle;points=[];" vertex="1" parent="lGEC87VQ3V7H_UK_dGRr-1">
          <mxGeometry x="492.3749999999998" y="195.52777777777783" width="30" height="19.999999999999886" as="geometry" />
        </mxCell>
        <mxCell id="lGEC87VQ3V7H_UK_dGRr-135" value="Data storage" style="text;spacingTop=-5;fontSize=8;align=center;verticalAlign=middle;points=[];fillColor=none;strokeColor=none;" vertex="1" parent="lGEC87VQ3V7H_UK_dGRr-1">
          <mxGeometry x="456.3749999999998" y="243.52777777777743" width="30" height="19.999999999999886" as="geometry" />
        </mxCell>
        <mxCell id="lGEC87VQ3V7H_UK_dGRr-136" value="Access keys" style="text;spacingTop=-5;fontSize=8;align=center;verticalAlign=middle;points=[];fillColor=none;strokeColor=none;" vertex="1" parent="lGEC87VQ3V7H_UK_dGRr-1">
          <mxGeometry x="457.37499999999994" y="290.5277777777778" width="30" height="19.999999999999886" as="geometry" />
        </mxCell>
        <mxCell id="lGEC87VQ3V7H_UK_dGRr-137" value="Supervision" style="text;spacingTop=-5;fontSize=6;align=center;verticalAlign=middle;points=[];fillColor=none;strokeColor=none;" vertex="1" parent="lGEC87VQ3V7H_UK_dGRr-1">
          <mxGeometry x="462.37499999999994" y="119.52777777777752" width="30" height="19.999999999999886" as="geometry" />
        </mxCell>
        <mxCell id="lGEC87VQ3V7H_UK_dGRr-138" value="Experience" style="text;spacingTop=-5;fontSize=6;align=center;verticalAlign=middle;points=[];fillColor=none;strokeColor=none;" vertex="1" parent="lGEC87VQ3V7H_UK_dGRr-1">
          <mxGeometry x="497.3749999999998" y="119.52777777777754" width="30" height="19.999999999999886" as="geometry" />
        </mxCell>
        <mxCell id="lGEC87VQ3V7H_UK_dGRr-139" value="Hand-over" style="text;spacingTop=-5;fontSize=6;align=center;verticalAlign=middle;points=[];fillColor=none;strokeColor=none;" vertex="1" parent="lGEC87VQ3V7H_UK_dGRr-1">
          <mxGeometry x="475.4305555555554" y="156.05555555555526" width="30" height="19.999999999999886" as="geometry" />
        </mxCell>
        <mxCell id="lGEC87VQ3V7H_UK_dGRr-140" value="Presence" style="text;spacingTop=-5;fontSize=6;align=center;verticalAlign=middle;points=[];fillColor=none;strokeColor=none;" vertex="1" parent="lGEC87VQ3V7H_UK_dGRr-1">
          <mxGeometry x="510.4305555555553" y="156.05555555555537" width="30" height="19.999999999999886" as="geometry" />
        </mxCell>
        <mxCell id="lGEC87VQ3V7H_UK_dGRr-141" value="Cameras" style="text;spacingTop=-5;fontSize=6;align=center;verticalAlign=middle;points=[];" vertex="1" parent="lGEC87VQ3V7H_UK_dGRr-1">
          <mxGeometry x="492.3749999999998" y="229.94444444444417" width="30" height="19.999999999999886" as="geometry" />
        </mxCell>
        <mxCell id="lGEC87VQ3V7H_UK_dGRr-142" value="Door" style="text;spacingTop=-5;fontSize=6;align=center;verticalAlign=middle;points=[];" vertex="1" parent="lGEC87VQ3V7H_UK_dGRr-1">
          <mxGeometry x="527.3749999999998" y="229.9444444444443" width="30" height="19.999999999999886" as="geometry" />
        </mxCell>
        <mxCell id="lGEC87VQ3V7H_UK_dGRr-143" value="Network" style="text;spacingTop=-5;fontSize=6;align=center;verticalAlign=middle;points=[];" vertex="1" parent="lGEC87VQ3V7H_UK_dGRr-1">
          <mxGeometry x="470.4305555555554" y="270.4999999999998" width="30" height="19.999999999999886" as="geometry" />
        </mxCell>
        <mxCell id="lGEC87VQ3V7H_UK_dGRr-144" value="Databases" style="text;spacingTop=-5;fontSize=6;align=center;verticalAlign=middle;points=[];" vertex="1" parent="lGEC87VQ3V7H_UK_dGRr-1">
          <mxGeometry x="505.4305555555553" y="270.4999999999999" width="30" height="19.999999999999886" as="geometry" />
        </mxCell>
        <mxCell id="lGEC87VQ3V7H_UK_dGRr-145" value="Documentation" style="text;spacingTop=-5;fontSize=6;align=center;verticalAlign=middle;points=[];fillColor=none;strokeColor=none;" vertex="1" parent="lGEC87VQ3V7H_UK_dGRr-1">
          <mxGeometry x="558.9027777777777" y="105.41666666666637" width="30" height="19.999999999999886" as="geometry" />
        </mxCell>
        <mxCell id="lGEC87VQ3V7H_UK_dGRr-146" value="Practical" style="text;spacingTop=-5;fontSize=6;align=center;verticalAlign=middle;points=[];fillColor=none;strokeColor=none;" vertex="1" parent="lGEC87VQ3V7H_UK_dGRr-1">
          <mxGeometry x="601.9027777777775" y="105.41666666666649" width="30" height="19.999999999999886" as="geometry" />
        </mxCell>
        <mxCell id="lGEC87VQ3V7H_UK_dGRr-147" value="Maintenance" style="text;spacingTop=-5;fontSize=6;align=center;verticalAlign=middle;points=[];" vertex="1" parent="lGEC87VQ3V7H_UK_dGRr-1">
          <mxGeometry x="578.2083333333333" y="219.86111111111092" width="30" height="19.999999999999886" as="geometry" />
        </mxCell>
        <mxCell id="lGEC87VQ3V7H_UK_dGRr-148" value="Staff" style="text;spacingTop=-5;fontSize=6;align=center;verticalAlign=middle;points=[];" vertex="1" parent="lGEC87VQ3V7H_UK_dGRr-1">
          <mxGeometry x="613.2083333333331" y="219.86111111111103" width="30" height="19.999999999999886" as="geometry" />
        </mxCell>
        <mxCell id="lGEC87VQ3V7H_UK_dGRr-149" value="Payment" style="text;spacingTop=-5;fontSize=6;align=center;verticalAlign=middle;points=[];fillColor=none;strokeColor=none;" vertex="1" parent="lGEC87VQ3V7H_UK_dGRr-1">
          <mxGeometry x="556.9583333333333" y="258.94444444444423" width="30" height="19.999999999999886" as="geometry" />
        </mxCell>
        <mxCell id="lGEC87VQ3V7H_UK_dGRr-150" value="Display" style="text;spacingTop=-5;fontSize=6;align=center;verticalAlign=middle;points=[];fillColor=none;strokeColor=none;" vertex="1" parent="lGEC87VQ3V7H_UK_dGRr-1">
          <mxGeometry x="591.9583333333331" y="258.94444444444434" width="30" height="19.999999999999886" as="geometry" />
        </mxCell>
        <mxCell id="lGEC87VQ3V7H_UK_dGRr-151" value="Training" style="text;spacingTop=-5;fontSize=8;align=center;verticalAlign=middle;points=[];fillColor=none;strokeColor=none;" vertex="1" parent="lGEC87VQ3V7H_UK_dGRr-1">
          <mxGeometry x="620.9583333333333" y="129.49999999999974" width="30" height="19.999999999999886" as="geometry" />
        </mxCell>
        <mxCell id="lGEC87VQ3V7H_UK_dGRr-152" value="Displays" style="text;spacingTop=-5;fontSize=8;align=center;verticalAlign=middle;points=[];" vertex="1" parent="lGEC87VQ3V7H_UK_dGRr-1">
          <mxGeometry x="638.9583333333333" y="202.50000000000006" width="30" height="19.999999999999886" as="geometry" />
        </mxCell>
        <mxCell id="lGEC87VQ3V7H_UK_dGRr-153" value="Scheduling" style="text;spacingTop=-5;fontSize=8;align=center;verticalAlign=middle;points=[];fillColor=none;strokeColor=none;" vertex="1" parent="lGEC87VQ3V7H_UK_dGRr-1">
          <mxGeometry x="627.9583333333331" y="241.85999999999967" width="30" height="19.999999999999886" as="geometry" />
        </mxCell>
        <mxCell id="lGEC87VQ3V7H_UK_dGRr-154" value="Point of sale" style="text;spacingTop=-5;fontSize=8;align=center;verticalAlign=middle;points=[];fillColor=none;strokeColor=none;" vertex="1" parent="lGEC87VQ3V7H_UK_dGRr-1">
          <mxGeometry x="677.9983333333332" y="284.53000000000003" width="30" height="19.999999999999886" as="geometry" />
        </mxCell>
        <mxCell id="lGEC87VQ3V7H_UK_dGRr-210" value="" style="edgeStyle=none;endArrow=none;rounded=0;" edge="1" parent="lGEC87VQ3V7H_UK_dGRr-1">
          <mxGeometry width="100" height="100" relative="1" as="geometry">
            <mxPoint x="611.765" y="292.4977777777776" as="sourcePoint" />
            <mxPoint x="631.765" y="272.4977777777776" as="targetPoint" />
          </mxGeometry>
        </mxCell>
        <mxCell id="lGEC87VQ3V7H_UK_dGRr-211" value="Register" style="text;spacingTop=-5;fontSize=6;align=center;verticalAlign=middle;points=[];fillColor=none;strokeColor=none;" vertex="1" parent="lGEC87VQ3V7H_UK_dGRr-1">
          <mxGeometry x="626.3483333333331" y="258.91444444444437" width="30" height="19.999999999999886" as="geometry" />
        </mxCell>
        <mxCell id="lGEC87VQ3V7H_UK_dGRr-212" value="" style="edgeStyle=none;endArrow=none;rounded=0;fillColor=#e1d5e7;strokeColor=#9673a6;strokeWidth=4;" edge="1" parent="lGEC87VQ3V7H_UK_dGRr-1">
          <mxGeometry width="100" height="100" relative="1" as="geometry">
            <mxPoint x="647.205" y="292.4977777777776" as="sourcePoint" />
            <mxPoint x="667.205" y="272.4977777777776" as="targetPoint" />
          </mxGeometry>
        </mxCell>
        <mxCell id="lGEC87VQ3V7H_UK_dGRr-213" value="Network" style="text;spacingTop=-5;fontSize=6;align=center;verticalAlign=middle;points=[];fillColor=none;strokeColor=none;" vertex="1" parent="lGEC87VQ3V7H_UK_dGRr-1">
          <mxGeometry x="661.7883333333332" y="258.91444444444437" width="30" height="19.999999999999886" as="geometry" />
        </mxCell>
        <mxCell id="lGEC87VQ3V7H_UK_dGRr-214" value="" style="edgeStyle=none;exitX=0.5;exitY=0;strokeWidth=3;rounded=0;endArrow=classic;endFill=1;fillColor=#f8cecc;strokeColor=#b85450;" edge="1" parent="lGEC87VQ3V7H_UK_dGRr-1" target="lGEC87VQ3V7H_UK_dGRr-216">
          <mxGeometry width="100" height="100" relative="1" as="geometry">
            <mxPoint x="311.54166666666697" y="310" as="sourcePoint" />
            <mxPoint x="398" y="340" as="targetPoint" />
          </mxGeometry>
        </mxCell>
        <mxCell id="lGEC87VQ3V7H_UK_dGRr-215" value="" style="shape=waypoint;sketch=0;fillStyle=solid;size=6;pointerEvents=1;points=[];fillColor=none;resizable=0;rotatable=0;perimeter=centerPerimeter;snapToPoint=1;labelBackgroundColor=none;strokeColor=#D1C6A7;" vertex="1" parent="lGEC87VQ3V7H_UK_dGRr-1">
          <mxGeometry x="568.21" y="170" width="40" height="40" as="geometry" />
        </mxCell>
        <mxCell id="lGEC87VQ3V7H_UK_dGRr-216" value="" style="shape=waypoint;sketch=0;fillStyle=solid;size=6;pointerEvents=1;points=[];fillColor=none;resizable=0;rotatable=0;perimeter=centerPerimeter;snapToPoint=1;labelBackgroundColor=none;strokeColor=#D1C6A7;" vertex="1" parent="lGEC87VQ3V7H_UK_dGRr-1">
          <mxGeometry x="351.54166666666697" y="170" width="40" height="40" as="geometry" />
        </mxCell>
        <mxCell id="lGEC87VQ3V7H_UK_dGRr-217" value="" style="shape=waypoint;sketch=0;fillStyle=solid;size=6;pointerEvents=1;points=[];fillColor=none;resizable=0;rotatable=0;perimeter=centerPerimeter;snapToPoint=1;labelBackgroundColor=none;strokeColor=#D1C6A7;" vertex="1" parent="lGEC87VQ3V7H_UK_dGRr-1">
          <mxGeometry x="128.82999999999998" y="170" width="40" height="40" as="geometry" />
        </mxCell>
        <mxCell id="lGEC87VQ3V7H_UK_dGRr-221" value="" style="edgeStyle=none;endArrow=none;strokeWidth=4;rounded=0;fillColor=#d5e8d4;strokeColor=#82b366;" edge="1" parent="lGEC87VQ3V7H_UK_dGRr-1">
          <mxGeometry width="100" height="100" relative="1" as="geometry">
            <mxPoint x="138" y="168.53" as="sourcePoint" />
            <mxPoint x="198" y="168.53" as="targetPoint" />
          </mxGeometry>
        </mxCell>
        <mxCell id="lGEC87VQ3V7H_UK_dGRr-222" value="Security" style="text;spacingTop=-5;fontSize=8;align=center;verticalAlign=middle;points=[]" vertex="1" parent="lGEC87VQ3V7H_UK_dGRr-1">
          <mxGeometry x="188.58333333333331" y="154.50222222222234" width="30" height="19.999999999999886" as="geometry" />
        </mxCell>
      </root>
    </mxGraphModel>
  </diagram>
  <diagram id="Co-dvyEm5_cuYbOTTmsV" name="Product marketing">
    <mxGraphModel dx="1938" dy="1835" grid="1" gridSize="10" guides="1" tooltips="1" connect="1" arrows="1" fold="1" page="1" pageScale="1" pageWidth="827" pageHeight="1169" math="0" shadow="0">
      <root>
        <mxCell id="BKYo699MX4_daC-TzMc9-0" />
        <mxCell id="BKYo699MX4_daC-TzMc9-1" parent="BKYo699MX4_daC-TzMc9-0" />
        <mxCell id="BKYo699MX4_daC-TzMc9-2" value="" style="html=1;shadow=0;dashed=0;align=center;verticalAlign=middle;shape=mxgraph.arrows2.arrow;dy=0.5;dx=15;direction=north;notch=0;rounded=0;strokeWidth=1;fontSize=20;rotation=35;fillColor=#f5f5f5;strokeColor=#666666;fontColor=#333333;noLabel=1;" vertex="1" parent="BKYo699MX4_daC-TzMc9-1">
          <mxGeometry x="349.4" y="257.29" width="20" height="270" as="geometry" />
        </mxCell>
        <mxCell id="BKYo699MX4_daC-TzMc9-3" value="" style="html=1;shadow=0;dashed=0;align=center;verticalAlign=middle;shape=mxgraph.arrows2.arrow;dy=0.5;dx=15;direction=north;notch=0;rounded=0;strokeWidth=1;fontSize=20;rotation=35;fillColor=#f5f5f5;strokeColor=#666666;fontColor=#333333;" vertex="1" parent="BKYo699MX4_daC-TzMc9-1">
          <mxGeometry x="579.4" y="257.29" width="20" height="270" as="geometry" />
        </mxCell>
        <mxCell id="BKYo699MX4_daC-TzMc9-4" value="" style="html=1;shadow=0;dashed=0;align=center;verticalAlign=middle;shape=mxgraph.arrows2.arrow;dy=0.5;dx=15;direction=north;notch=0;rounded=0;strokeWidth=1;fontSize=20;rotation=90;fillColor=#f5f5f5;strokeColor=#666666;fontColor=#333333;" vertex="1" parent="BKYo699MX4_daC-TzMc9-1">
          <mxGeometry x="236.09" y="-206.91" width="20" height="964.81" as="geometry" />
        </mxCell>
        <mxCell id="BKYo699MX4_daC-TzMc9-5" value="" style="html=1;shadow=0;dashed=0;align=center;verticalAlign=middle;shape=mxgraph.arrows2.arrow;dy=0.5;dx=15;direction=north;notch=0;rounded=0;strokeWidth=1;fontSize=20;rotation=155;fillColor=#f5f5f5;strokeColor=#666666;fontColor=#333333;" vertex="1" parent="BKYo699MX4_daC-TzMc9-1">
          <mxGeometry x="155.1" y="-36.25" width="20" height="320" as="geometry" />
        </mxCell>
        <mxCell id="BKYo699MX4_daC-TzMc9-6" value="" style="html=1;shadow=0;dashed=0;align=center;verticalAlign=middle;shape=mxgraph.arrows2.arrow;dy=0.5;dx=15;direction=north;notch=0;rounded=0;strokeWidth=1;fontSize=20;rotation=155;fillColor=#f5f5f5;strokeColor=#666666;fontColor=#333333;" vertex="1" parent="BKYo699MX4_daC-TzMc9-1">
          <mxGeometry x="360.31" y="-34.3" width="20" height="319" as="geometry" />
        </mxCell>
        <mxCell id="BKYo699MX4_daC-TzMc9-7" value="" style="html=1;shadow=0;dashed=0;align=center;verticalAlign=middle;shape=mxgraph.arrows2.arrow;dy=0.5;dx=15;direction=north;notch=0;rounded=0;strokeWidth=1;fontSize=20;rotation=155;fillColor=#f5f5f5;strokeColor=#666666;fontColor=#333333;" vertex="1" parent="BKYo699MX4_daC-TzMc9-1">
          <mxGeometry x="590.69" y="-33.57" width="20" height="317.19" as="geometry" />
        </mxCell>
        <mxCell id="BKYo699MX4_daC-TzMc9-8" value="People" style="rounded=1;whiteSpace=wrap;html=1;shadow=1;strokeWidth=2;fontSize=20;fillColor=#f5f5f5;strokeColor=#666666;fontColor=#333333;" vertex="1" parent="BKYo699MX4_daC-TzMc9-1">
          <mxGeometry x="10" y="-50" width="150" height="40" as="geometry" />
        </mxCell>
        <mxCell id="BKYo699MX4_daC-TzMc9-9" value="Place" style="rounded=1;whiteSpace=wrap;html=1;shadow=1;strokeWidth=2;fontSize=20;fillColor=#f5f5f5;strokeColor=#666666;fontColor=#333333;" vertex="1" parent="BKYo699MX4_daC-TzMc9-1">
          <mxGeometry x="228" y="-50" width="150" height="40" as="geometry" />
        </mxCell>
        <mxCell id="BKYo699MX4_daC-TzMc9-10" value="Product" style="rounded=1;whiteSpace=wrap;html=1;shadow=1;strokeWidth=2;fontSize=20;fillColor=#f5f5f5;strokeColor=#666666;fontColor=#333333;" vertex="1" parent="BKYo699MX4_daC-TzMc9-1">
          <mxGeometry x="458" y="-50" width="150" height="40" as="geometry" />
        </mxCell>
        <mxCell id="BKYo699MX4_daC-TzMc9-11" value="Promotion" style="rounded=1;whiteSpace=wrap;html=1;shadow=1;strokeWidth=2;fontSize=20;fillColor=#f5f5f5;strokeColor=#666666;fontColor=#333333;" vertex="1" parent="BKYo699MX4_daC-TzMc9-1">
          <mxGeometry x="203" y="500.0000000000001" width="150" height="40" as="geometry" />
        </mxCell>
        <mxCell id="BKYo699MX4_daC-TzMc9-12" value="Price" style="rounded=1;whiteSpace=wrap;html=1;shadow=1;strokeWidth=2;fontSize=20;fillColor=#f5f5f5;strokeColor=#666666;fontColor=#333333;" vertex="1" parent="BKYo699MX4_daC-TzMc9-1">
          <mxGeometry x="435" y="500" width="150" height="40" as="geometry" />
        </mxCell>
        <mxCell id="BKYo699MX4_daC-TzMc9-13" value="Low customer interest" style="ellipse;whiteSpace=wrap;html=1;rounded=1;shadow=1;strokeWidth=2;fontSize=20;fillColor=#f5f5f5;strokeColor=#666666;fontColor=#333333;" vertex="1" parent="BKYo699MX4_daC-TzMc9-1">
          <mxGeometry x="730" y="216" width="120" height="120" as="geometry" />
        </mxCell>
        <mxCell id="BKYo699MX4_daC-TzMc9-14" value="&lt;span style=&quot;font-size: 14px;&quot;&gt;Staff training&lt;/span&gt;" style="html=1;shadow=0;dashed=0;align=right;verticalAlign=middle;shape=mxgraph.arrows2.arrow;dy=0.5;dx=15;direction=north;notch=0;rounded=0;strokeWidth=1;fontSize=14;rotation=90;horizontal=0;labelPosition=left;verticalLabelPosition=middle;fillColor=#f5f5f5;strokeColor=#666666;labelBackgroundColor=none;fontColor=#333333;fontStyle=0" vertex="1" parent="BKYo699MX4_daC-TzMc9-1">
          <mxGeometry x="54" y="-15" width="20" height="110" as="geometry" />
        </mxCell>
        <mxCell id="BKYo699MX4_daC-TzMc9-15" value="&lt;span style=&quot;font-size: 14px;&quot;&gt;Distribution strategy&lt;/span&gt;" style="html=1;shadow=0;dashed=0;align=right;verticalAlign=middle;shape=mxgraph.arrows2.arrow;dy=0.5;dx=15;direction=north;notch=0;rounded=0;strokeWidth=1;fontSize=14;rotation=90;horizontal=0;labelPosition=left;verticalLabelPosition=middle;fillColor=#f5f5f5;strokeColor=#666666;labelBackgroundColor=none;fontColor=#333333;fontStyle=0" vertex="1" parent="BKYo699MX4_daC-TzMc9-1">
          <mxGeometry x="260" y="-15" width="20" height="110" as="geometry" />
        </mxCell>
        <mxCell id="BKYo699MX4_daC-TzMc9-16" value="Design" style="html=1;shadow=0;dashed=0;align=right;verticalAlign=middle;shape=mxgraph.arrows2.arrow;dy=0.5;dx=15;direction=north;notch=0;rounded=0;strokeWidth=1;fontSize=14;rotation=90;horizontal=0;labelPosition=left;verticalLabelPosition=middle;fillColor=#f5f5f5;strokeColor=#666666;labelBackgroundColor=none;fontColor=#333333;fontStyle=0" vertex="1" parent="BKYo699MX4_daC-TzMc9-1">
          <mxGeometry x="491" y="-15" width="20" height="110" as="geometry" />
        </mxCell>
        <mxCell id="BKYo699MX4_daC-TzMc9-17" value="&lt;span style=&quot;font-size: 14px;&quot;&gt;Messaging&lt;/span&gt;" style="html=1;shadow=0;dashed=0;align=right;verticalAlign=middle;shape=mxgraph.arrows2.arrow;dy=0.5;dx=15;direction=north;notch=0;rounded=0;strokeWidth=1;fontSize=14;rotation=90;horizontal=0;labelPosition=left;verticalLabelPosition=middle;fillColor=#d5e8d4;strokeColor=#82b366;labelBackgroundColor=none;fontStyle=0" vertex="1" parent="BKYo699MX4_daC-TzMc9-1">
          <mxGeometry x="299" y="320" width="20" height="110" as="geometry" />
        </mxCell>
        <mxCell id="BKYo699MX4_daC-TzMc9-18" value="Customer discounts" style="html=1;shadow=0;dashed=0;align=right;verticalAlign=middle;shape=mxgraph.arrows2.arrow;dy=0.5;dx=15;direction=north;notch=0;rounded=0;strokeWidth=1;fontSize=14;rotation=90;horizontal=0;labelPosition=left;verticalLabelPosition=middle;fillColor=#f5f5f5;strokeColor=#666666;labelBackgroundColor=none;fontColor=#333333;fontStyle=0" vertex="1" parent="BKYo699MX4_daC-TzMc9-1">
          <mxGeometry x="531" y="320" width="20" height="110" as="geometry" />
        </mxCell>
        <mxCell id="BKYo699MX4_daC-TzMc9-19" value="&lt;span style=&quot;font-size: 14px;&quot;&gt;Customer interactions&lt;/span&gt;" style="html=1;shadow=0;dashed=0;align=right;verticalAlign=middle;shape=mxgraph.arrows2.arrow;dy=0.5;dx=15;direction=north;notch=0;rounded=0;strokeWidth=1;fontSize=14;rotation=90;horizontal=0;labelPosition=left;verticalLabelPosition=middle;fillColor=#d5e8d4;strokeColor=#82b366;labelBackgroundColor=none;fontStyle=0" vertex="1" parent="BKYo699MX4_daC-TzMc9-1">
          <mxGeometry x="74" y="29" width="20" height="110" as="geometry" />
        </mxCell>
        <mxCell id="BKYo699MX4_daC-TzMc9-20" value="&lt;span style=&quot;font-size: 14px;&quot;&gt;Market coverage&lt;/span&gt;" style="html=1;shadow=0;dashed=0;align=right;verticalAlign=middle;shape=mxgraph.arrows2.arrow;dy=0.5;dx=15;direction=north;notch=0;rounded=0;strokeWidth=1;fontSize=14;rotation=90;horizontal=0;labelPosition=left;verticalLabelPosition=middle;fillColor=#d5e8d4;strokeColor=#82b366;labelBackgroundColor=none;fontStyle=0" vertex="1" parent="BKYo699MX4_daC-TzMc9-1">
          <mxGeometry x="279" y="29" width="20" height="110" as="geometry" />
        </mxCell>
        <mxCell id="BKYo699MX4_daC-TzMc9-21" value="Branding" style="html=1;shadow=0;dashed=0;align=right;verticalAlign=middle;shape=mxgraph.arrows2.arrow;dy=0.5;dx=15;direction=north;notch=0;rounded=0;strokeWidth=1;fontSize=14;rotation=90;horizontal=0;labelPosition=left;verticalLabelPosition=middle;fillColor=#f5f5f5;strokeColor=#666666;labelBackgroundColor=none;fontColor=#333333;fontStyle=0" vertex="1" parent="BKYo699MX4_daC-TzMc9-1">
          <mxGeometry x="511" y="28" width="20" height="110" as="geometry" />
        </mxCell>
        <mxCell id="BKYo699MX4_daC-TzMc9-22" value="Ad mix" style="html=1;shadow=0;dashed=0;align=right;verticalAlign=middle;shape=mxgraph.arrows2.arrow;dy=0.5;dx=15;direction=north;notch=0;rounded=0;strokeWidth=1;fontSize=14;rotation=90;horizontal=0;labelPosition=left;verticalLabelPosition=middle;fillColor=#f8cecc;strokeColor=#b85450;labelBackgroundColor=none;fontStyle=0" vertex="1" parent="BKYo699MX4_daC-TzMc9-1">
          <mxGeometry x="333" y="270" width="20" height="110" as="geometry" />
        </mxCell>
        <mxCell id="BKYo699MX4_daC-TzMc9-23" value="Strategy" style="html=1;shadow=0;dashed=0;align=right;verticalAlign=middle;shape=mxgraph.arrows2.arrow;dy=0.5;dx=15;direction=north;notch=0;rounded=0;strokeWidth=1;fontSize=14;rotation=90;horizontal=0;labelPosition=left;verticalLabelPosition=middle;fillColor=#f8cecc;strokeColor=#b85450;labelBackgroundColor=none;fontStyle=0" vertex="1" parent="BKYo699MX4_daC-TzMc9-1">
          <mxGeometry x="564" y="270" width="20" height="110" as="geometry" />
        </mxCell>
        <mxCell id="BKYo699MX4_daC-TzMc9-24" value="" style="html=1;shadow=0;dashed=0;align=center;verticalAlign=middle;shape=mxgraph.arrows2.arrow;dy=0.5;dx=15;direction=north;notch=0;rounded=0;strokeWidth=1;fontSize=20;rotation=35;fillColor=#f5f5f5;strokeColor=#666666;fontColor=#333333;" vertex="1" parent="BKYo699MX4_daC-TzMc9-1">
          <mxGeometry x="110.08" y="247.1" width="20" height="382.71" as="geometry" />
        </mxCell>
        <mxCell id="BKYo699MX4_daC-TzMc9-25" value="Process" style="rounded=1;whiteSpace=wrap;html=1;shadow=1;strokeWidth=2;fontSize=20;fillColor=#f5f5f5;strokeColor=#666666;fontColor=#333333;" vertex="1" parent="BKYo699MX4_daC-TzMc9-1">
          <mxGeometry x="-69" y="585.0000000000001" width="150" height="40" as="geometry" />
        </mxCell>
        <mxCell id="BKYo699MX4_daC-TzMc9-26" value="&lt;span style=&quot;font-size: 14px;&quot;&gt;Resource requirements / allocation&lt;/span&gt;" style="html=1;shadow=0;dashed=0;align=right;verticalAlign=middle;shape=mxgraph.arrows2.arrow;dy=0.5;dx=15;direction=north;notch=0;rounded=0;strokeWidth=1;fontSize=14;rotation=90;horizontal=0;labelPosition=left;verticalLabelPosition=middle;fillColor=#f8cecc;strokeColor=#b85450;labelBackgroundColor=none;fontStyle=0" vertex="1" parent="BKYo699MX4_daC-TzMc9-1">
          <mxGeometry x="61" y="367" width="20" height="110" as="geometry" />
        </mxCell>
        <mxCell id="BKYo699MX4_daC-TzMc9-27" value="Flowcharting / blueprints" style="html=1;shadow=0;dashed=0;align=right;verticalAlign=middle;shape=mxgraph.arrows2.arrow;dy=0.5;dx=15;direction=north;notch=0;rounded=0;strokeWidth=1;fontSize=14;rotation=90;horizontal=0;labelPosition=left;verticalLabelPosition=middle;fillColor=#f8cecc;strokeColor=#b85450;labelBackgroundColor=none;fontStyle=0" vertex="1" parent="BKYo699MX4_daC-TzMc9-1">
          <mxGeometry x="122.4" y="277" width="20" height="110" as="geometry" />
        </mxCell>
        <mxCell id="BKYo699MX4_daC-TzMc9-28" value="" style="html=1;shadow=0;dashed=0;align=center;verticalAlign=middle;shape=mxgraph.arrows2.arrow;dy=0.5;dx=15;direction=north;notch=0;rounded=0;strokeWidth=1;fontSize=20;rotation=155;fillColor=#f5f5f5;strokeColor=#666666;fontColor=#333333;" vertex="1" parent="BKYo699MX4_daC-TzMc9-1">
          <mxGeometry x="-86.79" y="-26.72" width="20" height="310" as="geometry" />
        </mxCell>
        <mxCell id="BKYo699MX4_daC-TzMc9-29" value="Proof" style="rounded=1;whiteSpace=wrap;html=1;shadow=1;strokeWidth=2;fontSize=20;fillColor=#f5f5f5;strokeColor=#666666;fontColor=#333333;" vertex="1" parent="BKYo699MX4_daC-TzMc9-1">
          <mxGeometry x="-216.79" y="-50" width="150" height="40" as="geometry" />
        </mxCell>
        <mxCell id="BKYo699MX4_daC-TzMc9-30" value="&lt;span style=&quot;font-size: 14px;&quot;&gt;Facilities&lt;/span&gt;" style="html=1;shadow=0;dashed=0;align=right;verticalAlign=middle;shape=mxgraph.arrows2.arrow;dy=0.5;dx=15;direction=north;notch=0;rounded=0;strokeWidth=1;fontSize=14;rotation=90;horizontal=0;labelPosition=left;verticalLabelPosition=middle;fillColor=#f5f5f5;strokeColor=#666666;labelBackgroundColor=none;fontColor=#333333;fontStyle=0" vertex="1" parent="BKYo699MX4_daC-TzMc9-1">
          <mxGeometry x="-190" y="-15" width="20" height="110" as="geometry" />
        </mxCell>
        <mxCell id="BKYo699MX4_daC-TzMc9-31" value="&lt;span style=&quot;font-size: 14px;&quot;&gt;Signage&lt;br style=&quot;font-size: 14px;&quot;&gt;&lt;/span&gt;" style="html=1;shadow=0;dashed=0;align=right;verticalAlign=middle;shape=mxgraph.arrows2.arrow;dy=0.5;dx=15;direction=north;notch=0;rounded=0;strokeWidth=1;fontSize=14;rotation=90;horizontal=0;labelPosition=left;verticalLabelPosition=middle;fillColor=#f5f5f5;strokeColor=#666666;labelBackgroundColor=none;fontColor=#333333;fontStyle=0" vertex="1" parent="BKYo699MX4_daC-TzMc9-1">
          <mxGeometry x="-170" y="28" width="20" height="110" as="geometry" />
        </mxCell>
        <mxCell id="BKYo699MX4_daC-TzMc9-36" value="Packaging" style="html=1;shadow=0;dashed=0;align=right;verticalAlign=middle;shape=mxgraph.arrows2.arrow;dy=0.5;dx=15;direction=north;notch=0;rounded=0;strokeWidth=1;fontSize=14;rotation=90;horizontal=0;labelPosition=left;verticalLabelPosition=middle;fillColor=#f5f5f5;strokeColor=#666666;labelBackgroundColor=none;fontColor=#333333;fontStyle=0" vertex="1" parent="BKYo699MX4_daC-TzMc9-1">
          <mxGeometry x="533" y="74" width="20" height="110" as="geometry" />
        </mxCell>
        <mxCell id="BKYo699MX4_daC-TzMc9-38" value="Warranty" style="html=1;shadow=0;dashed=0;align=right;verticalAlign=middle;shape=mxgraph.arrows2.arrow;dy=0.5;dx=15;direction=north;notch=0;rounded=0;strokeWidth=1;fontSize=14;rotation=90;horizontal=0;labelPosition=left;verticalLabelPosition=middle;fillColor=#f8cecc;strokeColor=#b85450;labelBackgroundColor=none;fontStyle=0" vertex="1" parent="BKYo699MX4_daC-TzMc9-1">
          <mxGeometry x="555" y="125" width="20" height="110" as="geometry" />
        </mxCell>
        <mxCell id="BKYo699MX4_daC-TzMc9-39" value="Service" style="html=1;shadow=0;dashed=0;align=right;verticalAlign=middle;shape=mxgraph.arrows2.arrow;dy=0.5;dx=15;direction=north;notch=0;rounded=0;strokeWidth=1;fontSize=14;rotation=90;horizontal=0;labelPosition=left;verticalLabelPosition=middle;fillColor=#f8cecc;strokeColor=#b85450;labelBackgroundColor=none;fontStyle=0" vertex="1" parent="BKYo699MX4_daC-TzMc9-1">
          <mxGeometry x="579" y="175" width="20" height="110" as="geometry" />
        </mxCell>
        <mxCell id="BKYo699MX4_daC-TzMc9-41" value="Retailer rebates" style="html=1;shadow=0;dashed=0;align=right;verticalAlign=middle;shape=mxgraph.arrows2.arrow;dy=0.5;dx=15;direction=north;notch=0;rounded=0;strokeWidth=1;fontSize=14;rotation=90;horizontal=0;labelPosition=left;verticalLabelPosition=middle;fillColor=#f5f5f5;strokeColor=#666666;labelBackgroundColor=none;fontColor=#333333;fontStyle=0" vertex="1" parent="BKYo699MX4_daC-TzMc9-1">
          <mxGeometry x="497" y="367" width="20" height="110" as="geometry" />
        </mxCell>
        <mxCell id="BKYo699MX4_daC-TzMc9-42" value="Payment terms" style="html=1;shadow=0;dashed=0;align=right;verticalAlign=middle;shape=mxgraph.arrows2.arrow;dy=0.5;dx=15;direction=north;notch=0;rounded=0;strokeWidth=1;fontSize=14;rotation=90;horizontal=0;labelPosition=left;verticalLabelPosition=middle;fillColor=#f5f5f5;strokeColor=#666666;labelBackgroundColor=none;fontColor=#333333;fontStyle=0" vertex="1" parent="BKYo699MX4_daC-TzMc9-1">
          <mxGeometry x="462" y="417.29" width="20" height="110" as="geometry" />
        </mxCell>
        <mxCell id="BKYo699MX4_daC-TzMc9-46" value="&lt;span style=&quot;font-size: 14px;&quot;&gt;Locations&lt;/span&gt;" style="html=1;shadow=0;dashed=0;align=right;verticalAlign=middle;shape=mxgraph.arrows2.arrow;dy=0.5;dx=15;direction=north;notch=0;rounded=0;strokeWidth=1;fontSize=14;rotation=90;horizontal=0;labelPosition=left;verticalLabelPosition=middle;fillColor=#f5f5f5;strokeColor=#666666;labelBackgroundColor=none;fontColor=#333333;fontStyle=0" vertex="1" parent="BKYo699MX4_daC-TzMc9-1">
          <mxGeometry x="301" y="73.2" width="20" height="110" as="geometry" />
        </mxCell>
        <mxCell id="BKYo699MX4_daC-TzMc9-47" value="&lt;span style=&quot;font-size: 14px;&quot;&gt;Transport&lt;/span&gt;" style="html=1;shadow=0;dashed=0;align=right;verticalAlign=middle;shape=mxgraph.arrows2.arrow;dy=0.5;dx=15;direction=north;notch=0;rounded=0;strokeWidth=1;fontSize=14;rotation=90;horizontal=0;labelPosition=left;verticalLabelPosition=middle;fillColor=#f5f5f5;strokeColor=#666666;labelBackgroundColor=none;fontColor=#333333;fontStyle=0" vertex="1" parent="BKYo699MX4_daC-TzMc9-1">
          <mxGeometry x="322" y="120" width="20" height="110" as="geometry" />
        </mxCell>
        <mxCell id="BKYo699MX4_daC-TzMc9-48" value="&lt;span style=&quot;font-size: 14px;&quot;&gt;Inventory&lt;/span&gt;" style="html=1;shadow=0;dashed=0;align=right;verticalAlign=middle;shape=mxgraph.arrows2.arrow;dy=0.5;dx=15;direction=north;notch=0;rounded=0;strokeWidth=1;fontSize=14;rotation=90;horizontal=0;labelPosition=left;verticalLabelPosition=middle;fillColor=#f5f5f5;strokeColor=#666666;labelBackgroundColor=none;fontColor=#333333;fontStyle=0" vertex="1" parent="BKYo699MX4_daC-TzMc9-1">
          <mxGeometry x="342" y="167" width="20" height="110" as="geometry" />
        </mxCell>
        <mxCell id="BKYo699MX4_daC-TzMc9-49" value="&lt;span style=&quot;font-size: 14px;&quot;&gt;Channel&lt;/span&gt;" style="html=1;shadow=0;dashed=0;align=right;verticalAlign=middle;shape=mxgraph.arrows2.arrow;dy=0.5;dx=15;direction=north;notch=0;rounded=0;strokeWidth=1;fontSize=14;rotation=90;horizontal=0;labelPosition=left;verticalLabelPosition=middle;fillColor=#f8cecc;strokeColor=#b85450;labelBackgroundColor=none;fontStyle=0" vertex="1" parent="BKYo699MX4_daC-TzMc9-1">
          <mxGeometry x="265" y="367" width="20" height="110" as="geometry" />
        </mxCell>
        <mxCell id="BKYo699MX4_daC-TzMc9-50" value="&lt;span style=&quot;font-size: 14px;&quot;&gt;Frequency&lt;/span&gt;" style="html=1;shadow=0;dashed=0;align=right;verticalAlign=middle;shape=mxgraph.arrows2.arrow;dy=0.5;dx=15;direction=north;notch=0;rounded=0;strokeWidth=1;fontSize=14;rotation=90;horizontal=0;labelPosition=left;verticalLabelPosition=middle;fillColor=#f5f5f5;strokeColor=#666666;labelBackgroundColor=none;fontColor=#333333;fontStyle=0" vertex="1" parent="BKYo699MX4_daC-TzMc9-1">
          <mxGeometry x="231" y="418.29" width="20" height="110" as="geometry" />
        </mxCell>
        <mxCell id="BKYo699MX4_daC-TzMc9-52" value="&lt;span style=&quot;font-size: 14px;&quot;&gt;Social interactions&lt;/span&gt;" style="html=1;shadow=0;dashed=0;align=right;verticalAlign=middle;shape=mxgraph.arrows2.arrow;dy=0.5;dx=15;direction=north;notch=0;rounded=0;strokeWidth=1;fontSize=14;rotation=90;horizontal=0;labelPosition=left;verticalLabelPosition=middle;fillColor=#d5e8d4;strokeColor=#82b366;labelBackgroundColor=none;fontStyle=0" vertex="1" parent="BKYo699MX4_daC-TzMc9-1">
          <mxGeometry x="94" y="74" width="20" height="110" as="geometry" />
        </mxCell>
        <mxCell id="BKYo699MX4_daC-TzMc9-53" value="&lt;span style=&quot;font-size: 14px;&quot;&gt;Complaint handling&lt;/span&gt;" style="html=1;shadow=0;dashed=0;align=right;verticalAlign=middle;shape=mxgraph.arrows2.arrow;dy=0.5;dx=15;direction=north;notch=0;rounded=0;strokeWidth=1;fontSize=14;rotation=90;horizontal=0;labelPosition=left;verticalLabelPosition=middle;fillColor=#f8cecc;strokeColor=#b85450;labelBackgroundColor=none;fontStyle=0" vertex="1" parent="BKYo699MX4_daC-TzMc9-1">
          <mxGeometry x="117" y="120" width="20" height="110" as="geometry" />
        </mxCell>
        <mxCell id="BKYo699MX4_daC-TzMc9-54" value="Queuing systems" style="html=1;shadow=0;dashed=0;align=right;verticalAlign=middle;shape=mxgraph.arrows2.arrow;dy=0.5;dx=15;direction=north;notch=0;rounded=0;strokeWidth=1;fontSize=14;rotation=90;horizontal=0;labelPosition=left;verticalLabelPosition=middle;fillColor=#f5f5f5;strokeColor=#666666;labelBackgroundColor=none;fontColor=#333333;fontStyle=0" vertex="1" parent="BKYo699MX4_daC-TzMc9-1">
          <mxGeometry x="142.4" y="167" width="20" height="110" as="geometry" />
        </mxCell>
        <mxCell id="BKYo699MX4_daC-TzMc9-55" value="Diagnostics" style="html=1;shadow=0;dashed=0;align=right;verticalAlign=middle;shape=mxgraph.arrows2.arrow;dy=0.5;dx=15;direction=north;notch=0;rounded=0;strokeWidth=1;fontSize=14;rotation=90;horizontal=0;labelPosition=left;verticalLabelPosition=middle;fillColor=#f5f5f5;strokeColor=#666666;labelBackgroundColor=none;fontColor=#333333;fontStyle=0" vertex="1" parent="BKYo699MX4_daC-TzMc9-1">
          <mxGeometry x="92" y="320" width="20" height="110" as="geometry" />
        </mxCell>
        <mxCell id="BKYo699MX4_daC-TzMc9-56" value="&lt;span style=&quot;font-size: 14px;&quot;&gt;KPIs&lt;/span&gt;" style="html=1;shadow=0;dashed=0;align=right;verticalAlign=middle;shape=mxgraph.arrows2.arrow;dy=0.5;dx=15;direction=north;notch=0;rounded=0;strokeWidth=1;fontSize=14;rotation=90;horizontal=0;labelPosition=left;verticalLabelPosition=middle;fillColor=#f5f5f5;strokeColor=#666666;labelBackgroundColor=none;fontColor=#333333;fontStyle=0" vertex="1" parent="BKYo699MX4_daC-TzMc9-1">
          <mxGeometry x="29" y="413.29" width="20" height="110" as="geometry" />
        </mxCell>
        <mxCell id="BKYo699MX4_daC-TzMc9-57" value="&lt;span style=&quot;font-size: 14px;&quot;&gt;Best practice&lt;/span&gt;" style="html=1;shadow=0;dashed=0;align=right;verticalAlign=middle;shape=mxgraph.arrows2.arrow;dy=0.5;dx=15;direction=north;notch=0;rounded=0;strokeWidth=1;fontSize=14;rotation=90;horizontal=0;labelPosition=left;verticalLabelPosition=middle;fillColor=#f5f5f5;strokeColor=#666666;labelBackgroundColor=none;fontColor=#333333;fontStyle=0" vertex="1" parent="BKYo699MX4_daC-TzMc9-1">
          <mxGeometry x="-6" y="462" width="20" height="110" as="geometry" />
        </mxCell>
        <mxCell id="BKYo699MX4_daC-TzMc9-58" value="&lt;span style=&quot;font-size: 14px;&quot;&gt;Operations manuals&lt;/span&gt;" style="html=1;shadow=0;dashed=0;align=right;verticalAlign=middle;shape=mxgraph.arrows2.arrow;dy=0.5;dx=15;direction=north;notch=0;rounded=0;strokeWidth=1;fontSize=14;rotation=90;horizontal=0;labelPosition=left;verticalLabelPosition=middle;fillColor=#f5f5f5;strokeColor=#666666;labelBackgroundColor=none;fontColor=#333333;fontStyle=0" vertex="1" parent="BKYo699MX4_daC-TzMc9-1">
          <mxGeometry x="-39" y="509" width="20" height="110" as="geometry" />
        </mxCell>
        <mxCell id="BKYo699MX4_daC-TzMc9-59" value="&lt;span style=&quot;font-size: 14px;&quot;&gt;Layout&lt;br style=&quot;font-size: 14px;&quot;&gt;&lt;/span&gt;" style="html=1;shadow=0;dashed=0;align=right;verticalAlign=middle;shape=mxgraph.arrows2.arrow;dy=0.5;dx=15;direction=north;notch=0;rounded=0;strokeWidth=1;fontSize=14;rotation=90;horizontal=0;labelPosition=left;verticalLabelPosition=middle;fillColor=#f5f5f5;strokeColor=#666666;labelBackgroundColor=none;fontColor=#333333;fontStyle=0" vertex="1" parent="BKYo699MX4_daC-TzMc9-1">
          <mxGeometry x="-150" y="73.2" width="20" height="110" as="geometry" />
        </mxCell>
        <mxCell id="BKYo699MX4_daC-TzMc9-60" value="&lt;span style=&quot;font-size: 14px;&quot;&gt;Interior design&lt;br style=&quot;font-size: 14px;&quot;&gt;&lt;/span&gt;" style="html=1;shadow=0;dashed=0;align=right;verticalAlign=middle;shape=mxgraph.arrows2.arrow;dy=0.5;dx=15;direction=north;notch=0;rounded=0;strokeWidth=1;fontSize=14;rotation=90;horizontal=0;labelPosition=left;verticalLabelPosition=middle;fillColor=#f5f5f5;strokeColor=#666666;labelBackgroundColor=none;fontColor=#333333;fontStyle=0" vertex="1" parent="BKYo699MX4_daC-TzMc9-1">
          <mxGeometry x="-124.47" y="120" width="20" height="110" as="geometry" />
        </mxCell>
        <mxCell id="BKYo699MX4_daC-TzMc9-61" value="&lt;span style=&quot;font-size: 14px;&quot;&gt;Receipts and flyers&lt;br style=&quot;font-size: 14px;&quot;&gt;&lt;/span&gt;" style="html=1;shadow=0;dashed=0;align=right;verticalAlign=middle;shape=mxgraph.arrows2.arrow;dy=0.5;dx=15;direction=north;notch=0;rounded=0;strokeWidth=1;fontSize=14;rotation=90;horizontal=0;labelPosition=left;verticalLabelPosition=middle;fillColor=#f5f5f5;strokeColor=#666666;labelBackgroundColor=none;fontColor=#333333;fontStyle=0" vertex="1" parent="BKYo699MX4_daC-TzMc9-1">
          <mxGeometry x="-104.47" y="167" width="20" height="110" as="geometry" />
        </mxCell>
      </root>
    </mxGraphModel>
  </diagram>
  <diagram id="IvCqbH8MI7b2adhUtM2C" name="Basic">
    <mxGraphModel dx="1111" dy="666" grid="1" gridSize="10" guides="1" tooltips="1" connect="1" arrows="1" fold="1" page="1" pageScale="1" pageWidth="827" pageHeight="1169" math="0" shadow="0">
      <root>
        <mxCell id="0" />
        <mxCell id="1" parent="0" />
        <mxCell id="DbwIoAdaLj88i89GR5O_-2" value="" style="html=1;shadow=0;dashed=0;align=center;verticalAlign=middle;shape=mxgraph.arrows2.arrow;dy=0.5;dx=15;direction=north;notch=0;rounded=0;strokeWidth=1;fontSize=20;rotation=35;fillColor=#f8cecc;strokeColor=#b85450;" vertex="1" parent="1">
          <mxGeometry x="358" y="260" width="20" height="240" as="geometry" />
        </mxCell>
        <mxCell id="DbwIoAdaLj88i89GR5O_-3" value="" style="html=1;shadow=0;dashed=0;align=center;verticalAlign=middle;shape=mxgraph.arrows2.arrow;dy=0.5;dx=15;direction=north;notch=0;rounded=0;strokeWidth=1;fontSize=20;rotation=35;fillColor=#e1d5e7;strokeColor=#9673a6;" vertex="1" parent="1">
          <mxGeometry x="588" y="260" width="20" height="240" as="geometry" />
        </mxCell>
        <mxCell id="DbwIoAdaLj88i89GR5O_-4" value="" style="html=1;shadow=0;dashed=0;align=center;verticalAlign=middle;shape=mxgraph.arrows2.arrow;dy=0.5;dx=15;direction=north;notch=0;rounded=0;strokeWidth=1;fontSize=20;rotation=90;fillColor=#eeeeee;strokeColor=#36393d;" vertex="1" parent="1">
          <mxGeometry x="362.38" y="-80.62" width="20" height="712.25" as="geometry" />
        </mxCell>
        <mxCell id="DbwIoAdaLj88i89GR5O_-5" value="" style="html=1;shadow=0;dashed=0;align=center;verticalAlign=middle;shape=mxgraph.arrows2.arrow;dy=0.5;dx=15;direction=north;notch=0;rounded=0;strokeWidth=1;fontSize=20;rotation=155;fillColor=#d5e8d4;strokeColor=#82b366;" vertex="1" parent="1">
          <mxGeometry x="172" y="40" width="20" height="240" as="geometry" />
        </mxCell>
        <mxCell id="DbwIoAdaLj88i89GR5O_-6" value="" style="html=1;shadow=0;dashed=0;align=center;verticalAlign=middle;shape=mxgraph.arrows2.arrow;dy=0.5;dx=15;direction=north;notch=0;rounded=0;strokeWidth=1;fontSize=20;rotation=155;fillColor=#ffe6cc;strokeColor=#d79b00;" vertex="1" parent="1">
          <mxGeometry x="377" y="41" width="20" height="240" as="geometry" />
        </mxCell>
        <mxCell id="DbwIoAdaLj88i89GR5O_-7" value="" style="html=1;shadow=0;dashed=0;align=center;verticalAlign=middle;shape=mxgraph.arrows2.arrow;dy=0.5;dx=15;direction=north;notch=0;rounded=0;strokeWidth=1;fontSize=20;rotation=155;fillColor=#dae8fc;strokeColor=#6c8ebf;" vertex="1" parent="1">
          <mxGeometry x="607" y="40" width="20" height="240" as="geometry" />
        </mxCell>
        <mxCell id="DbwIoAdaLj88i89GR5O_-8" value="Category (rib)" style="rounded=1;whiteSpace=wrap;html=1;shadow=1;strokeWidth=2;fontSize=20;fillColor=#d5e8d4;strokeColor=#82b366;" vertex="1" parent="1">
          <mxGeometry x="58" y="20" width="150" height="40" as="geometry" />
        </mxCell>
        <mxCell id="DbwIoAdaLj88i89GR5O_-9" value="Category (rib)" style="rounded=1;whiteSpace=wrap;html=1;shadow=1;strokeWidth=2;fontSize=20;fillColor=#ffe6cc;strokeColor=#d79b00;" vertex="1" parent="1">
          <mxGeometry x="268" y="20" width="150" height="40" as="geometry" />
        </mxCell>
        <mxCell id="DbwIoAdaLj88i89GR5O_-10" value="Category (rib)" style="rounded=1;whiteSpace=wrap;html=1;shadow=1;strokeWidth=2;fontSize=20;fillColor=#dae8fc;strokeColor=#6c8ebf;" vertex="1" parent="1">
          <mxGeometry x="498" y="20" width="150" height="40" as="geometry" />
        </mxCell>
        <mxCell id="DbwIoAdaLj88i89GR5O_-12" value="Category (rib)" style="rounded=1;whiteSpace=wrap;html=1;shadow=1;strokeWidth=2;fontSize=20;fillColor=#f8cecc;strokeColor=#b85450;" vertex="1" parent="1">
          <mxGeometry x="231" y="472.0000000000001" width="150" height="40" as="geometry" />
        </mxCell>
        <mxCell id="DbwIoAdaLj88i89GR5O_-13" value="Category (rib)" style="rounded=1;whiteSpace=wrap;html=1;shadow=1;strokeWidth=2;fontSize=20;fillColor=#e1d5e7;strokeColor=#9673a6;" vertex="1" parent="1">
          <mxGeometry x="461" y="472" width="150" height="40" as="geometry" />
        </mxCell>
        <mxCell id="DbwIoAdaLj88i89GR5O_-14" value="Defect" style="ellipse;whiteSpace=wrap;html=1;rounded=1;shadow=1;strokeWidth=2;fontSize=20;fillColor=#eeeeee;strokeColor=#36393d;" vertex="1" parent="1">
          <mxGeometry x="730" y="216" width="120" height="120" as="geometry" />
        </mxCell>
        <mxCell id="DbwIoAdaLj88i89GR5O_-15" value="&lt;span style=&quot;&quot;&gt;Root cause&lt;/span&gt;" style="html=1;shadow=0;dashed=0;align=center;verticalAlign=middle;shape=mxgraph.arrows2.arrow;dy=0.5;dx=15;direction=north;notch=0;rounded=0;strokeWidth=1;fontSize=20;rotation=90;horizontal=0;labelPosition=left;verticalLabelPosition=middle;fillColor=#d5e8d4;strokeColor=#82b366;labelBackgroundColor=none;" vertex="1" parent="1">
          <mxGeometry x="89" y="57" width="20" height="110" as="geometry" />
        </mxCell>
        <mxCell id="DbwIoAdaLj88i89GR5O_-16" value="&lt;span style=&quot;&quot;&gt;Root cause&lt;/span&gt;" style="html=1;shadow=0;dashed=0;align=center;verticalAlign=middle;shape=mxgraph.arrows2.arrow;dy=0.5;dx=15;direction=north;notch=0;rounded=0;strokeWidth=1;fontSize=20;rotation=90;horizontal=0;labelPosition=left;verticalLabelPosition=middle;fillColor=#ffe6cc;strokeColor=#d79b00;labelBackgroundColor=none;" vertex="1" parent="1">
          <mxGeometry x="292" y="57" width="20" height="110" as="geometry" />
        </mxCell>
        <mxCell id="DbwIoAdaLj88i89GR5O_-17" value="Root cause" style="html=1;shadow=0;dashed=0;align=center;verticalAlign=middle;shape=mxgraph.arrows2.arrow;dy=0.5;dx=15;direction=north;notch=0;rounded=0;strokeWidth=1;fontSize=20;rotation=90;horizontal=0;labelPosition=left;verticalLabelPosition=middle;fillColor=#dae8fc;strokeColor=#6c8ebf;labelBackgroundColor=none;" vertex="1" parent="1">
          <mxGeometry x="523" y="57" width="20" height="110" as="geometry" />
        </mxCell>
        <mxCell id="DbwIoAdaLj88i89GR5O_-19" value="&lt;span style=&quot;&quot;&gt;Root cause&lt;/span&gt;" style="html=1;shadow=0;dashed=0;align=center;verticalAlign=middle;shape=mxgraph.arrows2.arrow;dy=0.5;dx=15;direction=north;notch=0;rounded=0;strokeWidth=1;fontSize=20;rotation=90;horizontal=0;labelPosition=left;verticalLabelPosition=middle;fillColor=#f8cecc;strokeColor=#b85450;labelBackgroundColor=none;" vertex="1" parent="1">
          <mxGeometry x="268" y="362" width="20" height="110" as="geometry" />
        </mxCell>
        <mxCell id="DbwIoAdaLj88i89GR5O_-20" value="Part ejection" style="html=1;shadow=0;dashed=0;align=center;verticalAlign=middle;shape=mxgraph.arrows2.arrow;dy=0.5;dx=15;direction=north;notch=0;rounded=0;strokeWidth=1;fontSize=20;rotation=90;horizontal=0;labelPosition=left;verticalLabelPosition=middle;fillColor=#e1d5e7;strokeColor=#9673a6;labelBackgroundColor=none;" vertex="1" parent="1">
          <mxGeometry x="499" y="362" width="20" height="110" as="geometry" />
        </mxCell>
        <mxCell id="DbwIoAdaLj88i89GR5O_-21" value="&lt;span style=&quot;&quot;&gt;Root cause&lt;/span&gt;" style="html=1;shadow=0;dashed=0;align=center;verticalAlign=middle;shape=mxgraph.arrows2.arrow;dy=0.5;dx=15;direction=north;notch=0;rounded=0;strokeWidth=1;fontSize=20;rotation=90;horizontal=0;labelPosition=left;verticalLabelPosition=middle;fillColor=#d5e8d4;strokeColor=#82b366;labelBackgroundColor=none;" vertex="1" parent="1">
          <mxGeometry x="129" y="141" width="20" height="110" as="geometry" />
        </mxCell>
        <mxCell id="DbwIoAdaLj88i89GR5O_-22" value="&lt;span style=&quot;&quot;&gt;Root cause&lt;/span&gt;" style="html=1;shadow=0;dashed=0;align=center;verticalAlign=middle;shape=mxgraph.arrows2.arrow;dy=0.5;dx=15;direction=north;notch=0;rounded=0;strokeWidth=1;fontSize=20;rotation=90;horizontal=0;labelPosition=left;verticalLabelPosition=middle;fillColor=#ffe6cc;strokeColor=#d79b00;labelBackgroundColor=none;" vertex="1" parent="1">
          <mxGeometry x="332" y="141" width="20" height="110" as="geometry" />
        </mxCell>
        <mxCell id="DbwIoAdaLj88i89GR5O_-23" value="Root cause" style="html=1;shadow=0;dashed=0;align=center;verticalAlign=middle;shape=mxgraph.arrows2.arrow;dy=0.5;dx=15;direction=north;notch=0;rounded=0;strokeWidth=1;fontSize=20;rotation=90;horizontal=0;labelPosition=left;verticalLabelPosition=middle;fillColor=#dae8fc;strokeColor=#6c8ebf;labelBackgroundColor=none;" vertex="1" parent="1">
          <mxGeometry x="563" y="141" width="20" height="110" as="geometry" />
        </mxCell>
        <mxCell id="DbwIoAdaLj88i89GR5O_-25" value="&lt;span style=&quot;&quot;&gt;Root cause&lt;/span&gt;" style="html=1;shadow=0;dashed=0;align=center;verticalAlign=middle;shape=mxgraph.arrows2.arrow;dy=0.5;dx=15;direction=north;notch=0;rounded=0;strokeWidth=1;fontSize=20;rotation=90;horizontal=0;labelPosition=left;verticalLabelPosition=middle;fillColor=#f8cecc;strokeColor=#b85450;labelBackgroundColor=none;" vertex="1" parent="1">
          <mxGeometry x="319" y="291" width="20" height="110" as="geometry" />
        </mxCell>
        <mxCell id="DbwIoAdaLj88i89GR5O_-26" value="Molding process" style="html=1;shadow=0;dashed=0;align=center;verticalAlign=middle;shape=mxgraph.arrows2.arrow;dy=0.5;dx=15;direction=north;notch=0;rounded=0;strokeWidth=1;fontSize=20;rotation=90;horizontal=0;labelPosition=left;verticalLabelPosition=middle;fillColor=#e1d5e7;strokeColor=#9673a6;labelBackgroundColor=none;" vertex="1" parent="1">
          <mxGeometry x="550" y="291" width="20" height="110" as="geometry" />
        </mxCell>
        <mxCell id="KuyUD7ghYcB7iLqy1P4H-1" value="" style="html=1;shadow=0;dashed=0;align=center;verticalAlign=middle;shape=mxgraph.arrows2.arrow;dy=0.5;dx=15;direction=north;notch=0;rounded=0;strokeWidth=1;fontSize=20;rotation=35;fillColor=#fff2cc;strokeColor=#d6b656;" vertex="1" parent="1">
          <mxGeometry x="151" y="260" width="20" height="240" as="geometry" />
        </mxCell>
        <mxCell id="KuyUD7ghYcB7iLqy1P4H-2" value="Category (rib)" style="rounded=1;whiteSpace=wrap;html=1;shadow=1;strokeWidth=2;fontSize=20;fillColor=#fff2cc;strokeColor=#d6b656;" vertex="1" parent="1">
          <mxGeometry x="24" y="472.0000000000001" width="150" height="40" as="geometry" />
        </mxCell>
        <mxCell id="KuyUD7ghYcB7iLqy1P4H-3" value="&lt;span style=&quot;&quot;&gt;Root cause&lt;/span&gt;" style="html=1;shadow=0;dashed=0;align=center;verticalAlign=middle;shape=mxgraph.arrows2.arrow;dy=0.5;dx=15;direction=north;notch=0;rounded=0;strokeWidth=1;fontSize=20;rotation=90;horizontal=0;labelPosition=left;verticalLabelPosition=middle;fillColor=#fff2cc;strokeColor=#d6b656;labelBackgroundColor=none;" vertex="1" parent="1">
          <mxGeometry x="61" y="362" width="20" height="110" as="geometry" />
        </mxCell>
        <mxCell id="KuyUD7ghYcB7iLqy1P4H-4" value="&lt;span style=&quot;&quot;&gt;Root cause&lt;/span&gt;" style="html=1;shadow=0;dashed=0;align=center;verticalAlign=middle;shape=mxgraph.arrows2.arrow;dy=0.5;dx=15;direction=north;notch=0;rounded=0;strokeWidth=1;fontSize=20;rotation=90;horizontal=0;labelPosition=left;verticalLabelPosition=middle;fillColor=#fff2cc;strokeColor=#d6b656;labelBackgroundColor=none;" vertex="1" parent="1">
          <mxGeometry x="112" y="291" width="20" height="110" as="geometry" />
        </mxCell>
      </root>
    </mxGraphModel>
  </diagram>
</mxfile>
